SplineFontDB: 3.2
FontName: SteMiAlfa-Regular
FullName: SteMi Alfa Regular
FamilyName: SteMi
Weight: Regular
Copyright: Copyright (c) 2012-2025, Krzysztof Smirnow\n
UComments: "PL: Font, kt+APMA-rego zadaniem jest umo+AXwA-liwienie tworzenia tekst+APMA-w przy pomocy stenograficznego pisma SteMi: +AAoA-https://www.stenografia.pl/blog/2013-02-28_kurs-stemi-lekcja-01/+AAoA-EN:+AKAA Font whose task is to enable the creation of texts using the SteMi shorthand script (Polish basically, but)"
FontLog: "v. 2.0 began in 2023+AAoA-v. 1.0 postponed in 2013+AAoA-v. 1.0 began in 2012"
Version: 002.200
ItalicAngle: 0
UnderlinePosition: -298
UnderlineWidth: 148
Ascent: 1365
Descent: 683
InvalidEm: 0
sfntRevision: 0x00020000
LayerCount: 3
Layer: 0 1 "Warstwa t+AUIA-a" 1
Layer: 1 1 "Plan pierwszy" 1
Layer: 2 0 "Warstwa t+AUIA-a 2" 1
HasVMetrics: 1
XUID: [1021 102 369710040 11306370]
BaseHoriz: 0
StyleMap: 0x0040
FSType: 0
OS2Version: 4
OS2_WeightWidthSlopeOnly: 0
OS2_UseTypoMetrics: 1
CreationTime: 1379607424
ModificationTime: 1718955201
PfmFamily: 17
TTFWeight: 300
TTFWidth: 3
LineGap: 270
VLineGap: 270
Panose: 2 0 5 3 0 0 0 0 0 0
OS2TypoAscent: 2000
OS2TypoAOffset: 0
OS2TypoDescent: -1000
OS2TypoDOffset: 0
OS2TypoLinegap: 270
OS2WinAscent: 3557
OS2WinAOffset: 0
OS2WinDescent: 1092
OS2WinDOffset: 0
HheadAscent: 3557
HheadAOffset: 0
HheadDescent: -1092
HheadDOffset: 0
OS2SubXSize: 1950
OS2SubYSize: 2100
OS2SubXOff: 0
OS2SubYOff: 420
OS2SupXSize: 1950
OS2SupYSize: 2100
OS2SupXOff: 0
OS2SupYOff: 1440
OS2StrikeYSize: 149
OS2StrikeYPos: 776
OS2CapHeight: 3432
OS2XHeight: 1520
OS2FamilyClass: 2560
OS2Vendor: 'KsMi'
OS2CodePages: 00000001.00000000
OS2UnicodeRanges: 00000007.02000000.04000000.00000000
MarkAttachClasses: 1
DEI: 91125
TtTable: prep
PUSHW_1
 511
SCANCTRL
PUSHB_1
 1
SCANTYPE
SVTCA[y-axis]
MPPEM
PUSHB_1
 8
LT
IF
PUSHB_2
 1
 1
INSTCTRL
EIF
PUSHB_2
 70
 6
CALL
IF
POP
PUSHB_1
 16
EIF
MPPEM
PUSHB_1
 20
GT
IF
POP
PUSHB_1
 128
EIF
SCVTCI
PUSHB_1
 6
CALL
NOT
IF
EIF
PUSHB_1
 20
CALL

StartChar: .notdef
Encoding: 1114112 -1 0
Width: 1200
VWidth: 3000
Flags: HW
LayerCount: 3
Fore
SplineSet
150 150 m 1
 1050 150 l 1
 1050 1183 l 1
 150 1183 l 1
 150 150 l 1
0 0 m 1
 0 1333 l 1
 1200 1333 l 1
 1200 0 l 1
 0 0 l 1
EndSplineSet
Validated: 1
EndChar

StartChar: exclam
Encoding: 33 33 5
Width: 120
GlyphClass: 2
Flags: HW
LayerCount: 3
Fore
SplineSet
60 1360 m 29,0,-1
 60 1320 l 5,1,-1
 40 1340 l 5,2,-1
 80 1340 l 1029,3,-1
60 280 m 29,0,-1
 60 240 l 5,1,-1
 40 260 l 5,2,-1
 80 260 l 1029,3,-1
0 260 m 1025
119.998046875 1340 m 1
 120 1340 l 1
 120 260.5 l 1
 120 260 l 1
 119.998046875 260 l 1
 119.821289062 235.81640625 119.821289062 235.81640625 102.5 218 c 0
 85 200 85 200 60 200 c 0
 35 200 35 200 17.5 217.5 c 0
 0 235 0 235 0 260 c 2
 0 1340 l 2
 0 1365 0 1365 18 1382.5 c 0
 36 1400 36 1400 60 1400 c 0
 84 1400 84 1400 102 1382.5 c 0
 120 1365 120 1365 120 1340.5 c 0
 120 1340.25 120 1340.25 119.998046875 1340 c 1
EndSplineSet
Validated: 524291
EndChar

StartChar: numbersign
Encoding: 35 35 7
Width: 602
GlyphClass: 2
Flags: HW
LayerCount: 3
Fore
SplineSet
41 270.5 m 29,0,-1
 81 270.5 l 5,1,-1
 61 250.5 l 5,2,-1
 61 290.5 l 1029,3,-1
522 270.5 m 29,0,-1
 562 270.5 l 5,1,-1
 542 250.5 l 5,2,-1
 542 290.5 l 1029,3,-1
542 210.5 m 1025
40 535.5 m 29,0,-1
 80 535.5 l 5,1,-1
 60 515.5 l 5,2,-1
 60 555.5 l 1029,3,-1
521 535.5 m 29,0,-1
 561 535.5 l 5,1,-1
 541 515.5 l 5,2,-1
 541 555.5 l 1029,3,-1
541 475.5 m 1025
132.5 615 m 29,0,-1
 132.5 575 l 5,1,-1
 112.5 595 l 5,2,-1
 152.5 595 l 1029,3,-1
132.5 134 m 29,0,-1
 132.5 94 l 5,1,-1
 112.5 114 l 5,2,-1
 152.5 114 l 1029,3,-1
72.5 114 m 1025
375.5 618 m 29,0,-1
 375.5 578 l 5,1,-1
 355.5 598 l 5,2,-1
 395.5 598 l 1029,3,-1
375.5 137 m 29,0,-1
 375.5 97 l 5,1,-1
 355.5 117 l 5,2,-1
 395.5 117 l 1029,3,-1
315.5 117 m 1025
61 330.498046875 m 1
 61 330.5 l 1
 72.5 330.5 l 1
 72.5 475.5 l 1
 60 475.5 l 2
 35 475.5 35 475.5 17.5 493.5 c 0
 0 511.5 0 511.5 0 535.5 c 0
 0 559.5 0 559.5 17.5 577.5 c 0
 35 595.5 35 595.5 59.5 595.5 c 0
 59.75 595.5 59.75 595.5 60 595.498046875 c 1
 60 595.5 l 1
 72.501953125 595.5 l 1
 72.6806640625 620.174804688 72.6806640625 620.174804688 90.5 637.5 c 0
 108.5 655 108.5 655 132.5 655 c 0
 156.5 655 156.5 655 174.5 637.5 c 0
 192.5 620 192.5 620 192.5 595.5 c 1
 315.5 595.5 l 1
 315.5 598 l 2
 315.5 623 315.5 623 333.5 640.5 c 0
 351.5 658 351.5 658 375.5 658 c 0
 399.5 658 399.5 658 417.5 640.5 c 0
 435.5 623 435.5 623 435.5 598.5 c 0
 435.5 598.25 435.5 598.25 435.498046875 598 c 1
 435.5 598 l 1
 435.5 595.5 l 1
 540.5 595.5 l 1
 541 595.5 l 1
 541 595.498046875 l 1
 565.18359375 595.321289062 565.18359375 595.321289062 583 578 c 0
 601 560.5 601 560.5 601 535.5 c 0
 601 510.5 601 510.5 583.5 493 c 0
 566 475.5 566 475.5 541 475.5 c 2
 435.5 475.5 l 1
 435.5 330.5 l 1
 541.5 330.5 l 1
 542 330.5 l 1
 542 330.498046875 l 1
 566.18359375 330.321289062 566.18359375 330.321289062 584 313 c 0
 602 295.5 602 295.5 602 270.5 c 0
 602 245.5 602 245.5 584.5 228 c 0
 567 210.5 567 210.5 542 210.5 c 2
 435.5 210.5 l 1
 435.5 117.5 l 1
 435.5 117 l 1
 435.498046875 117 l 1
 435.321289062 92.81640625 435.321289062 92.81640625 418 75 c 0
 400.5 57 400.5 57 375.5 57 c 0
 350.5 57 350.5 57 333 74.5 c 0
 315.5 92 315.5 92 315.5 117 c 2
 315.5 210.5 l 1
 192.5 210.5 l 1
 192.5 114.5 l 1
 192.5 114 l 1
 192.498046875 114 l 1
 192.321289062 89.81640625 192.321289062 89.81640625 175 72 c 0
 157.5 54 157.5 54 132.5 54 c 0
 107.5 54 107.5 54 90 71.5 c 0
 72.5 89 72.5 89 72.5 114 c 2
 72.5 210.5 l 1
 61 210.5 l 2
 36 210.5 36 210.5 18.5 228.5 c 0
 1 246.5 1 246.5 1 270.5 c 0
 1 294.5 1 294.5 18.5 312.5 c 0
 36 330.5 36 330.5 60.5 330.5 c 0
 60.75 330.5 60.75 330.5 61 330.498046875 c 1
192.5 475.5 m 1
 192.5 330.5 l 1
 315.5 330.5 l 1
 315.5 475.5 l 1
 192.5 475.5 l 1
EndSplineSet
Validated: 526339
EndChar

StartChar: dollar
Encoding: 36 36 8
Width: 853
GlyphClass: 2
Flags: HW
LayerCount: 3
Fore
SplineSet
430 1714 m 29,0,-1
 430 1674 l 5,1,-1
 410 1694 l 5,2,-1
 450 1694 l 1029,3,-1
430 34 m 29,0,-1
 430 -6 l 5,1,-1
 410 14 l 5,2,-1
 450 14 l 1029,3,-1
370 14 m 1025
429 829 m 29,0,-1
 429 789 l 5,1,-1
 409 809 l 5,2,-1
 449 809 l 1029,3,-1
429 171 m 29,0,-1
 429 131 l 5,1,-1
 409 151 l 5,2,-1
 449 151 l 1029,3,-1
720 513 m 29,0,-1
 720 473 l 5,1,-1
 700 493 l 5,2,-1
 740 493 l 1029,3,-1
738 444.875 m 29,0,-1
 698 444.875 l 5,1,-1
 718 464.875 l 5,2,-1
 718 424.875 l 1029,3,-1
80 444.875 m 29,0,-1
 40 444.875 l 5,1,-1
 60 464.875 l 5,2,-1
 60 424.875 l 1029,3,-1
422 153.875 m 29,0,-1
 382 153.875 l 5,1,-1
 402 173.875 l 5,2,-1
 402 133.875 l 1029,3,-1
427.260742188 790.75390625 m 29,0,-1
 427.260742188 830.75390625 l 5,1,-1
 447.260742188 810.75390625 l 5,2,-1
 407.260742188 810.75390625 l 1029,3,-1
427.260742188 1448.75390625 m 29,0,-1
 427.260742188 1488.75390625 l 5,1,-1
 447.260742188 1468.75390625 l 5,2,-1
 407.260742188 1468.75390625 l 1029,3,-1
136.260742188 1106.75390625 m 29,0,-1
 136.260742188 1146.75390625 l 5,1,-1
 156.260742188 1126.75390625 l 5,2,-1
 116.260742188 1126.75390625 l 1029,3,-1
114.75390625 1172.87890625 m 29,0,-1
 154.75390625 1172.87890625 l 5,1,-1
 134.75390625 1152.87890625 l 5,2,-1
 134.75390625 1192.87890625 l 1029,3,-1
772.75390625 1172.87890625 m 29,0,-1
 812.75390625 1172.87890625 l 5,1,-1
 792.75390625 1152.87890625 l 5,2,-1
 792.75390625 1192.87890625 l 1029,3,-1
430.75390625 1463.87890625 m 29,0,-1
 470.75390625 1463.87890625 l 5,1,-1
 450.75390625 1443.87890625 l 5,2,-1
 450.75390625 1483.87890625 l 1029,3,-1
60 504.875 m 0
 85 504.875 85 504.875 102.5 486.875 c 0
 120 468.875 120 468.875 120 444.875 c 0
 120 439.87890625 120 439.87890625 119.2421875 435.143554688 c 0
 124.734375 325.185546875 124.734375 325.185546875 255 241.375 c 0
 292.6015625 217.560546875 292.6015625 217.560546875 370 213.645507812 c 1
 370 754.231445312 l 1
 255.896484375 771.940429688 255.896484375 771.940429688 175.760742188 863.75390625 c 0
 78.607421875 975.065429688 78.607421875 975.065429688 76.31640625 1123.55859375 c 0
 76.2607421875 1124.89550781 76.2607421875 1124.89550781 76.2607421875 1126.25390625 c 0
 76.2607421875 1126.87695312 76.2607421875 1126.87695312 76.2724609375 1127.49511719 c 0
 76.2607421875 1129.12207031 76.2607421875 1129.12207031 76.2607421875 1130.75390625 c 0
 76.2607421875 1143.76269531 76.2607421875 1143.76269531 76.97265625 1156.54785156 c 0
 74.75390625 1164.33300781 74.75390625 1164.33300781 74.75390625 1172.87890625 c 0
 74.75390625 1172.9453125 74.75390625 1172.9453125 74.75390625 1173.01074219 c 1
 74.376953125 1173.01074219 74.376953125 1173.01074219 74 1173.01171875 c 0
 73.75390625 1324.87890625 73.75390625 1324.87890625 187.75390625 1424.37890625 c 0
 195.29296875 1430.95898438 195.29296875 1430.95898438 203.002929688 1437.10449219 c 0
 274.0859375 1507.53222656 274.0859375 1507.53222656 370 1523.24316406 c 1
 370 1694 l 2
 370 1719 370 1719 388 1736.5 c 0
 406 1754 406 1754 430 1754 c 0
 454 1754 454 1754 472 1736.5 c 0
 490 1719 490 1719 490 1694.5 c 0
 490 1694.25 490 1694.25 489.998046875 1694 c 1
 490 1694 l 1
 490 1522.54101562 l 1
 621.974609375 1512.39746094 621.974609375 1512.39746094 729.75390625 1425.37890625 c 0
 846.858398438 1330.83105469 846.858398438 1330.83105469 851.557617188 1185.27148438 c 0
 852.75390625 1179.32421875 852.75390625 1179.32421875 852.75390625 1172.87890625 c 0
 852.75390625 1147.87890625 852.75390625 1147.87890625 835.25390625 1130.37890625 c 0
 817.75390625 1112.87890625 817.75390625 1112.87890625 792.75390625 1112.87890625 c 0
 767.75390625 1112.87890625 767.75390625 1112.87890625 750.25390625 1130.87890625 c 0
 732.75390625 1148.87890625 732.75390625 1148.87890625 732.75390625 1172.87890625 c 0
 732.75390625 1177.875 732.75390625 1177.875 733.51171875 1182.61035156 c 0
 728.01953125 1292.56835938 728.01953125 1292.56835938 597.75390625 1376.37890625 c 0
 561.934570312 1399.06445312 561.934570312 1399.06445312 490 1403.69238281 c 1
 490 864.920898438 l 1
 601.680664062 846.305664062 601.680664062 846.305664062 680.5 756 c 0
 777.653320312 644.688476562 777.653320312 644.688476562 779.944335938 496.1953125 c 0
 780 494.858398438 780 494.858398438 780 493.5 c 0
 780 492.876953125 780 492.876953125 779.98828125 492.258789062 c 0
 780 490.631835938 780 490.631835938 780 489 c 0
 780 467.151367188 780 467.151367188 777.991210938 445.935546875 c 0
 778 445.40625 778 445.40625 778 444.875 c 0
 778 444.80859375 778 444.80859375 778 444.743164062 c 1
 778.376953125 444.743164062 778.376953125 444.743164062 778.75390625 444.7421875 c 0
 779 292.875 779 292.875 665 193.375 c 0
 661.395507812 190.228515625 661.395507812 190.228515625 657.750976562 187.181640625 c 0
 586.59765625 114.131835938 586.59765625 114.131835938 490 97.146484375 c 1
 490 14.5 l 1
 490 14 l 1
 489.998046875 14 l 1
 489.821289062 -10.18359375 489.821289062 -10.18359375 472.5 -28 c 0
 455 -46 455 -46 430 -46 c 0
 405 -46 405 -46 387.5 -28.5 c 0
 370 -11 370 -11 370 14 c 2
 370 94.7158203125 l 1
 233.731445312 102.973632812 233.731445312 102.973632812 123 192.375 c 0
 5.8955078125 286.922851562 5.8955078125 286.922851562 1.1962890625 432.482421875 c 0
 -0 438.4296875 -0 438.4296875 0 444.875 c 0
 0 469.875 0 469.875 17.5 487.375 c 0
 35 504.875 35 504.875 60 504.875 c 0
490 741.407226562 m 1
 490 220.283203125 l 1
 490.821289062 220.454101562 490.821289062 220.454101562 491.6328125 220.629882812 c 0
 569.461914062 248.021484375 569.461914062 248.021484375 632.5 346 c 0
 652.482421875 377.55078125 652.482421875 377.55078125 658.454101562 437.12109375 c 0
 658 440.903320312 658 440.903320312 658 444.875 c 0
 658 453.890625 658 453.890625 660.275390625 461.930664062 c 0
 660.75 471.63671875 660.75 471.63671875 660.9140625 481.96484375 c 0
 660 487.287109375 660 487.287109375 660 493 c 0
 660 498.643554688 660 498.643554688 660.916992188 503.904296875 c 0
 659.477539062 597.06640625 659.477539062 597.06640625 633 633 c 0
 569.493164062 718.40625 569.493164062 718.40625 490 741.407226562 c 1
370 877.301757812 m 1
 370 1398.87304688 l 1
 363.022460938 1397.62207031 363.022460938 1397.62207031 356.639648438 1396.11132812 c 0
 283.547851562 1366.6796875 283.547851562 1366.6796875 223.760742188 1273.75390625 c 0
 196.826171875 1231.22558594 196.826171875 1231.22558594 195.346679688 1137.7890625 c 0
 196.260742188 1132.46679688 196.260742188 1132.46679688 196.260742188 1126.75390625 c 0
 196.260742188 1121.11035156 196.260742188 1121.11035156 195.34375 1115.84960938 c 0
 196.783203125 1022.6875 196.783203125 1022.6875 223.260742188 986.75390625 c 0
 288.2578125 899.34375 288.2578125 899.34375 370 877.301757812 c 1
EndSplineSet
Validated: 527395
EndChar

StartChar: percent
Encoding: 37 37 9
Width: 1768
GlyphClass: 2
Flags: HW
LayerCount: 3
Fore
SplineSet
1021.04492188 1365.20214844 m 29,0,-1
 1001.04492188 1330.56054688 l 5,1,-1
 993.724609375 1357.88183594 l 5,2,-1
 1028.36523438 1337.88183594 l 1029,3,-1
181.044921875 -89.7197265625 m 29,0,-1
 161.044921875 -124.361328125 l 5,1,-1
 153.724609375 -97.0400390625 l 5,2,-1
 188.365234375 -117.040039062 l 1029,3,-1
119.083984375 -77.0400390625 m 1025
868.104492188 1185.24511719 m 29,0,-1
 837.462890625 1159.53417969 l 5,1,-1
 839.927734375 1187.70996094 l 5,2,-1
 865.638671875 1157.06835938 l 1029,3,-1
347.194335938 748.149414062 m 29,0,-1
 316.552734375 722.4375 l 5,1,-1
 319.017578125 750.614257812 l 5,2,-1
 344.729492188 719.97265625 l 1029,3,-1
293.306640625 781.255859375 m 1025
708.4609375 342.651367188 m 29,0,-1
 677.819335938 316.940429688 l 5,1,-1
 680.284179688 345.1171875 l 5,2,-1
 705.99609375 314.475585938 l 1029,3,-1
187.551757812 -94.4443359375 m 29,0,-1
 156.909179688 -120.155273438 l 5,1,-1
 159.375 -91.978515625 l 5,2,-1
 185.0859375 -122.62109375 l 1029,3,-1
133.663085938 -61.3369140625 m 1025
733.143554688 297.853515625 m 29,0,-1
 733.143554688 257.853515625 l 5,1,-1
 713.143554688 277.853515625 l 5,2,-1
 753.143554688 277.853515625 l 1029,3,-1
913 478 m 29,0,-1
 913 438 l 5,1,-1
 893 458 l 5,2,-1
 933 458 l 1029,3,-1
1095 298 m 29,0,-1
 1095 258 l 5,1,-1
 1075 278 l 5,2,-1
 1115 278 l 1029,3,-1
913 118 m 29,0,-1
 913 78 l 5,1,-1
 893 98 l 5,2,-1
 933 98 l 1029,3,-1
60.1435546875 893.853515625 m 29,0,-1
 60.1435546875 853.853515625 l 5,1,-1
 40.1435546875 873.853515625 l 5,2,-1
 80.1435546875 873.853515625 l 1029,3,-1
240 1074 m 29,0,-1
 240 1034 l 5,1,-1
 220 1054 l 5,2,-1
 260 1054 l 1029,3,-1
422 894 m 29,0,-1
 422 854 l 5,1,-1
 402 874 l 5,2,-1
 442 874 l 1029,3,-1
240 714 m 29,0,-1
 240 674 l 5,1,-1
 220 694 l 5,2,-1
 260 694 l 1029,3,-1
1082.5 109.5 m 0
 1010 38 1010 38 914.5 38 c 0
 914.006835938 38 914.006835938 38 913.513671875 38.001953125 c 0
 913.2578125 38 913.2578125 38 913 38 c 0
 912.158203125 38 912.158203125 38 911.325195312 38.01953125 c 0
 817.784179688 39.1904296875 817.784179688 39.1904296875 746 109.5 c 0
 688.610351562 165.7109375 688.610351562 165.7109375 676.337890625 237.372070312 c 1
 210.797851562 -153.262695312 l 1
 210.796875 -153.26171875 l 1
 193.96875 -167.172851562 193.96875 -167.172851562 172.134765625 -167.043945312 c 0
 155.9921875 -167.631835938 155.9921875 -167.631835938 141.044921875 -159.001953125 c 0
 119.39453125 -146.501953125 119.39453125 -146.501953125 112.989257812 -122.596679688 c 0
 106.583984375 -98.69140625 106.583984375 -98.69140625 119.083984375 -77.0400390625 c 2
 741.131835938 1000.37890625 l 1
 449.7265625 755.860351562 l 1
 433.627929688 729.295898438 433.627929688 729.295898438 409.5 705.5 c 0
 337 634 337 634 241.5 634 c 0
 241.006835938 634 241.006835938 634 240.513671875 634.001953125 c 0
 240.2578125 634 240.2578125 634 240 634 c 0
 239.158203125 634 239.158203125 634 238.325195312 634.01953125 c 0
 144.784179688 635.190429688 144.784179688 635.190429688 73 705.5 c 0
 0 777 0 777 0 873.5 c 0
 0 970 0 970 72.9599609375 1042 c 0
 144.830078125 1112.84667969 144.830078125 1112.84667969 238.447265625 1113.98144531 c 0
 239.220703125 1114 239.220703125 1114 240 1114 c 0
 240.25390625 1114 240.25390625 1114 240.506835938 1113.99804688 c 0
 241.002929688 1114 241.002929688 1114 241.5 1114 c 0
 337 1114 337 1114 409.5 1042 c 0
 458.595703125 993.2421875 458.595703125 993.2421875 474.4453125 933.25 c 1
 814.215820312 1218.35253906 l 2
 833.3671875 1234.421875 833.3671875 1234.421875 858.342773438 1231.88183594 c 0
 866.12890625 1231.08984375 866.12890625 1231.08984375 872.987304688 1228.75878906 c 1
 959.083984375 1377.88183594 l 2
 971.583984375 1399.53222656 971.583984375 1399.53222656 995.922851562 1405.6875 c 0
 1020.26074219 1411.84277344 1020.26074219 1411.84277344 1041.04492188 1399.84277344 c 0
 1061.83007812 1387.84277344 1061.83007812 1387.84277344 1068.66796875 1363.6875 c 0
 1075.50683594 1339.53222656 1075.50683594 1339.53222656 1063.25683594 1318.31445312 c 0
 1063.13183594 1318.09765625 1063.13183594 1318.09765625 1063.00585938 1317.8828125 c 1
 1063.00683594 1317.88183594 l 1
 391.741210938 155.216796875 l 1
 654.571289062 375.756835938 l 1
 654.573242188 375.758789062 l 2
 673.724609375 391.828125 673.724609375 391.828125 698.700195312 389.288085938 c 0
 700.220703125 389.133789062 700.220703125 389.133789062 701.706054688 388.919921875 c 0
 718.764648438 419.162109375 718.764648438 419.162109375 745.959960938 446 c 0
 817.830078125 516.846679688 817.830078125 516.846679688 911.447265625 517.981445312 c 0
 912.220703125 518 912.220703125 518 913 518 c 0
 913.25390625 518 913.25390625 518 913.506835938 517.998046875 c 0
 914.002929688 518 914.002929688 518 914.5 518 c 0
 1010 518 1010 518 1082.5 446 c 0
 1154.234375 374.760742188 1154.234375 374.760742188 1154.9921875 279.53515625 c 0
 1155 279.01953125 1155 279.01953125 1155 278.5 c 0
 1155 278.330078125 1155 278.330078125 1154.99902344 278.16015625 c 0
 1154.99902344 277.830078125 1154.99902344 277.830078125 1155 277.5 c 0
 1155 181 1155 181 1082.5 109.5 c 0
293.306640625 781.255859375 m 2
 358.159179688 835.673828125 l 1
 362 852.288085938 362 852.288085938 362 872 c 0
 362 928 362 928 328 961 c 0
 294 994 294 994 238 994 c 0
 182 994 182 994 151 959.5 c 0
 121.474609375 926.641601562 121.474609375 926.641601562 120.0703125 877.454101562 c 0
 120.143554688 875.91796875 120.143554688 875.91796875 120.143554688 874.353515625 c 0
 120.143554688 872.254882812 120.143554688 872.254882812 120.015625 870.204101562 c 0
 120.69140625 819.275390625 120.69140625 819.275390625 151.5 787 c 0
 183 754 183 754 241.5 754 c 0
 259.985351562 754 259.985351562 754 275.724609375 757.095703125 c 1
 281.016601562 770.943359375 281.016601562 770.943359375 293.306640625 781.255859375 c 2
793.0703125 281.454101562 m 0
 793.143554688 279.91796875 793.143554688 279.91796875 793.143554688 278.353515625 c 0
 793.143554688 276.254882812 793.143554688 276.254882812 793.015625 274.204101562 c 0
 793.69140625 223.275390625 793.69140625 223.275390625 824.5 191 c 0
 856 158 856 158 914.5 158 c 0
 973 158 973 158 1004 189 c 0
 1035 220 1035 220 1035 276 c 0
 1035 332 1035 332 1001 365 c 0
 967 398 967 398 911 398 c 0
 855 398 855 398 824 363.5 c 0
 794.474609375 330.641601562 794.474609375 330.641601562 793.0703125 281.454101562 c 0
EndSplineSet
Validated: 527363
Layer: 2
SplineSet
243.143554688 1216 m 4
 243.143554688 1305.33300781 273.810546875 1381.33300781 335.143554688 1444 c 4
 396.4765625 1505.33300781 472.143554688 1536 562.143554688 1536 c 4
 604.143554688 1536 645.143554688 1528 685.143554688 1512 c 4
 724.4765625 1495.33300781 758.810546875 1472.33300781 788.143554688 1443 c 132
 817.4765625 1413.66699219 840.4765625 1379.33300781 857.143554688 1340 c 4
 871.143554688 1307.33300781 879.143554688 1273 881.143554688 1237 c 5
 1504.14355469 2001 l 5
 1691.14355469 2001 l 5
 551.143554688 -474 l 5
 1205.14355469 391 l 6
 1211.81054688 399 1217.14355469 404.666992188 1221.14355469 408 c 4
 1282.4765625 470 1357.81054688 501 1447.14355469 501 c 4
 1489.81054688 501 1530.4765625 493 1569.14355469 477 c 4
 1607.14355469 461 1641.4765625 437.666992188 1672.14355469 407 c 4
 1702.14355469 377 1725.81054688 342 1743.14355469 302 c 4
 1759.81054688 264 1768.14355469 223.666992188 1768.14355469 181 c 4
 1768.14355469 92.3330078125 1737.14355469 17 1675.14355469 -45 c 132
 1613.14355469 -107 1537.14355469 -138 1447.14355469 -138 c 4
 1356.4765625 -138 1280.81054688 -107.333007812 1220.14355469 -46 c 4
 1171.4765625 2.6669921875 1142.14355469 61.3330078125 1132.14355469 130 c 5
 482.143554688 -749 l 5
 289.143554688 -749 l 5
 1473.14355469 1809 l 5
 789.143554688 990 l 5
 727.143554688 928 651.4765625 897 562.143554688 897 c 4
 472.143554688 897 396.4765625 927.666992188 335.143554688 989 c 132
 273.810546875 1050.33300781 243.143554688 1126 243.143554688 1216 c 4
378.143554688 1216 m 4
 378.143554688 1163.33300781 395.810546875 1119.33300781 431.143554688 1084 c 4
 465.810546875 1049.33300781 509.4765625 1032 562.143554688 1032 c 4
 613.4765625 1032 657.143554688 1050 693.143554688 1086 c 4
 729.143554688 1120.66699219 747.143554688 1164 747.143554688 1216 c 132
 747.143554688 1268 729.143554688 1311.33300781 693.143554688 1346 c 4
 657.143554688 1382 613.4765625 1400 562.143554688 1400 c 4
 511.4765625 1400 467.810546875 1382.33300781 431.143554688 1347 c 4
 395.810546875 1311.66699219 378.143554688 1268 378.143554688 1216 c 4
1264.14355469 181 m 4
 1264.14355469 128.333007812 1281.81054688 84.6669921875 1317.14355469 50 c 4
 1351.14355469 14.6669921875 1394.4765625 -3 1447.14355469 -3 c 4
 1498.4765625 -3 1541.81054688 14.6669921875 1577.14355469 50 c 4
 1613.14355469 86 1631.14355469 129.666992188 1631.14355469 181 c 132
 1631.14355469 232.333007812 1613.14355469 276 1577.14355469 312 c 132
 1541.14355469 348 1497.81054688 366 1447.14355469 366 c 4
 1394.4765625 366 1351.14355469 348.333007812 1317.14355469 313 c 4
 1281.81054688 278.333007812 1264.14355469 234.333007812 1264.14355469 181 c 4
EndSplineSet
EndChar

StartChar: ampersand
Encoding: 38 38 10
Width: 844
GlyphClass: 2
Flags: HW
LayerCount: 3
Fore
SplineSet
669.28515625 238.421875 m 1
 723.7109375 308.588867188 723.7109375 308.588867188 723.7109375 504.149414062 c 0,0,0
 723.7109375 522.88671875 723.7109375 522.88671875 723.211914062 542.775390625 c 1
 844.361328125 542.775390625 l 1
 844.361328125 513.963867188 l 2
 844.68359375 279 844.68359375 279 734.29296875 150.513671875 c 1
 805.68359375 48 l 1
 702.68359375 -22 l 1
 644.907226562 61.8671875 l 1
 524.68359375 -40 524.68359375 -40 368.18359375 -40 c 0
 211.68359375 -40 211.68359375 -40 106.18359375 58 c 0
 0 156.634765625 0 156.634765625 0 311.431640625 c 0,0,0
 0 510.33203125 0 510.33203125 204.630859375 657.276367188 c 1
 132.846679688 761.465820312 132.846679688 761.465820312 132.846679688 869.090820312 c 0,0,0
 132.846679688 976.141601562 132.846679688 976.141601562 206.108398438 1039.93359375 c 0
 270.817382812 1095.953125 270.817382812 1095.953125 335.384765625 1096.07519531 c 0
 355.68359375 1096 355.68359375 1096 392.68359375 1091 c 0
 429.68359375 1086 429.68359375 1086 486.68359375 1043.5 c 0
 543.68359375 1001 543.68359375 1001 553.68359375 964 c 0
 563.68359375 927 563.68359375 927 563.6484375 895.143554688 c 0
 563.68359375 818 563.68359375 818 515.68359375 746 c 0
 467.68359375 674 467.68359375 674 386.35546875 618.124023438 c 1
 669.28515625 238.421875 l 1
321.348632812 708.987304688 m 1
 353.852539062 720.067382812 353.852539062 720.067382812 381.922851562 752.202148438 c 0
 437.758789062 816.1171875 437.758789062 816.1171875 439.54296875 880.369140625 c 2
 439.54296875 883.325195312 l 2
 439.54296875 932.69921875 439.54296875 932.69921875 386.35546875 960.151367188 c 0
 360.5 974.186523438 360.5 974.186523438 342.770507812 974.186523438 c 0
 325.041992188 974.186523438 325.041992188 974.186523438 303.618164062 956.45703125 c 0
 262.250976562 923.215820312 262.250976562 923.215820312 262.250976562 873.721679688 c 0
 262.250976562 824.227539062 262.250976562 824.227539062 277.763671875 788.029296875 c 0
 293.27734375 751.833007812 293.27734375 751.833007812 321.348632812 708.987304688 c 1
166.217773438 467.055664062 m 0
 130.01953125 409.8046875 130.01953125 409.8046875 130.01953125 315.248046875 c 0
 130.01953125 220.69140625 130.01953125 220.69140625 204.630859375 147.190429688 c 0
 279.241210938 73.6875 279.241210938 73.6875 385.986328125 73.6875 c 0
 492.731445312 73.6875 492.731445312 73.6875 581.377929688 146.081054688 c 1
 265.205078125 574.540039062 l 1
 202.4140625 524.306640625 202.4140625 524.306640625 166.217773438 467.055664062 c 0
EndSplineSet
Validated: 524321
EndChar

StartChar: parenleft
Encoding: 40 40 12
Width: 650
GlyphClass: 2
Flags: HW
LayerCount: 3
Fore
SplineSet
40 772.5 m 29,0,-1
 80 772.5 l 5,1,-1
 60 752.5 l 5,2,-1
 60 792.5 l 1029,3,-1
320 772.5 m 29,0,-1
 360 772.5 l 5,1,-1
 340 752.5 l 5,2,-1
 340 792.5 l 1029,3,-1
340 712.5 m 1025
60 832.498046875 m 1
 60 832.5 l 1
 79.5 832.5 l 1
 79.5 833 l 1
 78.9462890625 865.969726562 78.9462890625 865.969726562 78.9462890625 898.822265625 c 0,0,0
 78.9462890625 1340.27246094 78.9462890625 1340.27246094 179 1760.5 c 0
 286.5 2212 286.5 2212 542.5 2775 c 1
 650.5 2714 l 1
 426.5 2226 426.5 2226 301.5 1692 c 0
 208.708984375 1298.11132812 208.708984375 1298.11132812 206.466796875 832.5 c 1
 339.5 832.5 l 1
 340 832.5 l 1
 340 832.498046875 l 1
 364.18359375 832.321289062 364.18359375 832.321289062 382 815 c 0
 400 797.5 400 797.5 400 772.5 c 0
 400 747.5 400 747.5 382.5 730 c 0
 365 712.5 365 712.5 340 712.5 c 2
 212.104492188 712.5 l 1
 260.111328125 157.84375 260.111328125 157.84375 353.5 -161 c 0
 452.5 -499 452.5 -499 623.5 -813 c 1
 515.5 -874 l 1
 313.5 -506 313.5 -506 231.5 -213 c 0
 89.5859375 297.692382812 89.5859375 297.692382812 79.51171875 712.5 c 1
 60 712.5 l 2
 35 712.5 35 712.5 17.5 730.5 c 0
 0 748.5 0 748.5 0 772.5 c 0
 0 796.5 0 796.5 17.5 814.5 c 0
 35 832.5 35 832.5 59.5 832.5 c 0
 59.75 832.5 59.75 832.5 60 832.498046875 c 1
EndSplineSet
Validated: 524291
EndChar

StartChar: asterisk
Encoding: 42 42 14
Width: 755
GlyphClass: 2
Flags: HW
LayerCount: 3
Fore
SplineSet
596.361328125 1344.83398438 m 29,0,-1
 565.719726562 1319.12304688 l 5,1,-1
 568.184570312 1347.29980469 l 5,2,-1
 593.896484375 1316.65722656 l 1029,3,-1
75.451171875 907.73828125 m 29,0,-1
 44.8095703125 882.02734375 l 5,1,-1
 47.2744140625 910.203125 l 5,2,-1
 72.986328125 879.561523438 l 1029,3,-1
21.5634765625 940.845703125 m 1025
159.017578125 1333.30664062 m 29,0,-1
 189.659179688 1307.59472656 l 5,1,-1
 161.482421875 1305.12988281 l 5,2,-1
 187.194335938 1335.77148438 l 1029,3,-1
679.927734375 896.2109375 m 29,0,-1
 710.569335938 870.499023438 l 5,1,-1
 682.392578125 868.034179688 l 5,2,-1
 708.104492188 898.67578125 l 1029,3,-1
656.680664062 837.392578125 m 1025
377.176757812 1408 m 29,0,-1
 377.176757812 1368 l 5,1,-1
 357.176757812 1388 l 5,2,-1
 397.176757812 1388 l 1029,3,-1
377.176757812 728 m 29,0,-1
 377.176757812 688 l 5,1,-1
 357.176757812 708 l 5,2,-1
 397.176757812 708 l 1029,3,-1
317.176757812 708 m 1025
619.606445312 1286.01660156 m 1
 619.607421875 1286.015625 l 1
 464.1640625 1155.58203125 l 1
 733.366210938 929.6953125 l 2
 733.399414062 929.666992188 733.399414062 929.666992188 733.432617188 929.638671875 c 0
 733.466796875 929.610351562 733.466796875 929.610351562 733.5 929.58203125 c 2
 733.815429688 929.317382812 l 1
 733.814453125 929.31640625 l 1
 752.227539062 913.635742188 752.227539062 913.635742188 754.741210938 888.915039062 c 0
 757.280273438 863.938476562 757.280273438 863.938476562 741.2109375 844.788085938 c 0
 725.141601562 825.63671875 725.141601562 825.63671875 700.487304688 823.479492188 c 0
 675.83203125 821.322265625 675.83203125 821.322265625 656.680664062 837.392578125 c 2
 437.176757812 1021.57910156 l 1
 437.176757812 708.5 l 1
 437.176757812 708 l 1
 437.17578125 708 l 1
 436.998046875 683.81640625 436.998046875 683.81640625 419.676757812 666 c 0
 402.176757812 648 402.176757812 648 377.176757812 648 c 0
 352.176757812 648 352.176757812 648 334.676757812 665.5 c 0
 317.176757812 683 317.176757812 683 317.176757812 708 c 2
 317.176757812 1032.24511719 l 1
 98.6982421875 848.919921875 l 1
 98.697265625 848.920898438 l 1
 80.0576171875 833.51171875 80.0576171875 833.51171875 55.275390625 835.329101562 c 0
 30.2373046875 837.1640625 30.2373046875 837.1640625 14.16796875 856.315429688 c 0
 -1.90234375 875.466796875 -1.90234375 875.466796875 0.2548828125 900.12109375 c 0
 2.412109375 924.775390625 2.412109375 924.775390625 21.5634765625 940.845703125 c 2
 277.477539062 1155.58300781 l 1
 135.776367188 1274.48535156 l 2
 135.7734375 1274.48632812 135.7734375 1274.48632812 135.771484375 1274.48828125 c 0
 116.620117188 1290.55761719 116.620117188 1290.55761719 114.78515625 1315.59570312 c 0
 112.94921875 1340.6328125 112.94921875 1340.6328125 128.375976562 1359.01757812 c 0
 143.802734375 1377.40332031 143.802734375 1377.40332031 168.778320312 1379.94335938 c 0
 193.754882812 1382.48339844 193.754882812 1382.48339844 212.522460938 1366.734375 c 0
 212.71484375 1366.57324219 212.71484375 1366.57324219 212.904296875 1366.41210938 c 1
 212.905273438 1366.41308594 l 1
 317.176757812 1278.91894531 l 1
 317.176757812 1388 l 2
 317.176757812 1413 317.176757812 1413 335.176757812 1430.5 c 0
 353.176757812 1448 353.176757812 1448 377.176757812 1448 c 0
 401.176757812 1448 401.176757812 1448 419.176757812 1430.5 c 0
 437.176757812 1413 437.176757812 1413 437.176757812 1388.5 c 0
 437.176757812 1388.25 437.176757812 1388.25 437.17578125 1388 c 1
 437.176757812 1388 l 1
 437.176757812 1289.58789062 l 1
 542.47265625 1377.94140625 l 1
 542.47265625 1377.94140625 l 2
 561.624023438 1394.01074219 561.624023438 1394.01074219 586.600585938 1391.47070312 c 0
 611.576171875 1388.93066406 611.576171875 1388.93066406 627.002929688 1370.54589844 c 0
 642.4296875 1352.16113281 642.4296875 1352.16113281 640.594726562 1327.12304688 c 0
 638.758789062 1302.0859375 638.758789062 1302.0859375 619.990234375 1286.33691406 c 0
 619.798828125 1286.17578125 619.798828125 1286.17578125 619.606445312 1286.01660156 c 1
EndSplineSet
Validated: 526339
EndChar

StartChar: plus
Encoding: 43 43 15
Width: 800
GlyphClass: 2
Flags: HW
LayerCount: 3
Fore
SplineSet
760 889.5 m 29,0,-1
 720 889.5 l 5,1,-1
 740 909.5 l 5,2,-1
 740 869.5 l 1029,3,-1
80 889.5 m 29,0,-1
 40 889.5 l 5,1,-1
 60 909.5 l 5,2,-1
 60 869.5 l 1029,3,-1
60 949.5 m 1025
478.5 1167 m 29,0,-1
 478.5 1127 l 5,1,-1
 458.5 1147 l 5,2,-1
 498.5 1147 l 1029,3,-1
478.5 487 m 29,0,-1
 478.5 447 l 5,1,-1
 458.5 467 l 5,2,-1
 498.5 467 l 1029,3,-1
418.5 467 m 1025
740 829.501827107 m 1
 740 829.5 l 1
 538.5 829.5 l 1
 538.5 467.5 l 1
 538.5 467 l 1
 538.498172893 467 l 1
 538.3211862 442.816077234 538.3211862 442.816077234 521 425 c 0
 503.5 407 503.5 407 478.5 407 c 0
 453.5 407 453.5 407 436 424.5 c 0
 418.5 442 418.5 442 418.5 467 c 2
 418.5 829.5 l 1
 60.5 829.5 l 1
 60 829.5 l 1
 60 829.501827107 l 1
 35.8160772344 829.6788138 35.8160772344 829.6788138 18 847 c 0
 0 864.5 0 864.5 0 889.5 c 0
 0 914.5 0 914.5 17.5 932 c 0
 35 949.5 35 949.5 60 949.5 c 2
 418.5 949.5 l 1
 418.5 1147 l 2
 418.5 1172 418.5 1172 436.5 1189.5 c 0
 454.5 1207 454.5 1207 478.5 1207 c 0
 502.5 1207 502.5 1207 520.5 1189.5 c 0
 538.5 1172 538.5 1172 538.5 1147.5 c 0
 538.5 1147.24966068 538.5 1147.24966068 538.498172893 1147 c 1
 538.5 1147 l 1
 538.5 949.5 l 1
 740 949.5 l 2
 765 949.5 765 949.5 782.5 931.5 c 0
 800 913.5 800 913.5 800 889.5 c 0
 800 865.5 800 865.5 782.5 847.5 c 0
 765 829.5 765 829.5 740.5 829.5 c 0
 740.24966068 829.5 740.24966068 829.5 740 829.501827107 c 1
EndSplineSet
Validated: 524291
EndChar

StartChar: comma
Encoding: 44 44 16
Width: 654
GlyphClass: 2
Flags: HW
LayerCount: 3
Fore
SplineSet
401.63671875 -121.678710938 m 25,0,-1
 429.920898438 -93.39453125 l 25,1,-1
 429.920898438 -121.678710938 l 25,2,-1
 401.63671875 -93.39453125 l 1049,3,-1
47.3759765625 -473.110351562 m 25,0,-1
 75.66015625 -444.826171875 l 25,1,-1
 75.66015625 -473.110351562 l 25,2,-1
 47.3759765625 -444.826171875 l 1049,3,-1
441.495117188 -106.5 m 29,0,-1
 401.495117188 -106.5 l 5,1,-1
 421.495117188 -86.5 l 5,2,-1
 421.495117188 -126.5 l 1029,3,-1
321.495117188 -106.5 m 29,0,-1
 281.495117188 -106.5 l 5,1,-1
 301.495117188 -86.5 l 5,2,-1
 301.495117188 -126.5 l 1029,3,-1
301.495117188 -46.5 m 1025
18.73828125 -501.041015625 m 0
 0 -482.302734375 0 -482.302734375 0 -458.967773438 c 0
 0 -435.633789062 0 -435.633789062 20.15234375 -415.481445312 c 0
 37.345703125 -398.288085938 37.345703125 -398.288085938 55.8251953125 -396.278320312 c 0
 172.145507812 -361.069335938 172.145507812 -361.069335938 247.034179688 -286.1796875 c 0
 298.66796875 -234.546875 298.66796875 -234.546875 329.994140625 -166.5 c 1
 301.995117188 -166.5 l 1
 301.495117188 -166.5 l 1
 301.495117188 -166.498046875 l 1
 277.311523438 -166.321289062 277.311523438 -166.321289062 259.495117188 -149 c 0
 241.495117188 -131.5 241.495117188 -131.5 241.495117188 -106.5 c 0
 241.495117188 -81.5 241.495117188 -81.5 258.995117188 -64 c 0
 276.495117188 -46.5 276.495117188 -46.5 301.495117188 -46.5 c 2
 401.8984375 -46.5 l 2
 409.091796875 -44.365234375 409.091796875 -44.365234375 416.485351562 -44.603515625 c 0
 423.719726562 -44.8369140625 423.719726562 -44.8369140625 430.72265625 -47.1494140625 c 0
 449.819335938 -49.919921875 449.819335938 -49.919921875 463.995117188 -64.5 c 0
 481.495117188 -82.5 481.495117188 -82.5 481.495117188 -106.5 c 0
 481.495117188 -124.618164062 481.495117188 -124.618164062 471.522460938 -139.31640625 c 1
 432.16015625 -272.174804688 432.16015625 -272.174804688 332.240234375 -372.094726562 c 0
 228.2578125 -476.077148438 228.2578125 -476.077148438 81.2685546875 -516.336914062 c 0
 71.9228515625 -519.780273438 71.9228515625 -519.780273438 61.517578125 -519.780273438 c 0
 37.4765625 -519.780273438 37.4765625 -519.780273438 18.73828125 -501.041015625 c 0
EndSplineSet
Validated: 524291
Layer: 2
SplineSet
418.995117188 250 m 1
 653.995117188 249 l 1
 652.995117188 125 l 1026
EndSplineSet
EndChar

StartChar: hyphen
Encoding: 45 45 17
Width: 1699
GlyphClass: 2
Flags: HW
LayerCount: 3
Fore
SplineSet
41.23046875 1164.72558594 m 29,0,-1
 78.818359375 1151.04492188 l 5,1,-1
 53.18359375 1139.09179688 l 5,2,-1
 66.8642578125 1176.6796875 l 1029,3,-1
1619.91503906 590.131835938 m 29,0,-1
 1657.50195312 576.451171875 l 5,1,-1
 1631.86816406 564.498046875 l 5,2,-1
 1645.54882812 602.0859375 l 1029,3,-1
1618.1875 526.91015625 m 1025
417.107421875 827.91796875 m 29,0,-1
 454.6953125 814.237304688 l 5,1,-1
 429.060546875 802.283203125 l 5,2,-1
 442.741210938 839.87109375 l 1029,3,-1
1431.97558594 458.536132812 m 29,0,-1
 1469.56347656 444.85546875 l 5,1,-1
 1443.92871094 432.90234375 l 5,2,-1
 1457.61035156 470.489257812 l 1029,3,-1
1430.24804688 395.314453125 m 1025
80.5458984375 1214.26660156 m 1
 1659.22949219 639.673828125 l 1
 1659.22851562 639.671875 l 1
 1681.89355469 631.234375 1681.89355469 631.234375 1692.71191406 608.864257812 c 0
 1703.640625 586.262695312 1703.640625 586.262695312 1695.08984375 562.770507812 c 0
 1686.54003906 539.278320312 1686.54003906 539.278320312 1664.109375 528.818359375 c 0
 1641.6796875 518.359375 1641.6796875 518.359375 1618.1875 526.91015625 c 2
 39.5029296875 1101.50390625 l 1
 39.5029296875 1101.50390625 l 2
 16.0107421875 1110.0546875 16.0107421875 1110.0546875 5.72265625 1132.95410156 c 0
 -4.5654296875 1155.85351562 -4.5654296875 1155.85351562 3.642578125 1178.40625 c 0
 11.8515625 1200.95898438 11.8515625 1200.95898438 34.4521484375 1211.88867188 c 0
 57.052734375 1222.81738281 57.052734375 1222.81738281 80.0751953125 1214.4375 c 0
 80.310546875 1214.3515625 80.310546875 1214.3515625 80.544921875 1214.26464844 c 1
 80.5458984375 1214.26660156 l 1
456.421875 877.458984375 m 1
 1471.29101562 508.077148438 l 1
 1471.29003906 508.075195312 l 1
 1493.95507812 499.638671875 1493.95507812 499.638671875 1504.77246094 477.267578125 c 0
 1515.70117188 454.666992188 1515.70117188 454.666992188 1507.15136719 431.174804688 c 0
 1498.60058594 407.682617188 1498.60058594 407.682617188 1476.16992188 397.223632812 c 0
 1453.74023438 386.763671875 1453.74023438 386.763671875 1430.24804688 395.314453125 c 2
 415.379882812 764.6953125 l 1
 415.379882812 764.6953125 l 2
 391.887695312 773.24609375 391.887695312 773.24609375 381.598632812 796.146484375 c 0
 371.310546875 819.045898438 371.310546875 819.045898438 379.51953125 841.598632812 c 0
 387.727539062 864.151367188 387.727539062 864.151367188 410.329101562 875.080078125 c 0
 432.9296875 886.009765625 432.9296875 886.009765625 455.952148438 877.629882812 c 0
 456.1875 877.543945312 456.1875 877.543945312 456.420898438 877.45703125 c 1
 456.421875 877.458984375 l 1
EndSplineSet
Validated: 524291
EndChar

StartChar: period
Encoding: 46 46 18
Width: 1535
VWidth: 0
GlyphClass: 2
Flags: HW
LayerCount: 3
Fore
SplineSet
415.463867188 -417.541015625 m 29,0,-1
 387.178710938 -389.256835938 l 5,1,-1
 415.463867188 -389.256835938 l 5,2,-1
 387.178710938 -417.541015625 l 1029,3,-1
75.3447265625 -77.4228515625 m 29,0,-1
 47.060546875 -49.138671875 l 5,1,-1
 75.3447265625 -49.138671875 l 5,2,-1
 47.060546875 -77.4228515625 l 1029,3,-1
103.62890625 -20.853515625 m 1025
413.685546875 -119.526367188 m 29,0,-1
 385.401367188 -147.810546875 l 5,1,-1
 385.401367188 -119.526367188 l 5,2,-1
 413.685546875 -147.810546875 l 1029,3,-1
73.56640625 -459.64453125 m 29,0,-1
 45.2822265625 -487.928710938 l 5,1,-1
 45.2822265625 -459.64453125 l 5,2,-1
 73.56640625 -487.928710938 l 1029,3,-1
16.998046875 -431.360351562 m 1025
358.895507812 -445.82421875 m 1
 358.89453125 -445.825195312 l 1
 265.567382812 -352.498046875 l 1
 102.2109375 -515.854492188 l 2
 102.208007812 -515.857421875 102.208007812 -515.857421875 102.205078125 -515.860351562 c 0
 102.202148438 -515.86328125 102.202148438 -515.86328125 102.19921875 -515.866210938 c 2
 101.8515625 -516.213867188 l 1
 101.850585938 -516.212890625 l 1
 84.6240234375 -533.1875 84.6240234375 -533.1875 59.7783203125 -533.537109375 c 0
 34.67578125 -533.890625 34.67578125 -533.890625 16.998046875 -516.213867188 c 0
 -0.6796875 -498.536132812 -0.6796875 -498.536132812 0.02734375 -473.787109375 c 0
 -0.6796875 -449.038085938 -0.6796875 -449.038085938 16.998046875 -431.360351562 c 2
 180.713867188 -267.64453125 l 1
 19.1298828125 -106.060546875 l 1
 19.1298828125 -106.060546875 l 1
 19.1298828125 -106.060546875 l 1
 18.7763671875 -105.70703125 l 1
 18.77734375 -105.706054688 l 1
 1.8017578125 -88.4794921875 1.8017578125 -88.4794921875 1.4521484375 -63.6337890625 c 0
 1.0986328125 -38.53125 1.0986328125 -38.53125 18.7763671875 -20.853515625 c 0
 36.4541015625 -3.17578125 36.4541015625 -3.17578125 61.2021484375 -3.17578125 c 0
 85.951171875 -3.17578125 85.951171875 -3.17578125 103.62890625 -20.853515625 c 2
 265.567382812 -182.791992188 l 1
 357.1171875 -91.2421875 l 1
 357.1171875 -91.2421875 l 2
 374.793945312 -73.564453125 374.793945312 -73.564453125 399.896484375 -73.91796875 c 0
 424.999023438 -74.271484375 424.999023438 -74.271484375 441.969726562 -91.2421875 c 0
 458.940429688 -108.212890625 458.940429688 -108.212890625 459.293945312 -133.315429688 c 0
 459.647460938 -158.416992188 459.647460938 -158.416992188 442.323242188 -175.741210938 c 0
 442.146484375 -175.91796875 442.146484375 -175.91796875 441.96875 -176.09375 c 1
 441.969726562 -176.094726562 l 1
 350.419921875 -267.64453125 l 1
 443.748046875 -360.97265625 l 2
 461.42578125 -378.650390625 461.42578125 -378.650390625 461.072265625 -403.752929688 c 0
 460.71875 -428.854492188 460.71875 -428.854492188 443.748046875 -445.825195312 c 0
 426.77734375 -462.795898438 426.77734375 -462.795898438 401.674804688 -463.149414062 c 0
 376.572265625 -463.502929688 376.572265625 -463.502929688 359.248046875 -446.178710938 c 0
 359.071289062 -446.001953125 359.071289062 -446.001953125 358.895507812 -445.82421875 c 1
EndSplineSet
Validated: 524291
Layer: 2
SplineSet
1352.765625 196 m 5
 1534.765625 197 l 5
 1366.765625 6 l 5
 1524.765625 -186 l 5
 1342.765625 -188 l 5
 1292.765625 -78 l 5
 1221.765625 -192 l 5
 1060.765625 -188 l 5
 1221.765625 -1 l 5
 1061.765625 197 l 5
 1238.765625 197 l 5
 1298.765625 93 l 5
 1352.765625 196 l 5
EndSplineSet
EndChar

StartChar: zero
Encoding: 48 48 20
Width: 967
GlyphClass: 2
Flags: HW
LayerCount: 3
Fore
SplineSet
483 131 m 0
 764 131 764 131 764 745 c 0
 764 975 764 975 727 1116 c 1
 338 187 l 1
 399 131 399 131 483 131 c 0
483 1360 m 0
 203 1360 203 1360 203 745 c 0
 203 471 203 471 257 321 c 1
 647 1285 l 1
 583 1360 583 1360 483 1360 c 0
845 167 m 0
 722 -29 722 -29 482.5 -29 c 0
 243 -29 243 -29 121.5 167.5 c 0
 0 364 0 364 0 745.5 c 0
 0 1127 0 1127 121.5 1323.5 c 0
 243 1520 243 1520 482.5 1520 c 0
 722 1520 722 1520 845 1324 c 0
 967 1127 967 1127 967 745.5 c 0
 967 364 967 364 845 167 c 0
EndSplineSet
Validated: 1
EndChar

StartChar: one
Encoding: 49 49 21
Width: 848
GlyphClass: 2
Flags: HW
LayerCount: 3
Fore
SplineSet
24 170 m 1
 338 170 l 1
 338 1311 l 1
 0 1235 l 1
 0 1419 l 1
 336 1493 l 1
 538 1493 l 1
 538 170 l 1
 848 170 l 1
 848 0 l 1
 24 0 l 1
 24 170 l 1
EndSplineSet
Validated: 1
EndChar

StartChar: two
Encoding: 50 50 22
Width: 907
GlyphClass: 2
Flags: HW
LayerCount: 3
Fore
SplineSet
12 1421 m 1
 218.25 1520 218.25 1520 424.125 1520 c 0
 630 1520 630 1520 764 1404 c 0
 897 1287 897 1287 897 1098 c 0
 897 911.63671875 897 911.63671875 708 694 c 0
 624.435546875 596.028320312 624.435546875 596.028320312 221 170 c 1
 907 170 l 1
 907 0 l 1
 0 0 l 1
 0 170 l 1
 377.509765625 563.57421875 377.509765625 563.57421875 498.754882812 707.787109375 c 0
 620 852 620 852 655 929 c 0
 690 1006 690 1006 690 1083 c 0
 690 1209 690 1209 616.5 1279.5 c 0
 543 1350 543 1350 415 1350 c 0
 234.328125 1350 234.328125 1350 12 1217 c 1
 12 1421 l 1
EndSplineSet
Validated: 524289
EndChar

StartChar: three
Encoding: 51 51 23
Width: 942
GlyphClass: 2
Flags: HW
LayerCount: 3
Fore
SplineSet
907 1120 m 0
 907 870.060546875 907 870.060546875 639 799 c 1
 786 760 786 760 864 660.5 c 0
 942 561 942 561 942 412 c 0
 942 206 942 206 803.5 88.5 c 0
 665 -29 665 -29 438.213867188 -29 c 0
 211.428710938 -29 211.428710938 -29 0 45 c 1
 0 246 l 1
 202.36328125 141 202.36328125 141 383.681640625 141 c 0
 565 141 565 141 653.5 216 c 0
 742 291 742 291 742 427 c 0
 742 563 742 563 654 639 c 0
 566 715 566 715 412 715 c 2
 258 715 l 1
 258 881 l 1
 412 881 l 2
 552 881 552 881 629.5 942.5 c 0
 707 1004 707 1004 707 1116 c 0
 707 1228 707 1228 635 1289 c 0
 563 1350 563 1350 406 1350 c 0
 249 1350 249 1350 45 1270 c 1
 45 1456 l 1
 289 1520 289 1520 428 1520 c 0
 646 1520 646 1520 777 1411 c 0
 907 1301 907 1301 907 1120 c 0
EndSplineSet
Validated: 524289
EndChar

StartChar: four
Encoding: 52 52 24
Width: 1033
GlyphClass: 2
Flags: HW
LayerCount: 3
Fore
SplineSet
600 1493 m 1
 834 1493 l 1
 834 520 l 1
 1033 520 l 1
 1033 356 l 1
 834 356 l 1
 834 0 l 1
 633 0 l 1
 633 356 l 1
 0 356 l 1
 0 547 l 1
 600 1493 l 1
633 1309 m 1
 162 520 l 1
 633 520 l 1
 633 1309 l 1
EndSplineSet
Validated: 1
EndChar

StartChar: five
Encoding: 53 53 25
Width: 926
GlyphClass: 2
Flags: HW
LayerCount: 3
Fore
SplineSet
723 479 m 0
 723 640 723 640 629 728.5 c 0
 535 817 535 817 368.5 817 c 0
 202 817 202 817 64 743 c 1
 64 1493 l 1
 820 1493 l 1
 820 1323 l 1
 248 1323 l 1
 248 956 l 1
 328.599609375 987 328.599609375 987 422 987 c 0
 653 987 653 987 789.5 850.5 c 0
 926 714 926 714 926 478.5 c 0
 926 243 926 243 784 107 c 0
 642 -29 642 -29 401.516601562 -29 c 0
 161.032226562 -29 161.032226562 -29 0 35 c 1
 0 240 l 1
 184.139648438 141 184.139648438 141 363.0703125 141 c 0
 542 141 542 141 633 229 c 0
 723 318 723 318 723 479 c 0
EndSplineSet
Validated: 524289
EndChar

StartChar: six
Encoding: 54 54 26
Width: 967
GlyphClass: 2
Flags: HW
LayerCount: 3
Fore
SplineSet
768 479 m 0
 768 829 768 829 498 829 c 0
 368 829 368 829 294.5 735.5 c 0
 221 642 221 642 221 479 c 0
 221 316 221 316 294.5 222.5 c 0
 368 129 368 129 498 129 c 0
 768 129 768 129 768 479 c 0
567 1520 m 0
 711.103515625 1520 711.103515625 1520 858 1460 c 1
 858 1274 l 1
 729.885742188 1350 729.885742188 1350 576 1350 c 0
 384 1350 384 1350 285 1205.5 c 0
 186 1061 186 1061 186 780 c 1
 234 880 234 880 319 934 c 0
 405 987 405 987 514 987 c 0
 731 987 731 987 849 855 c 0
 967 723 967 723 967 480.5 c 0
 967 238 967 238 845.5 104.5 c 0
 724 -29 724 -29 502 -29 c 0
 242 -29 242 -29 121 157 c 0
 0 343 0 343 0 732.5 c 0
 0 1122 0 1122 145.5 1321 c 0
 291 1520 291 1520 567 1520 c 0
EndSplineSet
Validated: 524289
EndChar

StartChar: seven
Encoding: 55 55 27
Width: 940
GlyphClass: 2
Flags: HW
LayerCount: 3
Fore
SplineSet
0 1493 m 1
 940 1493 l 1
 940 1407 l 1
 406 0 l 1
 195 0 l 1
 715 1323 l 1
 0 1323 l 1
 0 1493 l 1
EndSplineSet
Validated: 1
EndChar

StartChar: eight
Encoding: 56 56 28
Width: 971
GlyphClass: 2
Flags: HW
LayerCount: 3
Fore
SplineSet
300 1300 m 0
 236 1235 236 1235 236 1114.5 c 0
 236 994 236 994 300.5 931 c 0
 365 868 365 868 486 868 c 0
 607 868 607 868 671 931 c 0
 735 994 735 994 735 1115 c 0
 735 1236 735 1236 671.5 1300 c 0
 608 1364 608 1364 487 1364 c 0
 366 1364 366 1364 300 1300 c 0
309 793 m 1
 181 826 181 826 107 916 c 0
 35 1006 35 1006 35 1133 c 0
 35 1311 35 1311 156 1416 c 0
 278 1520 278 1520 485.5 1520 c 0
 693 1520 693 1520 815 1416 c 0
 936 1311 936 1311 936 1133 c 0
 936 1005 936 1005 863.5 915.5 c 0
 791 826 791 826 662 793 c 1
 812 760 812 760 891.5 659.5 c 0
 971 559 971 559 971 401 c 0
 971 199 971 199 842 85 c 0
 713 -29 713 -29 485 -29 c 0
 257 -29 257 -29 128.5 84.5 c 0
 0 198 0 198 0 399 c 0
 0 560 0 560 79 660 c 0
 158 760 158 760 309 793 c 1
695 205 m 0
 768 281 768 281 768 418.5 c 0
 768 556 768 556 694 632.5 c 0
 620 709 620 709 484.5 709 c 0
 349 709 349 709 276 633.5 c 0
 203 558 203 558 203 420.5 c 0
 203 283 203 283 277.5 206 c 0
 352 129 352 129 486 129 c 0
 620 129 620 129 695 205 c 0
EndSplineSet
Validated: 1
EndChar

StartChar: nine
Encoding: 57 57 29
Width: 967
GlyphClass: 2
Flags: HW
LayerCount: 3
Fore
SplineSet
399 -29 m 0
 255.896484375 -29 255.896484375 -29 109 31 c 1
 109 217 l 1
 237.114257812 141 237.114257812 141 391 141 c 1
 584 141 584 141 682 285.5 c 0
 780 430 780 430 780 711 c 1
 733 610 733 610 648 557 c 0
 563 504 563 504 453 504 c 0
 236 504 236 504 118 637 c 0
 0 770 0 770 0 1012.5 c 0
 0 1255 0 1255 121 1388 c 0
 243 1520 243 1520 465 1520 c 0
 725 1520 725 1520 846 1333 c 0
 967 1146 967 1146 967 757.5 c 0
 967 369 967 369 821.5 170 c 0
 676 -29 676 -29 399 -29 c 0
199 1012 m 0
 199 662 199 662 469 662 c 0
 597 662 597 662 671 755.5 c 0
 745 849 745 849 745 1012 c 0
 745 1175 745 1175 671 1268.5 c 0
 597 1362 597 1362 469 1362 c 0
 199 1362 199 1362 199 1012 c 0
EndSplineSet
Validated: 524289
EndChar

StartChar: less
Encoding: 60 60 32
Width: 1649
GlyphClass: 2
Flags: HW
LayerCount: 3
Fore
SplineSet
42.5732421875 1072.58398438 m 29,0,-1
 77.2138671875 1052.58398438 l 5,1,-1
 49.8935546875 1045.26269531 l 5,2,-1
 69.8935546875 1079.90429688 l 1029,3,-1
1497.49511719 232.583984375 m 29,0,-1
 1532.13574219 212.583984375 l 5,1,-1
 1504.81542969 205.262695312 l 5,2,-1
 1524.81542969 239.904296875 l 1029,3,-1
1484.81542969 170.622070312 m 1025
1606.06152344 1870.71875 m 29,0,-1
 1571.42089844 1850.71875 l 5,1,-1
 1578.74121094 1878.0390625 l 5,2,-1
 1598.74121094 1843.3984375 l 1029,3,-1
151.139648438 1030.71875 m 29,0,-1
 116.499023438 1010.71875 l 5,1,-1
 123.819335938 1038.0390625 l 5,2,-1
 143.819335938 1003.3984375 l 1029,3,-1
103.819335938 1072.6796875 m 1025
89.892578125 1114.54296875 m 1
 89.8935546875 1114.54492188 l 1
 133.112304688 1089.59179688 l 1
 1558.74121094 1912.6796875 l 1
 1558.74121094 1912.6796875 l 2
 1580.39160156 1925.1796875 1580.39160156 1925.1796875 1604.546875 1918.34179688 c 0
 1628.703125 1911.50292969 1628.703125 1911.50292969 1640.703125 1890.71875 c 0
 1652.703125 1869.93359375 1652.703125 1869.93359375 1646.546875 1845.59570312 c 0
 1640.39160156 1821.25683594 1640.39160156 1821.25683594 1619.17382812 1809.00683594 c 0
 1618.95703125 1808.88183594 1618.95703125 1808.88183594 1618.74023438 1808.75878906 c 1
 1618.74121094 1808.75683594 l 1
 253.112304688 1020.31054688 l 1
 1544.2421875 274.875976562 l 2
 1544.3125 274.8359375 1544.3125 274.8359375 1544.3828125 274.794921875 c 0
 1544.453125 274.75390625 1544.453125 274.75390625 1544.52441406 274.712890625 c 2
 1544.81542969 274.544921875 l 1
 1544.81445312 274.543945312 l 1
 1565.66894531 262.297851562 1565.66894531 262.297851562 1572.43847656 238.389648438 c 0
 1579.27734375 214.234375 1579.27734375 214.234375 1566.77734375 192.583984375 c 0
 1554.27734375 170.932617188 1554.27734375 170.932617188 1530.37109375 164.52734375 c 0
 1506.46582031 158.122070312 1506.46582031 158.122070312 1484.81542969 170.622070312 c 2
 29.8935546875 1010.62207031 l 1
 29.8935546875 1010.62207031 l 2
 8.2431640625 1023.12207031 8.2431640625 1023.12207031 2.0869140625 1047.45996094 c 0
 -4.068359375 1071.79882812 -4.068359375 1071.79882812 7.931640625 1092.58398438 c 0
 19.931640625 1113.36816406 19.931640625 1113.36816406 44.0869140625 1120.20703125 c 0
 68.2431640625 1127.04492188 68.2431640625 1127.04492188 89.4599609375 1114.79492188 c 0
 89.6767578125 1114.66992188 89.6767578125 1114.66992188 89.892578125 1114.54296875 c 1
EndSplineSet
Validated: 524291
EndChar

StartChar: equal
Encoding: 61 61 33
Width: 1057
GlyphClass: 2
Flags: HW
LayerCount: 3
Fore
SplineSet
0 524 m 1
 1057 524 l 1
 1057 352 l 1
 618 352 l 1
 618 183 l 1
 450 183 l 1
 450 352 l 1
 0 352 l 1
 0 524 l 1
462 1098 m 1
 630 1098 l 1
 630 930 l 1
 1057 930 l 1
 1057 760 l 1
 0 760 l 1
 0 930 l 1
 462 930 l 1
 462 1098 l 1
EndSplineSet
Validated: 1
EndChar

StartChar: question
Encoding: 63 63 35
Width: 717
VWidth: 0
GlyphClass: 2
Flags: HW
LayerCount: 3
Fore
SplineSet
0 1418.79980469 m 1
 199.786132812 1535.13574219 199.786132812 1535.13574219 328.7890625 1535.13574219 c 0,0,0
 351.28125 1535.13574219 351.28125 1535.13574219 371.62109375 1531.59960938 c 0
 669.400390625 1481 669.400390625 1481 712.80078125 1194.59960938 c 0
 716.5078125 1169.89257812 716.5078125 1169.89257812 716.5078125 1145.27929688 c 0,0,0
 716.5078125 953.569335938 716.5078125 953.569335938 491.600585938 767.599609375 c 0
 423.400390625 711 423.400390625 711 398 625.200195312 c 0
 392.400390625 606 392.400390625 606 391.600585938 392.400390625 c 1
 272 392.400390625 l 1
 272 622.799804688 l 2
 272.400390625 716 272.400390625 716 416.80078125 852.400390625 c 1
 588.012695312 996.193359375 588.012695312 996.193359375 588.012695312 1145.44726562 c 0,0,0
 588.012695312 1163.88183594 588.012695312 1163.88183594 585.400390625 1182.40039062 c 0
 556.400390625 1384 556.400390625 1384 363.900390625 1411 c 0
 349.831054688 1412.88769531 349.831054688 1412.88769531 334.83203125 1412.88769531 c 0,0,0
 225.38671875 1412.88769531 225.38671875 1412.88769531 66.400390625 1312.40039062 c 1
 0 1418.79980469 l 1
EndSplineSet
Validated: 524289
EndChar

StartChar: at
Encoding: 64 64 36
Width: 984
GlyphClass: 2
Flags: HW
LayerCount: 3
Fore
SplineSet
871.619140625 -171.83984375 m 1
 767.421875 -213.741210938 767.421875 -213.741210938 665.625976562 -213.741210938 c 0,0,0
 664.313476562 -213.741210938 664.313476562 -213.741210938 663 -213.734375 c 0
 662.594726562 -213.734375 662.594726562 -213.734375 662.189453125 -213.734375 c 0,0,0
 357.760742188 -213.734375 357.760742188 -213.734375 178.21484375 -14.51953125 c 0
 0 185 0 185 0 520.5 c 0
 0 856 0 856 160 1054 c 0
 319.78515625 1251.734375 319.78515625 1251.734375 590.454101562 1251.734375 c 0,0,0
 590.817382812 1251.734375 590.817382812 1251.734375 591.180664062 1251.734375 c 0
 591.598632812 1251.73535156 591.598632812 1251.73535156 592.016601562 1251.73535156 c 0,0,0
 771.24609375 1251.73535156 771.24609375 1251.73535156 877 1138 c 0
 983 1024 983 1024 983.625 832.78515625 c 0
 983.669921875 819.1796875 983.669921875 819.1796875 983.669921875 805.98828125 c 0,0,0
 983.669921875 549.162109375 983.669921875 549.162109375 966.525390625 448.890625 c 1
 931.345703125 305.247070312 931.345703125 305.247070312 842.977539062 234.28515625 c 0
 805 204 805 204 761.5 180.5 c 0
 718.611328125 157.330078125 718.611328125 157.330078125 648.752929688 157.330078125 c 0,0,0
 647.756835938 157.330078125 647.756835938 157.330078125 646.755859375 157.334960938 c 0
 646.311523438 157.333984375 646.311523438 157.333984375 645.8671875 157.333984375 c 0,0,0
 508.709960938 157.333984375 508.709960938 157.333984375 419 260.5 c 0
 329 364 329 364 329 525 c 0
 329 686 329 686 418.5 789 c 0
 508 892 508 892 646.755859375 892.634765625 c 0
 647.455078125 892.637695312 647.455078125 892.637695312 648.153320312 892.637695312 c 0,0,0
 725.598632812 892.637695312 725.598632812 892.637695312 792 852.5 c 0
 859 812 859 812 873 789 c 1
 873.095703125 793.9609375 873.095703125 793.9609375 873.095703125 798.870117188 c 0,0,0
 873.095703125 947.36328125 873.095703125 947.36328125 785.265625 1049.09960938 c 0
 716 1130 716 1130 586.049804688 1130.32519531 c 0
 375 1130 375 1130 251 966 c 0
 127 802 127 802 127 522 c 0
 127 242 127 242 269 74 c 0
 408.892578125 -91.5068359375 408.892578125 -91.5068359375 636.459960938 -91.5068359375 c 0,0,0
 639.887695312 -91.5068359375 639.887695312 -91.5068359375 643.334960938 -91.4697265625 c 0
 740.202148438 -90.53515625 740.202148438 -90.53515625 830.580078125 -56.4150390625 c 1
 871.619140625 -171.83984375 l 1
809.205078125 347.14453125 m 0
 863.924804688 412.98046875 863.924804688 412.98046875 863.924804688 524.557617188 c 0
 863.924804688 636.134765625 863.924804688 636.134765625 809.205078125 701.969726562 c 0
 754.484375 767.805664062 754.484375 767.805664062 662.572265625 767.805664062 c 0
 570.66015625 767.805664062 570.66015625 767.805664062 515.939453125 702.397460938 c 0
 461.219726562 636.990234375 461.219726562 636.990234375 461.219726562 524.984375 c 0
 461.219726562 412.98046875 461.219726562 412.98046875 515.939453125 347.14453125 c 0
 570.66015625 281.309570312 570.66015625 281.309570312 662.145507812 281.309570312 c 0
 753.630859375 281.309570312 753.630859375 281.309570312 809.205078125 347.14453125 c 0
EndSplineSet
Validated: 524289
EndChar

StartChar: A
Encoding: 65 65 37
Width: 626
VWidth: 0
GlyphClass: 2
Flags: HW
LayerCount: 3
Fore
SplineSet
522.444335938 667.692382812 m 25,0,-1
 502.444335938 633.051757812 l 25,1,-1
 495.124023438 660.372070312 l 25,2,-1
 529.765625 640.372070312 l 1049,3,-1
182.444335938 78.794921875 m 25,0,-1
 162.444335938 44.154296875 l 25,1,-1
 155.124023438 71.474609375 l 25,2,-1
 189.765625 51.474609375 l 1049,3,-1
120.483398438 91.474609375 m 1025
72.9423828125 2067.16210938 m 25,0,-1
 52.9423828125 2032.52148438 l 25,1,-1
 45.6220703125 2059.84179688 l 25,2,-1
 80.2626953125 2039.84179688 l 1049,3,-1
552.68359375 2077.16210938 m 25,0,-1
 572.68359375 2042.52148438 l 25,1,-1
 545.36328125 2049.84179688 l 25,2,-1
 580.004882812 2069.84179688 l 1049,3,-1
319.813476562 2412 m 25,0,-1
 319.813476562 2372 l 25,1,-1
 299.813476562 2392 l 25,2,-1
 339.813476562 2392 l 1049,3,-1
542.877929688 702.083007812 m 0
 575.444335938 683.280273438 575.444335938 683.280273438 575.444335938 655.604492188 c 0,0,0
 575.444335938 639.4921875 575.444335938 639.4921875 564.40625 620.372070312 c 2
 224.40625 31.474609375 l 2
 205.38671875 -1.466796875 205.38671875 -1.466796875 177.541015625 -1.466796875 c 0,0,0
 161.463867188 -1.466796875 161.463867188 -1.466796875 142.444335938 9.513671875 c 0
 109.501953125 28.533203125 109.501953125 28.533203125 109.501953125 56.37890625 c 0,0,0
 109.501953125 72.455078125 109.501953125 72.455078125 120.483398438 91.474609375 c 2
 460.483398438 680.372070312 l 2
 472.483398438 701.15625 472.483398438 701.15625 495.33984375 708.744140625 c 0
 518.196289062 716.333007812 518.196289062 716.333007812 542.877929688 702.083007812 c 0
12.173828125 2081.83203125 m 2
 15.125 2086.57714844 15.125 2086.57714844 18.6796875 2090.59082031 c 2
 267.813476562 2426 l 1
 269.68359375 2426 l 1
 272.379882812 2430.13769531 272.379882812 2430.13769531 275.813476562 2434 c 0
 291.813476562 2452 291.813476562 2452 320.313476562 2452 c 0
 348.813476562 2452 348.813476562 2452 364.313476562 2435.5 c 0
 368.427734375 2431.12011719 368.427734375 2431.12011719 371.450195312 2426 c 1
 371.813476562 2426 l 1
 604.021484375 2104.921875 l 2
 608.928710938 2099.32519531 608.928710938 2099.32519531 613.377929688 2091.984375 c 2
 614.813476562 2090 l 1
 614.618164062 2089.88769531 l 1
 614.631835938 2089.86523438 614.631835938 2089.86523438 614.645507812 2089.84179688 c 0
 625.625976562 2070.82226562 625.625976562 2070.82226562 625.625976562 2054.74511719 c 0,0,0
 625.625976562 2026.89941406 625.625976562 2026.89941406 592.68359375 2007.87988281 c 0
 573.6640625 1996.89941406 573.6640625 1996.89941406 557.587890625 1996.89941406 c 0,0,0
 529.741210938 1996.89941406 529.741210938 1996.89941406 510.72265625 2029.84179688 c 0
 510.313476562 2030.54980469 510.313476562 2030.54980469 509.923828125 2031.26074219 c 2
 319.813476562 2301 l 1
 115.635742188 2021.12792969 l 2
 115.276367188 2020.48632812 115.276367188 2020.48632812 114.904296875 2019.84179688 c 0
 95.8837890625 1986.89941406 95.8837890625 1986.89941406 68.0380859375 1986.89941406 c 0,0,0
 51.9609375 1986.89941406 51.9609375 1986.89941406 32.9423828125 1997.87988281 c 0
 0 2016.89941406 0 2016.89941406 0 2044.74511719 c 0,0,0
 0 2060.82226562 -0 2060.82226562 10.9814453125 2079.84179688 c 0
 10.994140625 2079.86523438 10.994140625 2079.86523438 11.0078125 2079.88769531 c 1
 10.8134765625 2080 l 1
 12.173828125 2081.83203125 l 2
EndSplineSet
Validated: 524291
EndChar

StartChar: E
Encoding: 69 69 41
Width: 629
VWidth: 0
GlyphClass: 2
Flags: HW
LayerCount: 3
Fore
SplineSet
559.127929688 104.388671875 m 29,0,-1
 519.280273438 100.90234375 l 5,1,-1
 537.4609375 122.569335938 l 5,2,-1
 540.947265625 82.7216796875 l 1029,3,-1
79.9580078125 62.466796875 m 29,0,-1
 40.1103515625 58.98046875 l 5,1,-1
 58.291015625 80.6474609375 l 5,2,-1
 61.77734375 40.7998046875 l 1029,3,-1
54.8046875 120.495117188 m 1025
78.970703125 2069.16210938 m 29,0,-1
 58.970703125 2034.52148438 l 5,1,-1
 51.650390625 2061.84179688 l 5,2,-1
 86.291015625 2041.84179688 l 1029,3,-1
558.711914062 2079.16210938 m 29,0,-1
 578.711914062 2044.52148438 l 5,1,-1
 551.391601562 2051.84179688 l 5,2,-1
 586.033203125 2071.84179688 l 1029,3,-1
325.841796875 2414 m 29,0,-1
 325.841796875 2374 l 5,1,-1
 305.841796875 2394 l 5,2,-1
 345.841796875 2394 l 1029,3,-1
544.43359375 42.875 m 1
 544.43359375 42.8740234375 l 1
 66.04296875 1.0205078125 l 2
 65.90234375 1.0078125 65.90234375 1.0078125 65.76171875 0.9951171875 c 0
 65.619140625 0.982421875 65.619140625 0.982421875 65.4765625 0.970703125 c 2
 65.263671875 0.9521484375 l 1
 65.263671875 0.953125 l 1
 41.15625 -0.9775390625 41.15625 -0.9775390625 21.8984375 14.724609375 c 0
 2.44140625 30.58984375 2.44140625 30.58984375 0.2626953125 55.494140625 c 0
 -1.916015625 80.3994140625 -1.916015625 80.3994140625 13.9921875 99.357421875 c 0
 29.900390625 118.31640625 29.900390625 118.31640625 54.8046875 120.495117188 c 2
 533.974609375 162.416992188 l 1
 533.974609375 162.416992188 l 2
 558.879882812 164.595703125 558.879882812 164.595703125 577.881835938 148.189453125 c 0
 596.883789062 131.783203125 596.883789062 131.783203125 598.975585938 107.875 c 0
 601.067382812 83.9658203125 601.067382812 83.9658203125 585.203125 64.509765625 c 0
 569.337890625 45.052734375 569.337890625 45.052734375 544.931640625 42.9169921875 c 0
 544.681640625 42.8955078125 544.681640625 42.8955078125 544.43359375 42.875 c 1
18.212890625 2083.84570312 m 2
 20.9892578125 2088.29394531 20.9892578125 2088.29394531 24.30078125 2092.04199219 c 2
 273.841796875 2428 l 1
 276.475585938 2428 l 1
 279.676757812 2432.45117188 279.676757812 2432.45117188 283.841796875 2436.5 c 0
 301.841796875 2454 301.841796875 2454 325.841796875 2454 c 0
 349.841796875 2454 349.841796875 2454 367.841796875 2436.5 c 0
 372.01953125 2432.43847656 372.01953125 2432.43847656 375.2265625 2428 c 1
 377.841796875 2428 l 1
 614.229492188 2101.14257812 l 2
 617.008789062 2097.84570312 617.008789062 2097.84570312 619.373046875 2094.03125 c 2
 620.841796875 2092 l 1
 620.645507812 2091.88671875 l 1
 632.6171875 2070.83496094 632.6171875 2070.83496094 626.518554688 2046.71875 c 0
 620.36328125 2022.37988281 620.36328125 2022.37988281 598.711914062 2009.87988281 c 0
 577.061523438 1997.37988281 577.061523438 1997.37988281 553.15625 2003.78515625 c 0
 529.250976562 2010.19042969 529.250976562 2010.19042969 516.750976562 2031.84179688 c 0
 516.342773438 2032.54785156 516.342773438 2032.54785156 515.956054688 2033.25585938 c 2
 325.841796875 2303 l 1
 121.674804688 2023.14160156 l 2
 121.432617188 2022.70703125 121.432617188 2022.70703125 121.182617188 2022.27441406 c 0
 108.932617188 2001.05664062 108.932617188 2001.05664062 84.77734375 1994.21875 c 0
 60.62109375 1987.37988281 60.62109375 1987.37988281 38.970703125 1999.87988281 c 0
 17.3203125 2012.37988281 17.3203125 2012.37988281 10.9150390625 2036.28515625 c 0
 4.509765625 2060.19042969 4.509765625 2060.19042969 17.009765625 2081.84179688 c 0
 17.0224609375 2081.86523438 17.0224609375 2081.86523438 17.0361328125 2081.88769531 c 1
 16.841796875 2082 l 1
 18.212890625 2083.84570312 l 2
EndSplineSet
Validated: 524291
EndChar

StartChar: U
Encoding: 85 85 57
Width: 731
VWidth: 0
GlyphClass: 2
Flags: HW
LayerCount: 3
Fore
SplineSet
671.096679688 800 m 29,0,-1
 671.096679688 760 l 5,1,-1
 651.096679688 780 l 5,2,-1
 691.096679688 780 l 1029,3,-1
242.096679688 80 m 29,0,-1
 242.096679688 40 l 5,1,-1
 222.096679688 60 l 5,2,-1
 262.096679688 60 l 1029,3,-1
70.2255859375 2069.16210938 m 29,0,-1
 50.2255859375 2034.52148438 l 5,1,-1
 42.9052734375 2061.84179688 l 5,2,-1
 77.5458984375 2041.84179688 l 1029,3,-1
549.966796875 2079.16210938 m 29,0,-1
 569.966796875 2044.52148438 l 5,1,-1
 542.646484375 2051.84179688 l 5,2,-1
 577.288085938 2071.84179688 l 1029,3,-1
317.096679688 2414 m 29,0,-1
 317.096679688 2374 l 5,1,-1
 297.096679688 2394 l 5,2,-1
 337.096679688 2394 l 1029,3,-1
399.096679688 -44 m 0
 610.096679688 -44 610.096679688 -44 610.096679688 780 c 1
 611.096679688 780 l 1
 611.096679688 805 611.096679688 805 629.096679688 822.5 c 0
 647.096679688 840 647.096679688 840 671.096679688 840 c 0
 695.096679688 840 695.096679688 840 713.096679688 822.5 c 0
 731.096679688 805 731.096679688 805 731.096679688 780.5 c 0
 731.096679688 780.25 731.096679688 780.25 731.094726562 780 c 1
 731.096679688 780 l 1
 730.096679688 -174 730.096679688 -174 396.052734375 -174 c 0
 182.096679688 -174 182.096679688 -174 182.096679688 48 c 0
 182.096679688 54 182.096679688 54 182.096679688 60 c 0
 182.096679688 85 182.096679688 85 200.096679688 102.5 c 0
 218.096679688 120 218.096679688 120 242.096679688 120 c 0
 266.096679688 120 266.096679688 120 284.096679688 102.5 c 0
 302.096679688 85 302.096679688 85 302.096679688 60.5 c 0
 302.096679688 60.25 302.096679688 60.25 302.094726562 60 c 1
 302.096679688 60 l 1
 302.096679688 49 l 2
 302.096679688 -44 302.096679688 -44 399.096679688 -44 c 0
9.4677734375 2083.84570312 m 2
 12.244140625 2088.29394531 12.244140625 2088.29394531 15.5556640625 2092.04199219 c 2
 265.096679688 2428 l 1
 267.73046875 2428 l 1
 270.931640625 2432.45117188 270.931640625 2432.45117188 275.096679688 2436.5 c 0
 293.096679688 2454 293.096679688 2454 317.096679688 2454 c 0
 341.096679688 2454 341.096679688 2454 359.096679688 2436.5 c 0
 363.274414062 2432.43847656 363.274414062 2432.43847656 366.482421875 2428 c 1
 369.096679688 2428 l 1
 605.485351562 2101.14257812 l 2
 608.263671875 2097.84570312 608.263671875 2097.84570312 610.627929688 2094.03125 c 2
 612.096679688 2092 l 1
 611.901367188 2091.88671875 l 1
 623.873046875 2070.83496094 623.873046875 2070.83496094 617.7734375 2046.71875 c 0
 611.618164062 2022.37988281 611.618164062 2022.37988281 589.966796875 2009.87988281 c 0
 568.31640625 1997.37988281 568.31640625 1997.37988281 544.411132812 2003.78515625 c 0
 520.505859375 2010.19042969 520.505859375 2010.19042969 508.005859375 2031.84179688 c 0
 507.598632812 2032.54785156 507.598632812 2032.54785156 507.211914062 2033.25585938 c 2
 317.096679688 2303 l 1
 112.9296875 2023.14160156 l 2
 112.6875 2022.70703125 112.6875 2022.70703125 112.4375 2022.27441406 c 0
 100.1875 2001.05664062 100.1875 2001.05664062 76.0322265625 1994.21875 c 0
 51.8759765625 1987.37988281 51.8759765625 1987.37988281 30.2255859375 1999.87988281 c 0
 8.5751953125 2012.37988281 8.5751953125 2012.37988281 2.169921875 2036.28515625 c 0
 -4.2353515625 2060.19042969 -4.2353515625 2060.19042969 8.2646484375 2081.84179688 c 0
 8.2783203125 2081.86523438 8.2783203125 2081.86523438 8.291015625 2081.88769531 c 1
 8.0966796875 2082 l 1
 9.4677734375 2083.84570312 l 2
EndSplineSet
Validated: 524291
EndChar

StartChar: bracketleft
Encoding: 91 91 63
Width: 425
GlyphClass: 2
Flags: HW
LayerCount: 3
Fore
SplineSet
0 3250 m 1
 425 3250 l 1
 425 3130 l 1
 120 3130 l 1
 120 -880 l 1
 424 -880 l 1
 424 -1000 l 1
 0 -1000 l 1
 0 3250 l 1
EndSplineSet
Validated: 1
EndChar

StartChar: backslash
Encoding: 92 92 64
Width: 2229
GlyphClass: 2
Flags: HW
LayerCount: 3
Fore
SplineSet
103.922851562 2772.28417969 m 1
 2228.92285156 -908.32421875 l 1
 2125 -968.32421875 l 1
 0 2712.28417969 l 1
 103.922851562 2772.28417969 l 1
EndSplineSet
Validated: 524289
EndChar

StartChar: underscore
Encoding: 95 95 67
Width: 1233
GlyphClass: 2
Flags: HW
LayerCount: 3
Fore
SplineSet
1233 120 m 1
 1233 0 l 1
 0 0 l 1
 0 120 l 1
 1233 120 l 1
EndSplineSet
Validated: 1
EndChar

StartChar: grave
Encoding: 96 96 68
Width: 544
GlyphClass: 2
Flags: HW
LayerCount: 3
Fore
SplineSet
78 2101 m 1
 544 1691 l 1
 456 1602 l 1
 0 2003 l 1
 78 2101 l 1
EndSplineSet
Validated: 1
EndChar

StartChar: a
Encoding: 97 97 69
Width: 466
VWidth: 0
GlyphClass: 2
Flags: HW
LayerCount: 3
Fore
SplineSet
412.94140625 668.692382812 m 25,0,-1
 392.94140625 634.051757812 l 25,1,-1
 385.62109375 661.372070312 l 25,2,-1
 420.262695312 641.372070312 l 1049,3,-1
72.94140625 79.794921875 m 25,0,-1
 52.94140625 45.154296875 l 25,1,-1
 45.62109375 72.474609375 l 25,2,-1
 80.2626953125 52.474609375 l 1049,3,-1
10.98046875 92.474609375 m 1025
433.375 703.083007812 m 0
 465.942382812 684.280273438 465.942382812 684.280273438 465.942382812 656.604492188 c 0,0,0
 465.942382812 640.4921875 465.942382812 640.4921875 454.903320312 621.372070312 c 2
 114.903320312 32.474609375 l 2
 95.884765625 -0.466796875 95.884765625 -0.466796875 68.0380859375 -0.466796875 c 0,0,0
 51.9609375 -0.466796875 51.9609375 -0.466796875 32.94140625 10.513671875 c 0
 0 29.533203125 0 29.533203125 0 57.37890625 c 0,0,0
 0 73.455078125 0 73.455078125 10.98046875 92.474609375 c 2
 350.98046875 681.372070312 l 2
 362.98046875 702.15625 362.98046875 702.15625 385.836914062 709.744140625 c 0
 408.693359375 717.333007812 408.693359375 717.333007812 433.375 703.083007812 c 0
EndSplineSet
Validated: 524291
EndChar

StartChar: b
Encoding: 98 98 70
Width: 448
VWidth: 0
GlyphClass: 2
Flags: HW
LayerCount: 3
Fore
SplineSet
60 881 m 25,0,-1
 60 841 l 25,1,-1
 40 861 l 25,2,-1
 80 861 l 1049,3,-1
60 876 m 25,0,-1
 60 836 l 25,1,-1
 40 856 l 25,2,-1
 80 856 l 1049,3,-1
60 1760 m 29,0,-1
 60 1720 l 5,1,-1
 40 1740 l 5,2,-1
 80 1740 l 1029,3,-1
60 80 m 29,0,-1
 60 40 l 5,1,-1
 40 60 l 5,2,-1
 80 60 l 1029,3,-1
0 60 m 1025
119.998172893 1740 m 1
 120 1740 l 1
 120 1488.58061274 l 1
 165.341040732 1510.01384083 165.341040732 1510.01384083 227.813831252 1510.01384083 c 0,0,0
 229.401384083 1510.01384083 229.401384083 1510.01384083 231 1510 c 0
 336 1509 336 1509 398 1421 c 0
 448.260869565 1348.56521739 448.260869565 1348.56521739 448.260869565 1273.94517958 c 0,0,0
 448.260869565 1197.13043478 448.260869565 1197.13043478 395 1118 c 0
 354.204550845 1056.80682627 354.204550845 1056.80682627 120 837.877351069 c 1
 120 60.5 l 1
 120 60 l 1
 119.998172893 60 l 1
 119.8211862 35.8160772344 119.8211862 35.8160772344 102.5 18 c 0
 85 0 85 0 60 0 c 0
 35 0 35 0 17.5 17.5 c 0
 0 35 0 35 0 60 c 2
 0 855 l 1
 0 856 l 1
 0 861 l 1
 0 1225 l 1
 0 1740 l 2
 0 1765 0 1765 18 1782.5 c 0
 36 1800 36 1800 60 1800 c 0
 84 1800 84 1800 102 1782.5 c 0
 120 1765 120 1765 120 1740.5 c 0
 120 1740.24966068 120 1740.24966068 119.998172893 1740 c 1
120 1222 m 2
 120 999 l 1
 167 1047 167 1047 214 1095 c 0
 329.074380165 1210.07438017 329.074380165 1210.07438017 329.074380165 1269.98914009 c 0,0,0
 329.074380165 1383.59049122 329.074380165 1383.59049122 234 1390 c 0
 229.615384615 1390.26923077 229.615384615 1390.26923077 225.399408284 1390.26923077 c 0,0,0
 120 1390.26923077 120 1390.26923077 120 1222 c 2
EndSplineSet
Validated: 524291
EndChar

StartChar: c
Encoding: 99 99 71
Width: 770
GlyphClass: 2
Flags: HW
LayerCount: 3
Fore
SplineSet
640 60 m 0
 698 6 698 6 734 -75.5 c 0
 770 -157 770 -157 770 -255 c 0
 770 -353 770 -353 731 -441 c 0
 692 -529 692 -529 632.5 -576 c 0
 573 -623 573 -623 516 -650.5 c 0
 459 -678 459 -678 382.5 -678 c 0
 306 -678 306 -678 247.5 -650.5 c 0
 189 -623 189 -623 130 -573.5 c 0
 71 -524 71 -524 35.5 -439.5 c 0
 0 -355 0 -355 0 -255 c 0
 0 -54 0 -54 127 60 c 0
 247.461914062 168 247.461914062 168 384.63671875 168 c 0
 521.811523438 168 521.811523438 168 640 60 c 0
388 -515 m 0
 565.423828125 -515 565.423828125 -515 608 -350.5 c 0
 619 -308 619 -308 619 -256 c 0
 619 -204 619 -204 607.5 -158.5 c 0
 596 -113 596 -113 571 -73.5 c 0
 517.518554688 11 517.518554688 11 388 11 c 2
 386 11 l 2
 270.125 11 270.125 11 210.5 -79 c 0
 157 -159.754882812 157 -159.754882812 157 -261.876953125 c 0
 157 -364 157 -364 215 -439.5 c 0
 273 -515 273 -515 388 -515 c 0
EndSplineSet
Validated: 524289
EndChar

StartChar: d
Encoding: 100 100 72
Width: 361
VWidth: 0
GlyphClass: 2
Flags: HW
LayerCount: 3
Fore
SplineSet
60 -46 m 25,0,-1
 60 -6 l 25,1,-1
 80 -26 l 25,2,-1
 40 -26 l 1049,3,-1
317.87890625 -501.936523438 m 25,0,-1
 283.237304688 -481.936523438 l 25,1,-1
 310.55859375 -474.616210938 l 25,2,-1
 290.55859375 -509.256835938 l 1049,3,-1
352.26953125 -522.369140625 m 0
 339.01953125 -545.319335938 339.01953125 -545.319335938 316.48046875 -551.359375 c 0
 293.940429688 -557.3984375 293.940429688 -557.3984375 269.258789062 -543.1484375 c 0
 266.514648438 -541.564453125 266.514648438 -541.564453125 264.014648438 -539.892578125 c 0
 0 -382.31640625 0 -382.31640625 0 -26 c 0
 0 34 0 34 60 34 c 0
 120 34 120 34 120 -26 c 0
 120 -316 120 -316 331 -440 c 1
 330.900390625 -440.172851562 l 1
 353.122070312 -453.151367188 353.122070312 -453.151367188 359.296875 -476.197265625 c 0
 365.51953125 -499.419921875 365.51953125 -499.419921875 352.26953125 -522.369140625 c 0
EndSplineSet
Validated: 524291
EndChar

StartChar: e
Encoding: 101 101 73
Width: 599
VWidth: 0
GlyphClass: 2
Flags: HW
LayerCount: 3
Fore
SplineSet
559.127929688 104.388671875 m 29,0,-1
 519.280273438 100.90234375 l 5,1,-1
 537.4609375 122.569335938 l 5,2,-1
 540.947265625 82.7216796875 l 1029,3,-1
79.9580078125 62.466796875 m 29,0,-1
 40.1103515625 58.98046875 l 5,1,-1
 58.291015625 80.6474609375 l 5,2,-1
 61.77734375 40.7998046875 l 1029,3,-1
54.8046875 120.495117188 m 1025
544.43359375 42.875 m 1
 544.43359375 42.8740234375 l 1
 66.04296875 1.0205078125 l 2
 65.90234375 1.0078125 65.90234375 1.0078125 65.76171875 0.9951171875 c 0
 65.619140625 0.982421875 65.619140625 0.982421875 65.4765625 0.970703125 c 2
 65.263671875 0.9521484375 l 1
 65.263671875 0.953125 l 1
 41.15625 -0.9775390625 41.15625 -0.9775390625 21.8984375 14.724609375 c 0
 2.44140625 30.58984375 2.44140625 30.58984375 0.2626953125 55.494140625 c 0
 -1.916015625 80.3994140625 -1.916015625 80.3994140625 13.9921875 99.357421875 c 0
 29.900390625 118.31640625 29.900390625 118.31640625 54.8046875 120.495117188 c 2
 533.974609375 162.416992188 l 1
 533.974609375 162.416992188 l 2
 558.879882812 164.595703125 558.879882812 164.595703125 577.881835938 148.189453125 c 0
 596.883789062 131.783203125 596.883789062 131.783203125 598.975585938 107.875 c 0
 601.067382812 83.9658203125 601.067382812 83.9658203125 585.203125 64.509765625 c 0
 569.337890625 45.052734375 569.337890625 45.052734375 544.931640625 42.9169921875 c 0
 544.681640625 42.8955078125 544.681640625 42.8955078125 544.43359375 42.875 c 1
EndSplineSet
Validated: 524291
EndChar

StartChar: f
Encoding: 102 102 74
Width: 120
VWidth: 0
GlyphClass: 2
Flags: HW
LayerCount: 3
Fore
SplineSet
60 757 m 29,0,-1
 60 717 l 5,1,-1
 40 737 l 5,2,-1
 80 737 l 1029,3,-1
60 77 m 29,0,-1
 60 37 l 5,1,-1
 40 57 l 5,2,-1
 80 57 l 1029,3,-1
0 57 m 1025
119.998172893 737 m 1
 120 737 l 1
 120 57.5 l 1
 120 57 l 1
 119.998172893 57 l 1
 119.8211862 32.8160772344 119.8211862 32.8160772344 102.5 15 c 0
 85 -3 85 -3 60 -3 c 0
 35 -3 35 -3 17.5 14.5 c 0
 0 32 0 32 0 57 c 2
 0 737 l 2
 0 762 0 762 18 779.5 c 0
 36 797 36 797 60 797 c 0
 84 797 84 797 102 779.5 c 0
 120 762 120 762 120 737.5 c 0
 120 737.24966068 120 737.24966068 119.998172893 737 c 1
EndSplineSet
Validated: 524291
EndChar

StartChar: g
Encoding: 103 103 75
Width: 120
VWidth: 0
GlyphClass: 2
Flags: HW
LayerCount: 3
Fore
SplineSet
60 1760 m 29,0,-1
 60 1720 l 5,1,-1
 40 1740 l 5,2,-1
 80 1740 l 1029,3,-1
60 80 m 29,0,-1
 60 40 l 5,1,-1
 40 60 l 5,2,-1
 80 60 l 1029,3,-1
0 60 m 1025
119.998172893 1740 m 1
 120 1740 l 1
 120 60.5 l 1
 120 60 l 1
 119.998172893 60 l 1
 119.8211862 35.8160772344 119.8211862 35.8160772344 102.5 18 c 0
 85 0 85 0 60 0 c 0
 35 0 35 0 17.5 17.5 c 0
 0 35 0 35 0 60 c 2
 0 1740 l 2
 0 1765 0 1765 18 1782.5 c 0
 36 1800 36 1800 60 1800 c 0
 84 1800 84 1800 102 1782.5 c 0
 120 1765 120 1765 120 1740.5 c 0
 120 1740.24966068 120 1740.24966068 119.998172893 1740 c 1
EndSplineSet
Validated: 524291
EndChar

StartChar: h
Encoding: 104 104 76
Width: 120
VWidth: 0
GlyphClass: 3
Flags: HW
LayerCount: 3
Fore
SplineSet
60 760 m 29,0,-1
 60 720 l 5,1,-1
 40 740 l 5,2,-1
 80 740 l 1029,3,-1
60 80 m 29,0,-1
 60 40 l 5,1,-1
 40 60 l 5,2,-1
 80 60 l 1029,3,-1
0 60 m 1025
119.998046875 740 m 1
 120 740 l 1
 120 60.5 l 1
 120 60 l 1
 119.998046875 60 l 1
 119.821289062 35.81640625 119.821289062 35.81640625 102.5 18 c 0
 85 0 85 0 60 0 c 0
 35 0 35 0 17.5 17.5 c 0
 0 35 0 35 0 60 c 2
 0 740 l 2
 0 765 0 765 18 782.5 c 0
 36 800 36 800 60 800 c 0
 84 800 84 800 102 782.5 c 0
 120 765 120 765 120 740.5 c 0
 120 740.25 120 740.25 119.998046875 740 c 1
EndSplineSet
Validated: 524291
LCarets2: 1 760
EndChar

StartChar: i
Encoding: 105 105 77
Width: 149
VWidth: 0
GlyphClass: 2
Flags: HW
LayerCount: 3
Fore
SplineSet
149 584 m 1
 149 26 l 1
 0 26 l 1
 0 584 l 1
 149 584 l 1
EndSplineSet
Validated: 1
EndChar

StartChar: j
Encoding: 106 106 78
Width: 449
VWidth: 0
GlyphClass: 2
Flags: HW
LayerCount: 3
Fore
SplineSet
0 154 m 1
 161 154 l 1
 161 -26 l 1
 321 155 l 1
 449 58 l 1
 161 -206 l 1
 0 -360 l 1
 0 154 l 1
EndSplineSet
Validated: 1
EndChar

StartChar: k
Encoding: 107 107 79
Width: 120
VWidth: 3070
GlyphClass: 2
Flags: HW
LayerCount: 3
Fore
SplineSet
60 761 m 29,0,-1
 60 721 l 5,1,-1
 40 741 l 5,2,-1
 80 741 l 1029,3,-1
60 81 m 29,0,-1
 60 41 l 5,1,-1
 40 61 l 5,2,-1
 80 61 l 1029,3,-1
0 61 m 1025
119.998046875 741 m 1
 120 741 l 1
 120 61.5 l 1
 120 61 l 1
 119.998046875 61 l 1
 119.821289062 36.81640625 119.821289062 36.81640625 102.5 19 c 0
 85 1 85 1 60 1 c 0
 35 1 35 1 17.5 18.5 c 0
 0 36 0 36 0 61 c 2
 0 741 l 2
 0 766 0 766 18 783.5 c 0
 36 801 36 801 60 801 c 0
 84 801 84 801 102 783.5 c 0
 120 766 120 766 120 741.5 c 0
 120 741.25 120 741.25 119.998046875 741 c 1
EndSplineSet
Validated: 524291
EndChar

StartChar: l
Encoding: 108 108 80
Width: 333
GlyphClass: 2
Flags: HW
LayerCount: 3
Fore
SplineSet
53.5 348.5 m 0
 107 397 107 397 166.5 397 c 0
 226 397 226 397 279.5 347.5 c 0
 333 298 333 298 333 214 c 0
 333 172 333 172 316 134 c 0
 299 96 299 96 277 78 c 0
 217 31 217 31 164 31 c 0
 111 31 111 31 55 78 c 0
 0 123.833007812 0 123.833007812 0 211.916992188 c 0
 0 300 0 300 53.5 348.5 c 0
EndSplineSet
Validated: 524289
EndChar

StartChar: m
Encoding: 109 109 81
Width: 120
VWidth: 3070
GlyphClass: 2
Flags: HW
LayerCount: 3
Fore
SplineSet
60 1760 m 29,0,-1
 60 1720 l 5,1,-1
 40 1740 l 5,2,-1
 80 1740 l 1029,3,-1
60 80 m 29,0,-1
 60 40 l 5,1,-1
 40 60 l 5,2,-1
 80 60 l 1029,3,-1
0 60 m 1025
119.998046875 1740 m 1
 120 1740 l 1
 120 60.5 l 1
 120 60 l 1
 119.998046875 60 l 1
 119.821289062 35.81640625 119.821289062 35.81640625 102.5 18 c 0
 85 0 85 0 60 0 c 0
 35 0 35 0 17.5 17.5 c 0
 0 35 0 35 0 60 c 2
 0 1740 l 2
 0 1765 0 1765 18 1782.5 c 0
 36 1800 36 1800 60 1800 c 0
 84 1800 84 1800 102 1782.5 c 0
 120 1765 120 1765 120 1740.5 c 0
 120 1740.25 120 1740.25 119.998046875 1740 c 1
EndSplineSet
Validated: 524291
EndChar

StartChar: o
Encoding: 111 111 83
Width: 514
VWidth: 0
GlyphClass: 2
Flags: HW
LayerCount: 3
Fore
SplineSet
51.2197265625 90.3212890625 m 25,0,-1
 71.2197265625 124.962890625 l 25,1,-1
 78.5400390625 97.6416015625 l 25,2,-1
 43.8994140625 117.641601562 l 1049,3,-1
441.219726562 765.821289062 m 25,0,-1
 461.219726562 800.461914062 l 25,1,-1
 468.540039062 773.141601562 l 25,2,-1
 433.899414062 793.141601562 l 1049,3,-1
30.7861328125 55.9306640625 m 0
 7.8369140625 69.1806640625 7.8369140625 69.1806640625 1.7978515625 91.720703125 c 0
 -4.2421875 114.259765625 -4.2421875 114.259765625 10.0078125 138.94140625 c 0
 21.2353515625 158.387695312 21.2353515625 158.387695312 36.8740234375 165.610351562 c 0
 179.776367188 252.123046875 179.776367188 252.123046875 282.908203125 430.75390625 c 0
 386.267578125 609.778320312 386.267578125 609.778320312 390.313476562 775.09765625 c 0
 388.228515625 794.037109375 388.228515625 794.037109375 400.0078125 814.440429688 c 0
 414.2578125 839.122070312 414.2578125 839.122070312 435.614257812 844.112304688 c 0
 456.970703125 849.102539062 456.970703125 849.102539062 481.219726562 835.102539062 c 0
 514.162109375 816.083984375 514.162109375 816.083984375 514.162109375 788.23828125 c 0,0,0
 514.162109375 785.69921875 514.162109375 785.69921875 513.888671875 783.086914062 c 1
 513.908203125 783.086914062 513.908203125 783.086914062 513.928710938 783.086914062 c 1
 512.581054688 588.559570312 512.581054688 588.559570312 387.581054688 372.052734375 c 0
 263.095703125 156.436523438 263.095703125 156.436523438 92.939453125 55.861328125 c 0
 85.66796875 51.236328125 85.66796875 51.236328125 76.958984375 48.90234375 c 0
 53.736328125 42.6806640625 53.736328125 42.6806640625 30.7861328125 55.9306640625 c 0
EndSplineSet
Validated: 524291
EndChar

StartChar: p
Encoding: 112 112 84
Width: 480
VWidth: 3070
GlyphClass: 2
Flags: HW
LayerCount: 3
Fore
SplineSet
60 760 m 29,0,-1
 60 720 l 5,1,-1
 40 740 l 5,2,-1
 80 740 l 1029,3,-1
60 80 m 29,0,-1
 60 40 l 5,1,-1
 40 60 l 5,2,-1
 80 60 l 1029,3,-1
0 60 m 1025
60.287109375 772 m 29,0,-1
 60.287109375 732 l 5,1,-1
 40.287109375 752 l 5,2,-1
 80.287109375 752 l 1029,3,-1
60.287109375 760 m 29,0,-1
 60.287109375 720 l 5,1,-1
 40.287109375 740 l 5,2,-1
 80.287109375 740 l 1029,3,-1
120.2890625 897 m 1
 360.296875 1138.01202929 360.296875 1138.01202929 360.296875 1282.73925781 c 0,0,0
 360.296875 1456 360.296875 1456 234.2890625 1456 c 0
 120.2890625 1456 120.2890625 1456 120.2890625 1224 c 2
 120.2890625 897 l 1
0 740 m 2
 0 743.168105485 0 743.168105485 0.2890625 746.215768261 c 2
 0.2890625 751.472615644 l 2
 0.287109375 751.735889295 0.287109375 751.735889295 0.287109375 752 c 0
 0.287109375 752.260416667 0.287109375 752.260416667 0.2890625 752.520019531 c 2
 0.2890625 1231 l 2
 1.2890625 1579 1.2890625 1579 234.7890625 1579 c 0
 480.2890625 1579 480.2890625 1579 480.2890625 1280 c 0
 480.2890625 1089.4519007 480.2890625 1089.4519007 120 728.712006685 c 1
 120 60.5 l 1
 120 60 l 1
 119.998172893 60 l 1
 119.8211862 35.8160772344 119.8211862 35.8160772344 102.5 18 c 0
 85 0 85 0 60 0 c 0
 35 0 35 0 17.5 17.5 c 0
 0 35 0 35 0 60 c 2
 0 740 l 2
EndSplineSet
Validated: 524291
EndChar

StartChar: r
Encoding: 114 114 86
Width: 462
VWidth: 0
GlyphClass: 2
Flags: HW
LayerCount: 3
Fore
SplineSet
190 299 m 1
 462 -88 l 1
 280 -88 l 1
 0 299 l 1
 190 299 l 1
EndSplineSet
Validated: 1
EndChar

StartChar: s
Encoding: 115 115 87
Width: 770
GlyphClass: 2
Flags: HW
LayerCount: 3
Fore
SplineSet
388 141 m 0
 547.428710938 141 547.428710938 141 586 289.5 c 0
 596 328 596 328 596 374.5 c 0
 596 421 596 421 585.5 462 c 0
 575 503 575 503 552.5 538.5 c 0
 504.013671875 615 504.013671875 615 388 615 c 2
 387 615 l 2
 318 615 318 615 269 575.5 c 0
 180 503.754882812 180 503.754882812 180 390.377929688 c 0
 180 277 180 277 232 209 c 0
 284 141 284 141 388 141 c 0
640 690 m 0
 698 636 698 636 734 554.5 c 0
 770 473 770 473 770 375 c 0
 770 277 770 277 731 189 c 0
 692 101 692 101 632.5 54 c 0
 573 7 573 7 516 -20.5 c 0
 459 -48 459 -48 382.5 -48 c 0
 306 -48 306 -48 247.5 -20.5 c 0
 189 7 189 7 130 56.5 c 0
 71 106 71 106 35.5 190.5 c 0
 0 275 0 275 0 375 c 0
 0 576 0 576 127 690 c 0
 247.461914062 798 247.461914062 798 384.63671875 798 c 0
 521.811523438 798 521.811523438 798 640 690 c 0
EndSplineSet
Validated: 524289
EndChar

StartChar: u
Encoding: 117 117 89
Width: 585
VWidth: 0
GlyphClass: 2
Flags: HW
LayerCount: 3
Fore
SplineSet
489 800 m 29,0,-1
 489 760 l 5,1,-1
 469 780 l 5,2,-1
 509 780 l 1029,3,-1
60 80 m 29,0,-1
 60 40 l 5,1,-1
 40 60 l 5,2,-1
 80 60 l 1029,3,-1
217 -44 m 0
 428 -44 428 -44 428 780 c 1
 429 780 l 1
 429 805 429 805 447 822.5 c 0
 465 840 465 840 489 840 c 0
 513 840 513 840 531 822.5 c 0
 549 805 549 805 549 780.5 c 0
 549 780.24966068 549 780.24966068 548.998172893 780 c 1
 549 780 l 1
 548 -174 548 -174 213.956054688 -174 c 0
 0 -174 0 -174 0 48 c 0
 0 54 0 54 0 60 c 0
 0 85 0 85 18 102.5 c 0
 36 120 36 120 60 120 c 0
 84 120 84 120 102 102.5 c 0
 120 85 120 85 120 60.5 c 0
 120 60.2496606801 120 60.2496606801 119.998172893 60 c 1
 120 60 l 1
 120 49 l 2
 120 -44 120 -44 217 -44 c 0
EndSplineSet
Validated: 524291
Layer: 2
SplineSet
291.913085938 1746.18457031 m 4
 357.490234375 1746.48242188 420.852539062 1717.75390625 482 1660 c 4
 550.186523438 1595.75390625 584.432617188 1510.96386719 584.740234375 1405.63085938 c 4
 585.099609375 1301.63085938 550.852539062 1218.84082031 482 1157.26074219 c 4
 418.852539062 1100.17382812 355.82421875 1071.44628906 292.913085938 1071.07714844 c 4
 231.82421875 1070.77929688 168.39453125 1099.5078125 102.625976562 1157.26074219 c 4
 35.728515625 1216.17382812 2.279296875 1298.29785156 2.279296875 1403.63085938 c 4
 2.279296875 1514.29785156 35.728515625 1599.75390625 102.625976562 1660 c 4
 166.39453125 1717.08691406 229.490234375 1745.81542969 291.913085938 1746.18457031 c 4
293.903320312 1197.13085938 m 4
 344.154296875 1197.46386719 385.49609375 1222.56054688 417.928710938 1272.41992188 c 4
 447.49609375 1317.89355469 461.75390625 1362.40820312 460.704101562 1405.96289062 c 4
 459.087890625 1463.74121094 447.279296875 1509.96386719 425.279296875 1544.63085938 c 4
 393.946289062 1595.29785156 349.8203125 1620.7265625 292.903320312 1620.91796875 c 4
 238.487304688 1620.7265625 196.612304688 1595.29785156 167.279296875 1544.63085938 c 4
 137.946289062 1493.29785156 123.553710938 1446.2265625 124.103515625 1403.41894531 c 4
 124.220703125 1357.56054688 138.329101562 1313.56054688 166.428710938 1271.41992188 c 4
 199.662109375 1221.56054688 242.154296875 1196.79785156 293.903320312 1197.13085938 c 4
EndSplineSet
Refer: 286 57346 S 1 0 0 1 396.279 1158.63 2
Refer: 286 57346 S 1 0 0 1 2.2793 1342.63 2
Refer: 286 57346 S 1 0 0 1 253.279 1073.63 2
Refer: 286 57346 S 1 0 0 1 212.913 1073.08 2
Refer: 286 57346 S 1 0 0 1 464.279 1342.63 2
Refer: 286 57346 S 1 0 0 1 29.2793 1474.63 2
Refer: 286 57346 S 1 0 0 1 432.279 1211.63 2
Refer: 286 57346 S 1 0 0 1 67.2793 1538.63 2
Refer: 286 57346 S 1 0 0 1 252.279 1623.63 2
Refer: 286 57346 S 1 0 0 1 217.279 1623.63 2
EndChar

StartChar: w
Encoding: 119 119 91
Width: 120
VWidth: 0
GlyphClass: 2
Flags: HW
LayerCount: 3
Fore
SplineSet
60 1715 m 29,0,-1
 60 1675 l 5,1,-1
 40 1695 l 5,2,-1
 80 1695 l 1029,3,-1
60 35 m 29,0,-1
 60 -5 l 5,1,-1
 40 15 l 5,2,-1
 80 15 l 1029,3,-1
0 15 m 1025
119.998172893 1695 m 1
 120 1695 l 1
 120 15.5 l 1
 120 15 l 1
 119.998172893 15 l 1
 119.8211862 -9.18392276564 119.8211862 -9.18392276564 102.5 -27 c 0
 85 -45 85 -45 60 -45 c 0
 35 -45 35 -45 17.5 -27.5 c 0
 0 -10 0 -10 0 15 c 2
 0 1695 l 2
 0 1720 0 1720 18 1737.5 c 0
 36 1755 36 1755 60 1755 c 0
 84 1755 84 1755 102 1737.5 c 0
 120 1720 120 1720 120 1695.5 c 0
 120 1695.24966068 120 1695.24966068 119.998172893 1695 c 1
EndSplineSet
Validated: 524291
EndChar

StartChar: y
Encoding: 121 121 93
Width: 120
VWidth: 0
GlyphClass: 2
Flags: HW
LayerCount: 3
Fore
SplineSet
60 200 m 29,0,-1
 60 160 l 5,1,-1
 40 180 l 5,2,-1
 80 180 l 1029,3,-1
60 80 m 29,0,-1
 60 40 l 5,1,-1
 40 60 l 5,2,-1
 80 60 l 1029,3,-1
0 60 m 1025
119.998172893 180 m 1
 120 180 l 1
 120 60.5 l 1
 120 60 l 1
 119.998172893 60 l 1
 119.8211862 35.8160772344 119.8211862 35.8160772344 102.5 18 c 0
 85 0 85 0 60 0 c 0
 35 0 35 0 17.5 17.5 c 0
 0 35 0 35 0 60 c 2
 0 180 l 2
 0 205 0 205 18 222.5 c 0
 36 240 36 240 60 240 c 0
 84 240 84 240 102 222.5 c 0
 120 205 120 205 120 180.5 c 0
 120 180.24966068 120 180.24966068 119.998172893 180 c 1
EndSplineSet
Validated: 524291
EndChar

StartChar: z
Encoding: 122 122 94
Width: 555
GlyphClass: 2
Flags: HW
LayerCount: 3
Fore
SplineSet
0 306 m 0
 0 450 0 450 89 530.5 c 0
 178 611 178 611 276.5 611 c 0
 375 611 375 611 460 533 c 0
 555 447.047851562 555 447.047851562 555 306 c 0
 555 236 555 236 526.5 172.5 c 0
 498 109 498 109 455 74.5 c 0
 412 40 412 40 371.5 20.5 c 0
 331 1 331 1 276 1 c 0
 185.420898438 1 185.420898438 1 91 79 c 0
 51 113 51 113 25.5 173.5 c 0
 0 234 0 234 0 306 c 0
181 183 m 0
 220 122 220 122 281 122 c 0
 342 122 342 122 375.5 178.5 c 0
 409 235 409 235 409 297 c 0
 409 359 409 359 375.5 417.5 c 0
 342 476 342 476 281.5 476 c 0
 221 476 221 476 181.5 416.5 c 0
 142 357 142 357 142 300.5 c 0
 142 244 142 244 181 183 c 0
EndSplineSet
Validated: 524289
EndChar

StartChar: braceleft
Encoding: 123 123 95
Width: 672
GlyphClass: 2
Flags: HW
LayerCount: 3
Fore
SplineSet
671.67578125 -501.004882812 m 1
 671.67578125 -621.200195312 l 1
 619.14453125 -621.200195312 l 2
 417.587890625 -621 417.587890625 -621 346.819335938 -559.69921875 c 0
 276.05078125 -498.3984375 276.05078125 -498.3984375 276.05078125 -316.32421875 c 2
 276.05078125 804.887695312 l 2
 275.587890625 930 275.587890625 930 232.546875 976.435546875 c 0
 188.779296875 1021.80175781 188.779296875 1021.80175781 63.6123046875 1021.80175781 c 2
 0 1021.80175781 l 1
 0 1142.51953125 l 1
 63.6123046875 1142.51953125 l 2
 183.672851562 1143.00878906 183.672851562 1143.00878906 229.862304688 1185.71875 c 0
 276.05078125 1228.42773438 276.05078125 1228.42773438 276.05078125 1358.10742188 c 2
 276.05078125 2567.14550781 l 2
 275.587890625 2746 275.587890625 2746 344.69921875 2807.59960938 c 0
 413.811523438 2869.20019531 413.811523438 2869.20019531 619.14453125 2869.20019531 c 2
 671.67578125 2869.20019531 l 1
 671.67578125 2748.82519531 l 1
 614.21875 2748.82519531 l 2
 613.504882812 2748.82617188 613.504882812 2748.82617188 612.793945312 2748.82617188 c 0,0,0
 474.418945312 2748.82617188 474.418945312 2748.82617188 441.563476562 2714.97460938 c 0
 408.5390625 2680.94921875 408.5390625 2680.94921875 408.5390625 2563.86328125 c 2
 408.5390625 1348.2578125 l 2
 408.587890625 1220 408.587890625 1220 371.587890625 1161.5 c 0
 334.587890625 1103 334.587890625 1103 253.55859375 1082.31835938 c 1
 324.587890625 1060 324.587890625 1060 366.563476562 1002.03417969 c 0
 408.5390625 944.067382812 408.5390625 944.067382812 408.5390625 815.55859375 c 2
 408.5390625 -313.041015625 l 2
 408.587890625 -409 408.587890625 -409 464.012695312 -465.7109375 c 0
 499.592773438 -501.004882812 499.592773438 -501.004882812 614.21875 -501.004882812 c 2
 671.67578125 -501.004882812 l 1
EndSplineSet
Validated: 524321
EndChar

StartChar: bar
Encoding: 124 124 96
Width: 120
GlyphClass: 2
Flags: HW
LayerCount: 3
Fore
SplineSet
120 3250 m 1
 120 -1000 l 1
 0 -1000 l 1
 0 3250 l 1
 120 3250 l 1
EndSplineSet
Validated: 1
EndChar

StartChar: asciitilde
Encoding: 126 126 98
Width: 1118
GlyphClass: 2
Flags: HW
LayerCount: 3
Fore
SplineSet
80 895.919921875 m 29,0,-1
 40 895.919921875 l 5,1,-1
 60 915.919921875 l 5,2,-1
 60 875.919921875 l 1029,3,-1
579 893.919921875 m 29,0,-1
 539 893.919921875 l 5,1,-1
 559 913.919921875 l 5,2,-1
 559 873.919921875 l 1029,3,-1
1038.18554688 909.984375 m 29,0,-1
 1078.18554688 909.984375 l 5,1,-1
 1058.18554688 889.984375 l 5,2,-1
 1058.18554688 929.984375 l 1029,3,-1
539.185546875 911.984375 m 29,0,-1
 579.185546875 911.984375 l 5,1,-1
 559.185546875 891.984375 l 5,2,-1
 559.185546875 931.984375 l 1029,3,-1
529 839.920898438 m 1
 416.640625 902.920898438 416.640625 902.920898438 305.640625 902.920898438 c 0
 194.640625 902.920898438 194.640625 902.920898438 90 842.920898438 c 1
 89.7939453125 843.280273438 89.7939453125 843.280273438 89.587890625 843.639648438 c 1
 76.544921875 835.919921875 76.544921875 835.919921875 60.5 835.919921875 c 0
 36 835.919921875 36 835.919921875 18 853.419921875 c 0
 0 870.919921875 0 870.919921875 0 895.919921875 c 0
 0 920.919921875 0 920.919921875 17.5 938.419921875 c 0
 23.3359375 944.255859375 23.3359375 944.255859375 30.0068359375 948.146484375 c 0
 29.50390625 949.033203125 29.50390625 949.033203125 29 949.920898438 c 0
 156.640625 1023.92089844 156.640625 1023.92089844 306.140625 1023.92089844 c 0
 430.229492188 1023.92089844 430.229492188 1023.92089844 543.88671875 970.18359375 c 1
 550.936523438 971.984375 550.936523438 971.984375 558.685546875 971.984375 c 0
 574.897460938 971.984375 574.897460938 971.984375 588.262695312 964.322265625 c 1
 588.725585938 965.154296875 588.725585938 965.154296875 589.185546875 965.983398438 c 1
 701.544921875 902.983398438 701.544921875 902.983398438 812.544921875 902.983398438 c 0
 923.544921875 902.983398438 923.544921875 902.983398438 1028.18554688 962.983398438 c 1
 1028.39160156 962.624023438 1028.39160156 962.624023438 1028.59765625 962.264648438 c 1
 1041.640625 969.984375 1041.640625 969.984375 1057.68554688 969.984375 c 0
 1082.18554688 969.984375 1082.18554688 969.984375 1100.18554688 952.484375 c 0
 1118.18554688 934.984375 1118.18554688 934.984375 1118.18554688 909.984375 c 0
 1118.18554688 884.984375 1118.18554688 884.984375 1100.68554688 867.484375 c 0
 1094.84960938 861.6484375 1094.84960938 861.6484375 1088.17871094 857.7578125 c 0
 1088.68164062 856.87109375 1088.68164062 856.87109375 1089.18554688 855.983398438 c 0
 961.544921875 781.983398438 961.544921875 781.983398438 812.044921875 781.983398438 c 0
 687.956054688 781.983398438 687.956054688 781.983398438 574.298828125 835.720703125 c 1
 567.249023438 833.919921875 567.249023438 833.919921875 559.5 833.919921875 c 0
 543.288085938 833.919921875 543.288085938 833.919921875 529.922851562 841.58203125 c 1
 529.459960938 840.75 529.459960938 840.75 529 839.920898438 c 1
EndSplineSet
Validated: 524291
EndChar

StartChar: exclamdown
Encoding: 161 161 100
Width: 203
GlyphClass: 2
Flags: HW
LayerCount: 3
Fore
SplineSet
0 0 m 1
 0 655 l 1
 21 1012 l 1
 182 1012 l 1
 203 655 l 1
 203 0 l 1
 0 0 l 1
0 1239 m 1
 0 1493 l 1
 203 1493 l 1
 203 1239 l 1
 0 1239 l 1
EndSplineSet
Validated: 1
EndChar

StartChar: cent
Encoding: 162 162 101
Width: 848
GlyphClass: 2
Flags: HW
LayerCount: 3
Fore
SplineSet
485 127 m 1
 485 991 l 1
 352 979 352 979 272.5 860.5 c 0
 193 742 193 742 193 559 c 0
 193 376 193 376 272.5 258.5 c 0
 352 141 352 141 485 127 c 1
588 1145 m 1
 702.58984375 1138.75 702.58984375 1138.75 848 1077 c 1
 848 905 l 1
 715.859375 983.458007812 715.859375 983.458007812 588 993 c 1
 588 123 l 1
 715.120117188 131.920898438 715.120117188 131.920898438 848 213 c 1
 848 41 l 1
 702.58984375 -20.75 702.58984375 -20.75 588 -27 c 1
 588 -313 l 1
 485 -313 l 1
 485 -27 l 1
 260 -4 260 -4 130 151.5 c 0
 0 307 0 307 0 557.5 c 0
 0 808 0 808 131 968 c 0
 263 1126 263 1126 485 1145 c 1
 485 1432 l 1
 588 1432 l 1
 588 1145 l 1
EndSplineSet
Validated: 524289
EndChar

StartChar: sterling
Encoding: 163 163 102
Width: 973
GlyphClass: 2
Flags: HW
LayerCount: 3
Fore
SplineSet
678 1520 m 0
 804.133789062 1520 804.133789062 1520 953 1462 c 1
 953 1278 l 1
 829 1366 829 1366 696 1366 c 0
 563 1366 563 1366 499.5 1277 c 0
 436 1188 436 1188 436 995 c 2
 436 778 l 1
 807 778 l 1
 807 635 l 1
 436 635 l 1
 436 170 l 1
 973 170 l 1
 973 0 l 1
 0 0 l 1
 0 170 l 1
 236 170 l 1
 236 635 l 1
 37 635 l 1
 37 778 l 1
 236 778 l 1
 236 1016 l 2
 236 1269 236 1269 345 1395 c 0
 456 1520 456 1520 678 1520 c 0
EndSplineSet
Validated: 524289
EndChar

StartChar: currency
Encoding: 164 164 103
Width: 895
GlyphClass: 2
Flags: HW
LayerCount: 3
Fore
SplineSet
260 922 m 1
 350.516601562 983 350.516601562 983 445.274414062 983 c 0
 540.032226562 983 540.032226562 983 639 924 c 1
 805 1090 l 1
 895 997 l 1
 729 831 l 1
 788 733.935546875 788 733.935546875 788 637.7578125 c 0
 788 541.581054688 788 541.581054688 727 455 c 1
 895 289 l 1
 801 195 l 1
 635 362 l 1
 544.483398438 301 544.483398438 301 449.098632812 301 c 0
 353.713867188 301 353.713867188 301 256 358 c 1
 92 195 l 1
 0 285 l 1
 166 451 l 1
 106 547.774414062 106 547.774414062 106 644.559570312 c 0
 106 741.344726562 106 741.344726562 168 829 c 1
 0 995 l 1
 94 1090 l 1
 260 922 l 1
295 488 m 0
 359 426 359 426 449 426 c 0
 539 426 539 426 601 489.5 c 0
 663 553 663 553 663 643.5 c 0
 663 734 663 734 601.5 795 c 0
 540 856 540 856 448.5 856 c 0
 357 856 357 856 295 795 c 0
 233 734 233 734 233 643 c 0
 233 552 233 552 295 488 c 0
EndSplineSet
Validated: 524289
EndChar

StartChar: yen
Encoding: 165 165 104
Width: 1159
GlyphClass: 2
Flags: HW
LayerCount: 3
Fore
SplineSet
0 1493 m 1
 215 1493 l 1
 579 834 l 1
 942 1493 l 1
 1159 1493 l 1
 829 932 l 1
 1081 932 l 1
 1081 821 l 1
 766 821 l 1
 680 670 l 1
 680 635 l 1
 1081 635 l 1
 1081 524 l 1
 680 524 l 1
 680 0 l 1
 477 0 l 1
 477 524 l 1
 78 524 l 1
 78 635 l 1
 477 635 l 1
 477 670 l 1
 387 821 l 1
 78 821 l 1
 78 932 l 1
 321 932 l 1
 0 1493 l 1
EndSplineSet
Validated: 1
EndChar

StartChar: brokenbar
Encoding: 166 166 105
Width: 172
GlyphClass: 2
Flags: HW
LayerCount: 3
Fore
SplineSet
172 408 m 1
 172 -350 l 1
 0 -350 l 1
 0 408 l 1
 172 408 l 1
172 1432 m 1
 172 674 l 1
 0 674 l 1
 0 1432 l 1
 172 1432 l 1
EndSplineSet
Validated: 1
EndChar

StartChar: section
Encoding: 167 167 106
Width: 837
GlyphClass: 2
Flags: HW
LayerCount: 3
Fore
SplineSet
551 410 m 1
 673 500.516601562 673 500.516601562 673 584.2578125 c 0
 673 668 673 668 601 736.5 c 0
 529 805 529 805 286 936 c 1
 163 845.262695312 163 845.262695312 163 762.630859375 c 0
 163 680 163 680 233 610 c 1
 308 541 308 541 551 410 c 1
184 1006 m 1
 65 1091.28320312 65 1091.28320312 65 1226.64160156 c 0
 65 1362 65 1362 164.5 1441 c 0
 264 1520 264 1520 419.5 1520 c 0
 575 1520 575 1520 737 1462 c 1
 737 1298 l 1
 573.390625 1376 573.390625 1376 464.6953125 1376 c 0
 356 1376 356 1376 303 1335.5 c 0
 250 1295 250 1295 250 1225 c 0
 250 1135 250 1135 455 1020 c 0
 479 1006 479 1006 495 997 c 0
 707 878 707 878 772 801 c 0
 837 724 837 724 837 623 c 0
 837 442.881835938 837 442.881835938 653 340 c 1
 772 238.274414062 772 238.274414062 772 105.63671875 c 0
 772 -27 772 -27 670 -111 c 0
 568 -195 568 -195 411 -195 c 0
 254 -195 254 -195 80 -137 c 1
 80 27 l 1
 253.333007812 -51 253.333007812 -51 363.666992188 -51 c 1,0,0
 363.666992188 -132.297851562 363.666992188 -132.297851562 531 -9 c 0
 587 33 587 33 587 109 c 0
 587 211 587 211 366 334 c 1
 342 348 l 1
 131 466 131 466 65.5 543.5 c 0
 0 621 0 621 0 723 c 0
 0 906 0 906 184 1006 c 1
EndSplineSet
Validated: 524321
EndChar

StartChar: dieresis
Encoding: 168 168 107
Width: 594
GlyphClass: 2
Flags: HW
LayerCount: 3
Fore
SplineSet
392 1552 m 1
 594 1552 l 1
 594 1350 l 1
 392 1350 l 1
 392 1552 l 1
0 1552 m 1
 203 1552 l 1
 203 1350 l 1
 0 1350 l 1
 0 1552 l 1
EndSplineSet
Validated: 1
EndChar

StartChar: copyright
Encoding: 169 169 108
Width: 1233
GlyphClass: 2
Flags: HW
LayerCount: 3
Fore
SplineSet
722.713867188 433.66796875 m 1
 706.565081737 429.985761997 706.565081737 429.985761997 690.759500739 429.985761997 c 0,0,0
 639.31156618 429.985761997 639.31156618 429.985761997 591.5 469 c 0
 529.496031746 519.595238095 529.496031746 519.595238095 529.496031746 636.62329932 c 0,0,0
 529.496031746 756.411293721 529.496031746 756.411293721 586.5 823 c 0
 643 889 643 889 756 889 c 0
 869 889 869 889 896.4609375 849.12109375 c 0
 953 771 953 771 967 667 c 0
 976.230316409 598.431935247 976.230316409 598.431935247 976.230316409 522.795954368 c 0,0,0
 976.230316409 483.711736571 976.230316409 483.711736571 973.765625 442.740234375 c 0
 951 77 951 77 673.305664062 65.9404296875 c 0
 664.111202435 65.5830828836 664.111202435 65.5830828836 655.07229619 65.5830828836 c 0,0,0
 463.262058946 65.5830828836 463.262058946 65.5830828836 341.5 226.5 c 0
 214 395 214 395 214 674 c 0
 214 953 214 953 354 1119.5 c 0
 494 1286 494 1286 730.590820312 1287.73535156 c 0
 732.180132591 1287.74526944 732.180132591 1287.74526944 733.768094922 1287.74526944 c 0,0,0
 828.188383065 1287.74526944 828.188383065 1287.74526944 917.8359375 1252.68066406 c 1
 958.875 1368.10546875 l 1
 856.935485532 1410.09128546 856.935485532 1410.09128546 759.347153565 1410.09128546 c 0,0,0
 754.796776305 1410.09128546 754.796776305 1410.09128546 750.255859375 1410 c 0
 440 1406 440 1406 263.5 1209 c 0
 87 1012 87 1012 87 676.5 c 0
 87 341 87 341 243 147.5 c 0
 399 -46 399 -46 674 -46.259765625 c 0
 846 -46 846 -46 953.5 70 c 0
 1061 186 1061 186 1070.88085938 363.48046875 c 0
 1074.29333577 422.830157704 1074.29333577 422.830157704 1074.29333577 477.193630362 c 0,0,0
 1074.29333577 727.413328464 1074.29333577 727.413328464 1002 872 c 0
 967 943 967 943 866 987 c 0
 813.229616694 1010.25474519 813.229616694 1010.25474519 743.669130809 1010.25474519 c 0,0,0
 735.457419296 1010.25474519 735.457419296 1010.25474519 727.01171875 1009.93066406 c 0
 567 1005 567 1005 499.581054688 909.475585938 c 0
 415 790 415 790 413 635.5 c 0
 412.953488372 631.906976744 412.953488372 631.906976744 412.953488372 628.345451722 c 0,0,0
 412.953488372 478.761400799 412.953488372 478.761400799 495 384.740234375 c 0
 567.802081172 301.327765975 567.802081172 301.327765975 665.432962702 301.327765975 c 0,0,0
 712.634962807 301.327765975 712.634962807 301.327765975 765.640625 320.825195312 c 1
 747 370 747 370 722.713867188 433.66796875 c 1
EndSplineSet
Validated: 524297
Layer: 2
SplineSet
864 1071 m 5
 864 963 l 5
 823.333333333 983 785.333333333 996.666666667 750 1004 c 4
 716.666666667 1013.33333333 679 1018 637 1018 c 4
 559.666666667 1018 498 993.333333333 452 944 c 4
 407.333333333 893.333333333 385 825.666666667 385 741 c 4
 385 652.333333333 408.333333333 584.666666667 455 538 c 4
 502.333333333 490.666666667 569 467 655 467 c 4
 693.666666667 467 729.333333333 471.333333333 762 480 c 4
 796 488 830 500.666666667 864 518 c 5
 864 414 l 5
 826 398 789.666666667 386.666666667 755 380 c 4
 715 372.666666667 675.666666667 369 637 369 c 4
 515.666666667 369 421.333333333 402.333333333 354 469 c 4
 284.666666667 535.666666667 250 626.333333333 250 741 c 4
 250 856.333333333 284.666666667 947.666666667 354 1015 c 132
 423.333333333 1082.33333333 517.666666667 1116 637 1116 c 4
 675.666666667 1116 715 1112.33333333 755 1105 c 4
 789.666666667 1098.33333333 826 1087 864 1071 c 5
616 1255 m 4
 544.666666667 1255 479.333333333 1242.66666667 420 1218 c 4
 358.666666667 1192.66666667 303.333333333 1155.33333333 254 1106 c 4
 204 1056 166 1000.33333333 140 939 c 4
 114.666666667 877 102 811 102 741 c 4
 102 671.666666667 114.666666667 606.666666667 140 546 c 132
 165.333333333 485.333333333 203.333333333 429.666666667 254 379 c 4
 305.333333333 327.666666667 360.666666667 289.666666667 420 265 c 4
 482 239.666666667 547.333333333 227 616 227 c 4
 686 227 751.333333333 239.666666667 812 265 c 4
 872 289.666666667 927.666666667 327.666666667 979 379 c 4
 1031 431 1068.66666667 486.666666667 1092 546 c 4
 1117.33333333 604.666666667 1130 669.666666667 1130 741 c 4
 1130 811 1117.33333333 877 1092 939 c 4
 1066.66666667 999.666666667 1029 1055.33333333 979 1106 c 4
 929.666666667 1155.33333333 874.666666667 1192.66666667 814 1218 c 4
 754 1242.66666667 688 1255 616 1255 c 4
616 1358 m 4
 700 1358 778.666666667 1343 852 1313 c 4
 924.666666667 1283 991 1238 1051 1178 c 4
 1110.33333333 1117.33333333 1155.66666667 1050.33333333 1187 977 c 4
 1217.66666667 905 1233 826.333333333 1233 741 c 4
 1233 657.666666667 1218 579.666666667 1188 507 c 4
 1156.66666667 434.333333333 1111 367.666666667 1051 307 c 4
 990.333333333 247 923.666666667 201.333333333 851 170 c 4
 778.333333333 140 700 125 616 125 c 4
 533.333333333 125 455.333333333 140 382 170 c 4
 308.666666667 201.333333333 242 247 182 307 c 4
 121.333333333 367.666666667 76 434.333333333 46 507 c 4
 15.3333333333 579 0 657 0 741 c 4
 0 826.333333333 15.3333333333 905 46 977 c 4
 77.3333333333 1050.33333333 122.666666667 1117.33333333 182 1178 c 4
 242 1238 308.333333333 1283 381 1313 c 4
 454.333333333 1343 532.666666667 1358 616 1358 c 4
EndSplineSet
EndChar

StartChar: ordfeminine
Encoding: 170 170 109
Width: 691
GlyphClass: 2
Flags: HW
LayerCount: 3
Fore
SplineSet
23 592 m 1
 691 592 l 1
 691 469 l 1
 23 469 l 1
 23 592 l 1
62 1464 m 1
 193.310546875 1520 193.310546875 1520 328 1520 c 0
 512 1520 512 1520 598 1434 c 0
 684 1348 684 1348 684 1165 c 2
 684 717 l 1
 541 717 l 1
 541 829 l 1
 441.7578125 698 441.7578125 698 279 698 c 0
 151 698 151 698 75 766 c 0
 0 834 0 834 0 956.5 c 0
 0 1079 0 1079 93 1149 c 0
 186 1219 186 1219 359 1219 c 2
 541 1219 l 1
 541 1223 l 2
 541 1405 541 1405 305 1405 c 0
 202.12109375 1405 202.12109375 1405 62 1337 c 1
 62 1464 l 1
414 1104 m 2
 269 1104 269 1104 207.5 1069.5 c 0
 146 1035 146 1035 146 964 c 0
 146 893 146 893 189 855 c 0
 232 817 232 817 321 817 c 0
 410 817 410 817 476 888 c 0
 541 961 541 961 541 1075 c 2
 541 1104 l 1
 414 1104 l 2
EndSplineSet
Validated: 524289
EndChar

StartChar: guillemotleft
Encoding: 171 171 110
Width: 923
GlyphClass: 2
Flags: HW
LayerCount: 3
Fore
SplineSet
923 1059 m 1
 923 868 l 1
 622 600 l 1
 923 332 l 1
 923 141 l 1
 454 559 l 1
 454 641 l 1
 923 1059 l 1
469 1059 m 1
 469 868 l 1
 168 600 l 1
 469 332 l 1
 469 141 l 1
 0 559 l 1
 0 641 l 1
 469 1059 l 1
EndSplineSet
Validated: 1
EndChar

StartChar: logicalnot
Encoding: 172 172 111
Width: 1057
GlyphClass: 2
Flags: HW
LayerCount: 3
Fore
SplineSet
0 862 m 1
 1057 862 l 1
 1057 371 l 1
 889 371 l 1
 889 690 l 1
 0 690 l 1
 0 862 l 1
EndSplineSet
Validated: 1
EndChar

StartChar: uni00AD
Encoding: 173 173 112
Width: 521
GlyphClass: 2
Flags: HW
LayerCount: 3
Fore
SplineSet
0 643 m 1
 521 643 l 1
 521 479 l 1
 0 479 l 1
 0 643 l 1
EndSplineSet
Validated: 1
EndChar

StartChar: registered
Encoding: 174 174 113
Width: 1233
GlyphClass: 2
Flags: HW
LayerCount: 3
Fore
SplineSet
616.5 1255 m 0
 403 1255 403 1255 254 1106 c 0
 102 954 102 954 102 741 c 0
 102 531 102 531 254 379 c 0
 406 227 406 227 616 227 c 0
 827 227 827 227 979 379 c 0
 1130 530 1130 530 1130 741 c 0
 1130 952.986666667 1130 952.986666667 980 1103.99333333 c 0
 830 1255 830 1255 616.5 1255 c 0
616.5 1358 m 0
 871 1358 871 1358 1051 1178 c 0
 1233 991.91011236 1233 991.91011236 1233 741 c 0
 1233 491.022222222 1233 491.022222222 1051 307 c 0
 866.977777778 125 866.977777778 125 616 125 c 0
 364 125 364 125 182 307 c 0
 0 489 0 489 0 741 c 0
 0 991.91011236 0 991.91011236 181 1174.95505618 c 0
 362 1358 362 1358 616.5 1358 c 0
594 1016 m 2
 492 1016 l 1
 492 784 l 1
 594 784 l 2
 684 784 684 784 721 811 c 0
 758 838 758 838 758 900.5 c 0
 758 963 758 963 721 990 c 0
 683 1016 683 1016 594 1016 c 2
600 1100 m 2
 891 1100 891 1100 891 901 c 0
 891 830 891 830 847.5 783.5 c 0
 804 737 804 737 723 723 c 1
 760.054298643 713.248868778 760.054298643 713.248868778 838 592 c 2
 952 406 l 1
 809 406 l 1
 702 580 l 2
 651 661 651 661 621.5 681.5 c 0
 592 702 592 702 547 702 c 2
 492 702 l 1
 492 406 l 1
 362 406 l 1
 362 1100 l 1
 600 1100 l 2
EndSplineSet
Validated: 524289
EndChar

StartChar: macron
Encoding: 175 175 114
Width: 598
GlyphClass: 2
Flags: HW
LayerCount: 3
Fore
SplineSet
0 1526 m 1
 598 1526 l 1
 598 1378 l 1
 0 1378 l 1
 0 1526 l 1
EndSplineSet
Validated: 1
EndChar

StartChar: degree
Encoding: 176 176 115
Width: 635
GlyphClass: 2
Flags: HW
LayerCount: 3
Fore
SplineSet
317 1391 m 0
 238 1391 238 1391 182.5 1335.5 c 0
 127 1280 127 1280 127 1200 c 0
 127 1120 127 1120 182 1066 c 0
 237 1012 237 1012 316.5 1012 c 0
 396 1012 396 1012 452 1067 c 0
 508 1122 508 1122 508 1200.5 c 0
 508 1279 508 1279 452 1335 c 0
 396 1391 396 1391 317 1391 c 0
317 1520 m 0
 381 1520 381 1520 441.5 1494.5 c 0
 563.890625 1442.9140625 563.890625 1442.9140625 611 1323 c 0
 635 1266 635 1266 635 1200 c 0
 635 1069 635 1069 542 976 c 0
 448 885 448 885 314 885 c 0
 180 885 180 885 90 975 c 0
 0 1065 0 1065 0 1199 c 0
 0 1333 0 1333 91.5 1426.5 c 0
 183 1520 183 1520 317 1520 c 0
EndSplineSet
Validated: 524289
EndChar

StartChar: plusminus
Encoding: 177 177 116
Width: 1057
GlyphClass: 2
Flags: HW
LayerCount: 3
Fore
SplineSet
612 1171 m 1
 612 842 l 1
 1057 842 l 1
 1057 672 l 1
 612 672 l 1
 612 340 l 1
 444 340 l 1
 444 672 l 1
 0 672 l 1
 0 842 l 1
 444 842 l 1
 444 1171 l 1
 612 1171 l 1
0 170 m 1
 1057 170 l 1
 1057 0 l 1
 0 0 l 1
 0 170 l 1
EndSplineSet
Validated: 1
EndChar

StartChar: uni00B2
Encoding: 178 178 117
Width: 571
GlyphClass: 2
Flags: HW
LayerCount: 3
Fore
SplineSet
6 1464 m 1
 134 1520 134 1520 264 1520 c 0
 394 1520 394 1520 479.5 1453 c 0
 565 1386 565 1386 565 1280 c 0
 565 1222 565 1222 527.5 1163 c 0
 490 1104 490 1104 372 987 c 2
 161 782 l 1
 571 782 l 1
 571 668 l 1
 0 668 l 1
 0 778 l 1
 231 1004 l 2
 337 1107 337 1107 375 1164.5 c 0
 413 1222 413 1222 413 1278.5 c 0
 413 1335 413 1335 363 1373 c 0
 313 1411 313 1411 222.5 1411 c 0
 132 1411 132 1411 6 1339 c 1
 6 1464 l 1
EndSplineSet
Validated: 1
EndChar

StartChar: uni00B3
Encoding: 179 179 118
Width: 598
GlyphClass: 2
Flags: HW
LayerCount: 3
Fore
SplineSet
577 1303 m 0
 577 1160 577 1160 405 1120 c 1
 598 1077.33691406 598 1077.33691406 598 911 c 0
 598 788 598 788 503.5 720.5 c 0
 409 653 409 653 231 653 c 0
 124.86328125 653 124.86328125 653 0 694 c 1
 0 815 l 1
 134.538085938 762 134.538085938 762 230.76953125 762 c 0
 327 762 327 762 387 802 c 0
 446 844 446 844 446 911 c 0
 446 1061 446 1061 227 1061 c 2
 161 1061 l 1
 161 1169 l 1
 235 1169 l 2
 426 1169 426 1169 426 1292 c 0
 426 1347 426 1347 378 1380 c 0
 328 1411 328 1411 239.3046875 1411 c 0
 150.608398438 1411 150.608398438 1411 28 1364 c 1
 28 1485 l 1
 175.77734375 1520 175.77734375 1520 264 1520 c 0
 408 1520 408 1520 492.5 1461 c 0
 577 1402 577 1402 577 1303 c 0
EndSplineSet
Validated: 524289
EndChar

StartChar: acute
Encoding: 180 180 119
Width: 479
GlyphClass: 2
Flags: HW
LayerCount: 3
Fore
SplineSet
281 1638 m 1
 479 1638 l 1
 154 1262 l 1
 0 1262 l 1
 281 1638 l 1
EndSplineSet
Validated: 1
EndChar

StartChar: mu
Encoding: 181 181 120
Width: 987
GlyphClass: 2
Flags: HW
LayerCount: 3
Fore
SplineSet
698 129 m 1
 606.321289062 -29 606.321289062 -29 429.03125 -29 c 0
 251.741210938 -29 251.741210938 -29 167 127 c 1
 167 -428 l 1
 0 -428 l 1
 0 1120 l 1
 184 1120 l 1
 184 424 l 2
 184 282 184 282 244 206.5 c 0
 304 131 304 131 415 131 c 0
 671 131 671 131 671 467 c 2
 671 1120 l 1
 856 1120 l 1
 856 256 l 2
 856 141 856 141 921 141 c 0
 941 141 941 141 987 164 c 1
 987 16 l 1
 913.200195312 -29 913.200195312 -29 847 -29 c 0
 722.623046875 -29 722.623046875 -29 698 129 c 1
EndSplineSet
Validated: 524289
EndChar

StartChar: paragraph
Encoding: 182 182 121
Width: 924
GlyphClass: 2
Flags: HW
LayerCount: 3
Fore
SplineSet
476 1493 m 2
 924 1493 l 1
 924 -197 l 1
 783 -197 l 1
 783 1370 l 1
 592 1370 l 1
 592 -197 l 1
 451 -197 l 1
 451 649 l 1
 238 665 238 665 118 776 c 0
 0 887 0 887 0 1074 c 0
 0 1261 0 1261 130 1377 c 0
 263 1493 263 1493 476 1493 c 2
EndSplineSet
Validated: 1
EndChar

StartChar: periodcentered
Encoding: 183 183 122
Width: 252
GlyphClass: 2
Flags: HW
LayerCount: 3
Fore
SplineSet
0 864 m 1
 252 864 l 1
 252 559 l 1
 0 559 l 1
 0 864 l 1
EndSplineSet
Validated: 1
EndChar

StartChar: cedilla
Encoding: 184 184 123
Width: 414
GlyphClass: 2
Flags: HW
LayerCount: 3
Fore
SplineSet
275 -178 m 0
 275 -125.713867188 275 -125.713867188 187 0 c 1
 305 0 l 1
 414 -120.678710938 414 -120.678710938 414 -215 c 0
 414 -395 414 -395 176 -395 c 0
 84 -395 84 -395 0 -371 c 1
 0 -240 l 1
 65.6845703125 -272 65.6845703125 -272 156 -272 c 0
 275 -272 275 -272 275 -178 c 0
EndSplineSet
Validated: 524289
EndChar

StartChar: uni00B9
Encoding: 185 185 124
Width: 571
GlyphClass: 2
Flags: HW
LayerCount: 3
Fore
SplineSet
18 778 m 1
 223 778 l 1
 223 1389 l 1
 0 1348 l 1
 0 1464 l 1
 229 1503 l 1
 367 1503 l 1
 367 778 l 1
 571 778 l 1
 571 668 l 1
 18 668 l 1
 18 778 l 1
EndSplineSet
Validated: 1
EndChar

StartChar: ordmasculine
Encoding: 186 186 125
Width: 745
GlyphClass: 2
Flags: HW
LayerCount: 3
Fore
SplineSet
32 592 m 1
 708 592 l 1
 708 469 l 1
 32 469 l 1
 32 592 l 1
372 1520 m 0
 542 1520 542 1520 644 1408 c 0
 745 1295 745 1295 745 1108.5 c 0
 745 922 745 922 644.5 810 c 0
 544 698 544 698 372.5 698 c 0
 201 698 201 698 100.5 810 c 0
 0 922 0 922 0 1109 c 0
 0 1296 0 1296 101 1408 c 0
 202 1520 202 1520 372 1520 c 0
532 894 m 0
 590 973 590 973 590 1110.5 c 0
 590 1248 590 1248 532.5 1325.5 c 0
 475 1403 475 1403 372.5 1403 c 0
 270 1403 270 1403 212.5 1325 c 0
 155 1247 155 1247 155 1107.5 c 0
 155 968 155 968 213 891.5 c 0
 271 815 271 815 371.5 815 c 0
 472 815 472 815 532 894 c 0
EndSplineSet
Validated: 1
EndChar

StartChar: guillemotright
Encoding: 187 187 126
Width: 923
GlyphClass: 2
Flags: HW
LayerCount: 3
Fore
SplineSet
0 1059 m 1
 469 641 l 1
 469 559 l 1
 0 141 l 1
 0 332 l 1
 301 600 l 1
 0 868 l 1
 0 1059 l 1
454 1059 m 1
 923 641 l 1
 923 559 l 1
 454 141 l 1
 454 332 l 1
 755 600 l 1
 454 868 l 1
 454 1059 l 1
EndSplineSet
Validated: 1
EndChar

StartChar: onequarter
Encoding: 188 188 127
Width: 1087
GlyphClass: 2
Flags: HW
LayerCount: 3
Fore
SplineSet
24 504 m 1
 0 612 l 1
 1060 874 l 1
 1087 766 l 1
 24 504 l 1
77 934 m 1
 282 934 l 1
 282 1545 l 1
 59 1504 l 1
 59 1620 l 1
 288 1659 l 1
 426 1659 l 1
 426 934 l 1
 630 934 l 1
 630 824 l 1
 77 824 l 1
 77 934 l 1
812 440 m 1
 538 27 l 1
 812 27 l 1
 812 440 l 1
788 565 m 1
 950 565 l 1
 950 27 l 1
 1066 27 l 1
 1066 -84 l 1
 950 -84 l 1
 950 -270 l 1
 812 -270 l 1
 812 -84 l 1
 425 -84 l 1
 425 37 l 1
 788 565 l 1
EndSplineSet
Validated: 1
EndChar

StartChar: onehalf
Encoding: 189 189 128
Width: 1087
GlyphClass: 2
Flags: HW
LayerCount: 3
Fore
SplineSet
502 526 m 1
 630 582 630 582 759.5 582 c 0
 889 582 889 582 975 515 c 0
 1061 448 1061 448 1061 342 c 0
 1061 284 1061 284 1024 225 c 0
 987 166 987 166 868 49 c 2
 657 -156 l 1
 1067 -156 l 1
 1067 -270 l 1
 496 -270 l 1
 496 -160 l 1
 727 66 l 2
 828 164 828 164 868.5 225.5 c 0
 909 287 909 287 909 342 c 0
 909 397 909 397 859 435 c 0
 809 473 809 473 717.5 473 c 0
 626 473 626 473 502 401 c 1
 502 526 l 1
24 504 m 1
 0 612 l 1
 1060 874 l 1
 1087 766 l 1
 24 504 l 1
77 934 m 1
 282 934 l 1
 282 1545 l 1
 59 1504 l 1
 59 1620 l 1
 288 1659 l 1
 426 1659 l 1
 426 934 l 1
 630 934 l 1
 630 824 l 1
 77 824 l 1
 77 934 l 1
EndSplineSet
Validated: 1
EndChar

StartChar: threequarters
Encoding: 190 190 129
Width: 1087
GlyphClass: 2
Flags: HW
LayerCount: 3
Fore
SplineSet
24 504 m 1
 0 612 l 1
 1060 874 l 1
 1087 766 l 1
 24 504 l 1
649 1459 m 0
 649 1316 649 1316 477 1276 c 1
 570 1255 570 1255 621 1201 c 0
 670 1146 670 1146 670 1067 c 0
 670 944 670 944 575.5 876.5 c 0
 481 809 481 809 303 809 c 0
 196.86328125 809 196.86328125 809 72 850 c 1
 72 971 l 1
 209.799804688 918 209.799804688 918 304.400390625 918 c 0
 399 918 399 918 459 958 c 0
 518 1000 518 1000 518 1067 c 0
 518 1217 518 1217 299 1217 c 2
 233 1217 l 1
 233 1325 l 1
 307 1325 l 2
 498 1325 498 1325 498 1448 c 0
 498 1503 498 1503 450 1536 c 0
 400 1567 400 1567 311.3046875 1567 c 0
 222.608398438 1567 222.608398438 1567 100 1520 c 1
 100 1641 l 1
 241.944335938 1676 241.944335938 1676 360.97265625 1676 c 0
 480 1676 480 1676 564.5 1617 c 0
 649 1558 649 1558 649 1459 c 0
812 440 m 1
 538 27 l 1
 812 27 l 1
 812 440 l 1
788 565 m 1
 950 565 l 1
 950 27 l 1
 1066 27 l 1
 1066 -84 l 1
 950 -84 l 1
 950 -270 l 1
 812 -270 l 1
 812 -84 l 1
 425 -84 l 1
 425 37 l 1
 788 565 l 1
EndSplineSet
Validated: 524289
EndChar

StartChar: divide
Encoding: 247 247 134
Width: 1057
GlyphClass: 2
Flags: HW
LayerCount: 3
Fore
SplineSet
0 727 m 1
 1057 727 l 1
 1057 557 l 1
 0 557 l 1
 0 727 l 1
406 1135 m 1
 651 1135 l 1
 651 889 l 1
 406 889 l 1
 406 1135 l 1
406 395 m 1
 651 395 l 1
 651 150 l 1
 406 150 l 1
 406 395 l 1
EndSplineSet
Validated: 1
EndChar

StartChar: aogonek
Encoding: 261 261 136
Width: 263
VWidth: 0
GlyphClass: 2
Flags: HW
LayerCount: 3
Fore
SplineSet
203.260742188 1250.04003906 m 29,0,-1
 203.260742188 1210.04003906 l 5,1,-1
 183.260742188 1230.04003906 l 5,2,-1
 223.260742188 1230.04003906 l 1029,3,-1
202.260742188 80.0380859375 m 29,0,-1
 202.260742188 40.0380859375 l 5,1,-1
 182.260742188 60.0380859375 l 5,2,-1
 222.260742188 60.0380859375 l 1029,3,-1
257.739257812 1199 m 1
 121.732011435 971.65942029 121.732011435 971.65942029 121.732011435 673.358538122 c 0,0,0
 121.732011435 609.899347652 121.732011435 609.899347652 121.942382812 609.079101562 c 0
 122.739257812 321 122.739257812 321 254.739257812 91 c 1
 253.981790273 90.5498070288 l 1
 262.260742188 77.1537426887 262.260742188 77.1537426887 262.260742188 60.5380859375 c 0
 262.260742188 36.0380859375 262.260742188 36.0380859375 244.760742188 18.0380859375 c 0
 227.260742188 0.0380859375 227.260742188 0.0380859375 202.260742188 0.0380859375 c 0
 177.260742188 0.0380859375 177.260742188 0.0380859375 159.760742188 17.5380859375 c 0
 154.338135414 22.9606927114 154.338135414 22.9606927114 150.595795167 29.1034137112 c 1
 148.739257812 28 l 1
 0.7392578125 285 0.7392578125 285 0.2607421875 611.038085938 c 0
 -0.2607421875 661.970703125 -0.2607421875 661.970703125 0.2607421875 664.038085938 c 0
 0.7392578125 1002 0.7392578125 1002 150.739257812 1261 c 1
 151.556083906 1260.5266989 l 1
 155.480240988 1266.92010734 155.480240988 1266.92010734 161.260742188 1272.54003906 c 0
 179.260742188 1290.04003906 179.260742188 1290.04003906 203.260742188 1290.04003906 c 0
 227.260742188 1290.04003906 227.260742188 1290.04003906 245.260742188 1272.54003906 c 0
 263.260742188 1255.04003906 263.260742188 1255.04003906 263.260742188 1230.54003906 c 0
 263.260742188 1213.99988357 263.260742188 1213.99988357 255.284743827 1200.42224175 c 1
 257.739257812 1199 l 1
EndSplineSet
Validated: 524291
EndChar

StartChar: cacute
Encoding: 263 263 138
Width: 797
VWidth: 0
GlyphClass: 3
Flags: HW
LayerCount: 3
Fore
SplineSet
492 -108 m 1
 409 33 l 1
 614.91796875 171.6796875 614.91796875 171.6796875 614.91796875 443.516601562 c 0,0,0
 614.91796875 495.109375 614.91796875 495.109375 607.5 551.5 c 0
 573 818 573 818 504.5 888 c 0
 406.522460938 985.663085938 406.522460938 985.663085938 324.2265625 985.663085938 c 0,0,0
 275.91015625 985.663085938 275.91015625 985.663085938 233 952 c 0
 197 924 197 924 160 788 c 1
 0 896 l 1
 27 1040 27 1040 144 1110 c 0
 235.334960938 1165.17382812 235.334960938 1165.17382812 323.751953125 1165.17382812 c 0,0,0
 472.505859375 1165.17382812 472.505859375 1165.17382812 613 1009 c 0
 747 859 747 859 789 553 c 0
 797.145507812 494.157226562 797.145507812 494.157226562 797.145507812 438.805664062 c 0,0,0
 797.145507812 100.014648438 797.145507812 100.014648438 492 -108 c 1
EndSplineSet
Validated: 524289
LCarets2: 1 0
EndChar

StartChar: ccaron
Encoding: 269 269 140
Width: 448
VWidth: 3070
GlyphClass: 3
Flags: HW
LayerCount: 3
Fore
SplineSet
388.260742188 19 m 25,0,-1
 388.260742188 59 l 25,1,-1
 408.260742188 39 l 25,2,-1
 368.260742188 39 l 1049,3,-1
388.260742188 24 m 25,0,-1
 388.260742188 64 l 25,1,-1
 408.260742188 44 l 25,2,-1
 368.260742188 44 l 1049,3,-1
387.485351562 760 m 29,0,-1
 387.485351562 720 l 5,1,-1
 367.485351562 740 l 5,2,-1
 407.485351562 740 l 1029,3,-1
387.485351562 80 m 29,0,-1
 387.485351562 40 l 5,1,-1
 367.485351562 60 l 5,2,-1
 407.485351562 60 l 1029,3,-1
327.485351562 60 m 1025
328.260742188 -99 m 1
 281.260742188 -147 281.260742188 -147 234.260742188 -195 c 0
 119.186523438 -310.07421875 119.186523438 -310.07421875 119.186523438 -369.989257812 c 0,0,0
 119.186523438 -483.590820312 119.186523438 -483.590820312 214.260742188 -490 c 0
 218.645507812 -490.26953125 218.645507812 -490.26953125 222.861328125 -490.26953125 c 0,0,0
 328.260742188 -490.26953125 328.260742188 -490.26953125 328.260742188 -322 c 2
 328.260742188 -99 l 1
448.260742188 44 m 1
 448.260742188 39 l 1
 448.260742188 -325 l 2
 448.260742188 -610.013671875 448.260742188 -610.013671875 220.447265625 -610.013671875 c 0,0,0
 218.859375 -610.013671875 218.859375 -610.013671875 217.260742188 -610 c 0
 112.260742188 -609 112.260742188 -609 50.2607421875 -521 c 0
 0 -448.565429688 0 -448.565429688 0 -373.9453125 c 0,0,0
 0 -297.130859375 0 -297.130859375 53.2607421875 -218 c 0
 93.98828125 -156.908203125 93.98828125 -156.908203125 327.485351562 61.3974609375 c 1
 327.485351562 740 l 2
 327.485351562 765 327.485351562 765 345.485351562 782.5 c 0
 363.485351562 800 363.485351562 800 387.485351562 800 c 0
 411.485351562 800 411.485351562 800 429.485351562 782.5 c 0
 447.485351562 765 447.485351562 765 447.485351562 740.5 c 0
 447.485351562 740.25 447.485351562 740.25 447.483398438 740 c 1
 447.485351562 740 l 1
 447.485351562 60.5 l 1
 447.485351562 60 l 1
 447.483398438 60 l 2
 447.473632812 58.693359375 447.473632812 58.693359375 447.4140625 57.40625 c 0
 448.201171875 51.5693359375 448.201171875 51.5693359375 448.256835938 45.0009765625 c 0
 448.258789062 45.0009765625 448.258789062 45.0009765625 448.260742188 45 c 2
 448.260742188 44 l 1
EndSplineSet
Validated: 524291
LCarets2: 1 0
EndChar

StartChar: dcaron
Encoding: 271 271 142
Width: 448
VWidth: 3070
GlyphClass: 3
Flags: HW
LayerCount: 3
Fore
SplineSet
388.260742188 15 m 25,0,-1
 388.260742188 55 l 25,1,-1
 408.260742188 35 l 25,2,-1
 368.260742188 35 l 1049,3,-1
388.260742188 20 m 25,0,-1
 388.260742188 60 l 25,1,-1
 408.260742188 40 l 25,2,-1
 368.260742188 40 l 1049,3,-1
387.485351562 1760 m 29,0,-1
 387.485351562 1720 l 5,1,-1
 367.485351562 1740 l 5,2,-1
 407.485351562 1740 l 1029,3,-1
387.485351562 80 m 29,0,-1
 387.485351562 40 l 5,1,-1
 367.485351562 60 l 5,2,-1
 407.485351562 60 l 1029,3,-1
327.485351562 60 m 1025
328.260742188 -103 m 1
 281.260742188 -151 281.260742188 -151 234.260742188 -199 c 0
 119.186523438 -314.07421875 119.186523438 -314.07421875 119.186523438 -373.989257812 c 0,0,0
 119.186523438 -487.590820312 119.186523438 -487.590820312 214.260742188 -494 c 0
 218.645507812 -494.26953125 218.645507812 -494.26953125 222.861328125 -494.26953125 c 0,0,0
 328.260742188 -494.26953125 328.260742188 -494.26953125 328.260742188 -326 c 2
 328.260742188 -103 l 1
448.260742188 40 m 1
 448.260742188 35 l 1
 448.260742188 -329 l 2
 448.260742188 -614.013671875 448.260742188 -614.013671875 220.447265625 -614.013671875 c 0,0,0
 218.859375 -614.013671875 218.859375 -614.013671875 217.260742188 -614 c 0
 112.260742188 -613 112.260742188 -613 50.2607421875 -525 c 0
 0 -452.565429688 0 -452.565429688 0 -377.9453125 c 0,0,0
 0 -301.130859375 0 -301.130859375 53.2607421875 -222 c 0
 93.9931640625 -160.90234375 93.9931640625 -160.90234375 327.532226562 57.44140625 c 0
 327.485351562 58.7109375 327.485351562 58.7109375 327.485351562 60 c 2
 327.485351562 1740 l 2
 327.485351562 1765 327.485351562 1765 345.485351562 1782.5 c 0
 363.485351562 1800 363.485351562 1800 387.485351562 1800 c 0
 411.485351562 1800 411.485351562 1800 429.485351562 1782.5 c 0
 447.485351562 1765 447.485351562 1765 447.485351562 1740.5 c 0
 447.485351562 1740.25 447.485351562 1740.25 447.483398438 1740 c 1
 447.485351562 1740 l 1
 447.485351562 60.5 l 1
 447.485351562 60 l 1
 447.483398438 60 l 2
 447.463867188 57.3056640625 447.463867188 57.3056640625 447.231445312 54.689453125 c 0
 448.1953125 48.2958984375 448.1953125 48.2958984375 448.256835938 41.0009765625 c 0
 448.258789062 41.0009765625 448.258789062 41.0009765625 448.260742188 41 c 2
 448.260742188 40 l 1
EndSplineSet
Validated: 524291
LCarets2: 1 28
EndChar

StartChar: eogonek
Encoding: 281 281 144
Width: 399
VWidth: 0
GlyphClass: 2
Flags: HW
LayerCount: 3
Fore
SplineSet
358.893554688 86.5859375 m 29,0,-1
 319.045898438 83.1005859375 l 5,1,-1
 337.2265625 104.767578125 l 5,2,-1
 340.712890625 64.9189453125 l 1029,3,-1
79.958984375 62.1826171875 m 29,0,-1
 40.1103515625 58.6962890625 l 5,1,-1
 58.2919921875 80.36328125 l 5,2,-1
 61.7783203125 40.515625 l 1029,3,-1
54.8056640625 120.2109375 m 1025
344.198242188 25.0712890625 m 1
 65.263671875 0.66796875 l 1
 65.263671875 0.669921875 l 1
 41.15625 -1.26171875 41.15625 -1.26171875 21.8984375 14.4404296875 c 0
 2.4423828125 30.3056640625 2.4423828125 30.3056640625 0.2626953125 55.2099609375 c 0
 -1.916015625 80.115234375 -1.916015625 80.115234375 13.9921875 99.0732421875 c 0
 29.900390625 118.032226562 29.900390625 118.032226562 54.8056640625 120.2109375 c 2
 333.73828125 144.615234375 l 1
 333.740234375 144.615234375 l 2
 358.64453125 146.793945312 358.64453125 146.793945312 377.646484375 130.387695312 c 0
 396.649414062 113.981445312 396.649414062 113.981445312 398.741210938 90.072265625 c 0
 400.833007812 66.1640625 400.833007812 66.1640625 384.967773438 46.70703125 c 0
 369.103515625 27.25 369.103515625 27.25 344.696289062 25.115234375 c 0
 344.446289062 25.09375 344.446289062 25.09375 344.198242188 25.0732421875 c 1
 344.198242188 25.0712890625 l 1
EndSplineSet
Validated: 524291
EndChar

StartChar: lslash
Encoding: 322 322 146
Width: 333
GlyphClass: 2
Flags: HW
LayerCount: 3
Fore
SplineSet
201.958984375 128.467773438 m 1
 242.188476562 118.021484375 242.188476562 118.021484375 279.5 83.5 c 0
 333 34 333 34 333 -50 c 0
 333 -92 333 -92 316 -130 c 0
 299 -168 299 -168 278 -185 c 0
 257 -202 257 -202 244 -210 c 0
 206.625 -233 206.625 -233 158.8125 -233 c 0
 111 -233 111 -233 71 -199.5 c 0
 0 -140.037109375 0 -140.037109375 0 -52.0185546875 c 0
 0 36 0 36 53.5 84.5 c 0
 88.03125 115.8046875 88.03125 115.8046875 125.063476562 126.903320312 c 1
 163.225585938 158.774414062 163.225585938 158.774414062 162 160 c 1
 201.958984375 128.467773438 l 1
EndSplineSet
Validated: 524289
EndChar

StartChar: sacute
Encoding: 347 347 150
Width: 464
VWidth: 0
GlyphClass: 3
Flags: HW
LayerCount: 3
Fore
SplineSet
423.844726562 45.4287109375 m 25,0,-1
 383.844726562 45.4287109375 l 25,1,-1
 403.844726562 65.4287109375 l 25,2,-1
 403.844726562 25.4287109375 l 1049,3,-1
77.7822265625 -701.64453125 m 25,0,-1
 49.4970703125 -729.928710938 l 25,1,-1
 49.4970703125 -701.64453125 l 25,2,-1
 77.7822265625 -729.928710938 l 1049,3,-1
300.708007812 1331 m 29,0,-1
 300.708007812 1291 l 5,1,-1
 280.708007812 1311 l 5,2,-1
 320.708007812 1311 l 1029,3,-1
300.708007812 251 m 29,0,-1
 300.708007812 211 l 5,1,-1
 280.708007812 231 l 5,2,-1
 320.708007812 231 l 1029,3,-1
240.708007812 231 m 1025
300.708007812 1160 m 29,0,-1
 300.708007812 1120 l 5,1,-1
 280.708007812 1140 l 5,2,-1
 320.708007812 1140 l 1029,3,-1
300.708007812 80 m 29,0,-1
 300.708007812 40 l 5,1,-1
 280.708007812 60 l 5,2,-1
 320.708007812 60 l 1029,3,-1
240.708007812 60 m 1025
25.0830078125 -669.748046875 m 0
 28.732421875 -666.13671875 28.732421875 -666.13671875 35.3564453125 -659.21875 c 0
 337.33203125 -357.754882812 337.33203125 -357.754882812 343.713867188 18.525390625 c 1
 343.462890625 18.26171875 343.462890625 18.26171875 343.208007812 18 c 0
 325.708007812 0 325.708007812 0 300.708007812 0 c 0
 275.708007812 0 275.708007812 0 258.208007812 17.5 c 0
 240.708007812 35 240.708007812 35 240.708007812 60 c 2
 240.708007812 231 l 1
 240.708007812 1140 l 1
 240.708007812 1311 l 2
 240.708007812 1336 240.708007812 1336 258.708007812 1353.5 c 0
 276.708007812 1371 276.708007812 1371 300.708007812 1371 c 0
 324.708007812 1371 324.708007812 1371 342.708007812 1353.5 c 0
 360.708007812 1336 360.708007812 1336 360.708007812 1311.5 c 0
 360.708007812 1311.25 360.708007812 1311.25 360.706054688 1311 c 1
 360.708007812 1311 l 1
 360.708007812 1140.5 l 1
 360.708007812 1140 l 1
 360.708007812 231.5 l 1
 360.708007812 231 l 1
 360.708007812 92.1826171875 l 1
 375.653320312 105.428710938 375.653320312 105.428710938 403.844726562 105.428710938 c 0
 429.844726562 105.428710938 429.844726562 105.428710938 446.844726562 88.4287109375 c 0
 463.684570312 71.58984375 463.684570312 71.58984375 463.84375 45.4287109375 c 0
 463.844726562 45.4287109375 463.844726562 45.4287109375 463.846679688 45.4287109375 c 2
 463.846679688 32.4287109375 l 2
 462.708984375 -400.677734375 462.708984375 -400.677734375 120.208984375 -744.071289062 c 0
 113.3984375 -751.403320312 113.3984375 -751.403320312 106.06640625 -758.213867188 c 1
 106.057617188 -758.205078125 l 1
 105.5390625 -758.740234375 105.5390625 -758.740234375 105.005859375 -759.2734375 c 0
 84.8525390625 -779.426757812 84.8525390625 -779.426757812 62.9326171875 -778.71875 c 0
 41.0126953125 -778.01171875 41.0126953125 -778.01171875 21.212890625 -758.212890625 c 0
 0 -737 0 -737 0 -715.787109375 c 0,0,0
 0 -694.573242188 0 -694.573242188 21.212890625 -673.360351562 c 0
 23.1181640625 -671.456054688 23.1181640625 -671.456054688 25.0830078125 -669.748046875 c 0
EndSplineSet
Validated: 524291
EndChar

StartChar: scaron
Encoding: 353 353 152
Width: 806
VWidth: 3070
GlyphClass: 3
Flags: HW
LayerCount: 3
Fore
SplineSet
400.598632812 90 m 25,0,-1
 400.598632812 130 l 25,1,-1
 420.598632812 110 l 25,2,-1
 380.598632812 110 l 1049,3,-1
400.598632812 86 m 25,0,-1
 400.598632812 126 l 25,1,-1
 420.598632812 106 l 25,2,-1
 380.598632812 106 l 1049,3,-1
745.58984375 1674 m 29,0,-1
 745.58984375 1634 l 5,1,-1
 725.58984375 1654 l 5,2,-1
 765.58984375 1654 l 1029,3,-1
745.58984375 -6 m 29,0,-1
 745.58984375 -46 l 5,1,-1
 725.58984375 -26 l 5,2,-1
 765.58984375 -26 l 1029,3,-1
685.58984375 -26 m 1025
340.598632812 -43 m 1
 230.598632812 -151 230.598632812 -151 184.598632812 -230 c 0
 127.228515625 -329.479492188 127.228515625 -329.479492188 127.228515625 -431.521484375 c 0,0,0
 127.228515625 -471.563476562 127.228515625 -471.563476562 136.0625 -512 c 0
 156.598632812 -606 156.598632812 -606 226.598632812 -606 c 0
 340.598632812 -606 340.598632812 -606 340.598632812 -456 c 2
 340.598632812 -43 l 1
341.899414062 126.36328125 m 1
 349.430664062 170 349.430664062 170 400.598632812 170 c 1
 451.98046875 170 451.98046875 170 459.361328125 126 c 1
 460.598632812 126 l 1
 460.598632812 110 l 1
 460.598632812 106 l 1
 460.598632812 -456 l 1
 445.34375 -729.651367188 445.34375 -729.651367188 245.986328125 -729.651367188 c 0,0,0
 236.26171875 -729.651367188 236.26171875 -729.651367188 226.098632812 -729 c 0
 86.5986328125 -720 86.5986328125 -720 40.5986328125 -612 c 0
 0 -517.69140625 0 -517.69140625 0 -424.814453125 c 0,0,0
 0 -298.075195312 0 -298.075195312 75.5986328125 -174 c 0
 154.452148438 -44.2421875 154.452148438 -44.2421875 341.899414062 126.36328125 c 1
805.588867188 1654 m 1
 805.58984375 1654 l 1
 805.58984375 -25.5 l 1
 805.58984375 -26 l 1
 805.588867188 -26 l 1
 805.411132812 -50.18359375 805.411132812 -50.18359375 788.08984375 -68 c 0
 770.58984375 -86 770.58984375 -86 745.58984375 -86 c 0
 720.58984375 -86 720.58984375 -86 703.08984375 -68.5 c 0
 685.58984375 -51 685.58984375 -51 685.58984375 -26 c 2
 685.58984375 1654 l 2
 685.58984375 1679 685.58984375 1679 703.58984375 1696.5 c 0
 721.58984375 1714 721.58984375 1714 745.58984375 1714 c 0
 769.58984375 1714 769.58984375 1714 787.58984375 1696.5 c 0
 805.58984375 1679 805.58984375 1679 805.58984375 1654.5 c 0
 805.58984375 1654.25 805.58984375 1654.25 805.588867188 1654 c 1
EndSplineSet
Validated: 524291
LCarets2: 1 210
EndChar

StartChar: zacute
Encoding: 378 378 154
Width: 566
VWidth: 0
GlyphClass: 3
Flags: HW
LayerCount: 3
Fore
SplineSet
100 903 m 1
 100 1101 l 1
 204.283203125 1072.37304688 204.283203125 1072.37304688 283.5 1009 c 0
 365.471679688 943.422851562 365.471679688 943.422851562 401.235351562 898.2109375 c 0
 437 853 437 853 452.5 831 c 0
 468 809 468 809 483.5 784.5 c 0
 499 760 499 760 501 758 c 0
 540 703 540 703 556.5 576 c 0
 565.575195312 506.150390625 565.575195312 506.150390625 565.575195312 432.97265625 c 0,0,0
 565.575195312 373.099609375 565.575195312 373.099609375 559.5 311 c 0
 546 173 546 173 513.5 110.5 c 0
 481 48 481 48 468.5 25 c 0
 456 2 456 2 423.5 -52.5 c 0
 391 -107 391 -107 360 -144.5 c 0
 329 -182 329 -182 285.5 -229.5 c 0
 201.350585938 -321.38671875 201.350585938 -321.38671875 76 -383 c 1
 0 -256 l 1
 188.681640625 -182.16796875 188.681640625 -182.16796875 318.5 55.5 c 0
 351 115 351 115 371 172 c 0
 423.208007812 318.74609375 423.208007812 318.74609375 423.208007812 446.024414062 c 0,0,0
 423.208007812 589.35546875 423.208007812 589.35546875 357 708 c 0
 254 893 254 893 100 903 c 1
EndSplineSet
Validated: 524289
EndChar

StartChar: zcaron
Encoding: 382 382 158
Width: 448
VWidth: 3070
GlyphClass: 2
Flags: HW
LayerCount: 3
Fore
SplineSet
388.260742188 97 m 25,0,-1
 388.260742188 137 l 25,1,-1
 408.260742188 117 l 25,2,-1
 368.260742188 117 l 1049,3,-1
388.260742188 102 m 25,0,-1
 388.260742188 142 l 25,1,-1
 408.260742188 122 l 25,2,-1
 368.260742188 122 l 1049,3,-1
387.485351562 1670 m 29,0,-1
 387.485351562 1630 l 5,1,-1
 367.485351562 1650 l 5,2,-1
 407.485351562 1650 l 1029,3,-1
387.485351562 -10 m 29,0,-1
 387.485351562 -50 l 5,1,-1
 367.485351562 -30 l 5,2,-1
 407.485351562 -30 l 1029,3,-1
327.485351562 -30 m 1025
448.260742188 122 m 1
 448.260742188 117 l 1
 448.260742188 -247 l 2
 448.260742188 -532.013671875 448.260742188 -532.013671875 220.447265625 -532.013671875 c 0,0,0
 218.859375 -532.013671875 218.859375 -532.013671875 217.260742188 -532 c 0
 112.260742188 -531 112.260742188 -531 50.2607421875 -443 c 0
 0 -370.565429688 0 -370.565429688 0 -295.9453125 c 0,0,0
 0 -219.130859375 0 -219.130859375 53.2607421875 -140 c 0
 93.98828125 -78.908203125 93.98828125 -78.908203125 327.485351562 139.397460938 c 1
 327.485351562 1650 l 2
 327.485351562 1675 327.485351562 1675 345.485351562 1692.5 c 0
 363.485351562 1710 363.485351562 1710 387.485351562 1710 c 0
 411.485351562 1710 411.485351562 1710 429.485351562 1692.5 c 0
 447.485351562 1675 447.485351562 1675 447.485351562 1650.5 c 0
 447.485351562 1650.25 447.485351562 1650.25 447.483398438 1650 c 1
 447.485351562 1650 l 1
 447.485351562 134.866210938 l 2
 448.204101562 129.266601562 448.204101562 129.266601562 448.256835938 123.000976562 c 0
 448.258789062 123.000976562 448.258789062 123.000976562 448.260742188 123 c 2
 448.260742188 122 l 1
328.260742188 -40.1923828125 m 2
 327.485351562 -35.2626953125 327.485351562 -35.2626953125 327.485351562 -30 c 2
 327.485351562 -21.7919921875 l 1
 234.260742188 -117 l 2
 119.186523438 -232.07421875 119.186523438 -232.07421875 119.186523438 -291.989257812 c 0,0,0
 119.186523438 -405.590820312 119.186523438 -405.590820312 214.260742188 -412 c 0
 218.645507812 -412.26953125 218.645507812 -412.26953125 222.861328125 -412.26953125 c 0,0,0
 328.260742188 -412.26953125 328.260742188 -412.26953125 328.260742188 -244 c 2
 328.260742188 -40.1923828125 l 2
EndSplineSet
Validated: 524291
LCarets2: 1 548
EndChar

StartChar: uni02B9
Encoding: 697 697 161
Width: 255
GlyphClass: 2
Flags: HW
LayerCount: 3
Fore
SplineSet
0 1140 m 1
 65 1638 l 1
 255 1638 l 1
 145 1140 l 1
 0 1140 l 1
EndSplineSet
Validated: 1
EndChar

StartChar: uni02BB
Encoding: 699 699 162
Width: 350
GlyphClass: 2
Flags: HW
LayerCount: 3
Fore
SplineSet
252 967 m 1
 0 967 l 1
 0 1174 l 1
 196 1556 l 1
 350 1556 l 1
 252 1174 l 1
 252 967 l 1
EndSplineSet
Validated: 1
EndChar

StartChar: afii57929
Encoding: 700 700 163
Width: 350
GlyphClass: 2
Flags: HW
LayerCount: 3
Fore
SplineSet
98 1556 m 1
 350 1556 l 1
 350 1350 l 1
 153 967 l 1
 0 967 l 1
 98 1350 l 1
 98 1556 l 1
EndSplineSet
Validated: 1
EndChar

StartChar: afii64937
Encoding: 701 701 164
Width: 241
GlyphClass: 2
Flags: HW
LayerCount: 3
Fore
SplineSet
0 1475 m 2
 0 1729 l 1
 241 1729 l 1
 241 1475 l 1
 129 1475 l 1
 129 1341 129 1341 241 1341 c 1
 241 1218 l 1
 0 1218 0 1218 0 1475 c 2
EndSplineSet
Validated: 1
EndChar

StartChar: uni02BE
Encoding: 702 702 165
Width: 274
GlyphClass: 2
Flags: HW
LayerCount: 3
Fore
SplineSet
0 1007 m 1
 0 1130 l 1
 64 1130 64 1130 108 1174 c 0
 152 1218 152 1218 152 1281.5 c 0
 152 1345 152 1345 108 1389 c 0
 64 1433 64 1433 0 1433 c 1
 0 1556 l 1
 114 1556 114 1556 194 1476 c 0
 274 1396 274 1396 274 1281.5 c 0
 274 1167 274 1167 194 1087 c 0
 114 1007 114 1007 0 1007 c 1
EndSplineSet
Validated: 1
EndChar

StartChar: uni02BF
Encoding: 703 703 166
Width: 274
GlyphClass: 2
Flags: HW
LayerCount: 3
Fore
SplineSet
274 1007 m 1
 158 1007 158 1007 79 1086.5 c 0
 0 1166 0 1166 0 1281 c 0
 0 1396 0 1396 78 1476 c 0
 158 1556 158 1556 274 1556 c 1
 274 1433 l 1
 210 1433 210 1433 166 1389 c 0
 122 1345 122 1345 122 1281.5 c 0
 122 1218 122 1218 166 1174 c 0
 210 1130 210 1130 274 1130 c 1
 274 1007 l 1
EndSplineSet
Validated: 1
EndChar

StartChar: uni02C0
Encoding: 704 704 167
Width: 533
GlyphClass: 2
Flags: HW
LayerCount: 3
Fore
SplineSet
0 1741 m 1
 97.5 1780 97.5 1780 204 1780 c 0
 377 1780 377 1780 455 1701 c 0
 533 1622 533 1622 533 1523 c 0
 533 1424 533 1424 464 1358 c 0
 395 1292 395 1292 287 1275 c 1
 287 910 l 1
 160 910 l 1
 159 1357 l 1
 199 1357 l 2
 320 1357 320 1357 374 1421 c 0
 410 1463 410 1463 410 1528 c 0
 410 1593 410 1593 374 1629 c 0
 313 1693 313 1693 206.5 1693 c 0
 100 1693 100 1693 0 1645 c 1
 0 1741 l 1
EndSplineSet
Validated: 524289
EndChar

StartChar: uni02C1
Encoding: 705 705 168
Width: 533
GlyphClass: 2
Flags: HW
LayerCount: 3
Fore
SplineSet
533 1645 m 1
 435 1693 435 1693 327.5 1693 c 0
 220 1693 220 1693 159 1629 c 0
 123 1593 123 1593 123 1528 c 0
 123 1463 123 1463 159 1421 c 0
 213 1357 213 1357 334 1357 c 2
 373 1357 l 1
 373 910 l 1
 246 910 l 1
 246 1275 l 1
 138 1292 138 1292 69 1358 c 0
 0 1424 0 1424 0 1523 c 0
 0 1622 0 1622 70 1692 c 0
 155 1780 155 1780 329 1780 c 0
 435.5 1780 435.5 1780 533 1741 c 1
 533 1645 l 1
EndSplineSet
Validated: 524289
EndChar

StartChar: circumflex
Encoding: 710 710 169
Width: 604
GlyphClass: 2
Flags: HW
LayerCount: 3
Fore
SplineSet
257 2428 m 1
 361 2428 l 1
 604 2092 l 1
 500 2032 l 1
 309 2303 l 1
 104 2022 l 1
 0 2082 l 1
 257 2428 l 1
EndSplineSet
Validated: 1
EndChar

StartChar: caron
Encoding: 711 711 170
Width: 639
GlyphClass: 2
Flags: HW
LayerCount: 3
Fore
SplineSet
246 1262 m 1
 0 1638 l 1
 139 1638 l 1
 319 1393 l 1
 500 1638 l 1
 639 1638 l 1
 393 1262 l 1
 246 1262 l 1
EndSplineSet
Validated: 1
EndChar

StartChar: uni02C8
Encoding: 712 712 171
Width: 136
GlyphClass: 2
Flags: HW
LayerCount: 3
Fore
SplineSet
136 1554 m 1
 136 999 l 1
 0 999 l 1
 0 1554 l 1
 136 1554 l 1
EndSplineSet
Validated: 1
EndChar

StartChar: uni02C9
Encoding: 713 713 172
Width: 598
GlyphClass: 2
Flags: HW
LayerCount: 3
Fore
SplineSet
0 1526 m 1
 598 1526 l 1
 598 1378 l 1
 0 1378 l 1
 0 1526 l 1
EndSplineSet
Validated: 1
EndChar

StartChar: uni02CC
Encoding: 716 716 173
Width: 136
GlyphClass: 2
Flags: HW
LayerCount: 3
Fore
SplineSet
136 252 m 1
 136 -303 l 1
 0 -303 l 1
 0 252 l 1
 136 252 l 1
EndSplineSet
Validated: 1
EndChar

StartChar: uni02CD
Encoding: 717 717 174
Width: 598
GlyphClass: 2
Flags: HW
LayerCount: 3
Fore
SplineSet
0 -209 m 1
 598 -209 l 1
 598 -357 l 1
 0 -357 l 1
 0 -209 l 1
EndSplineSet
Validated: 1
EndChar

StartChar: uni02D0
Encoding: 720 720 175
Width: 357
GlyphClass: 2
Flags: HW
LayerCount: 3
Fore
SplineSet
178 330 m 1
 357 0 l 1
 0 0 l 1
 178 330 l 1
178 729 m 1
 0 1059 l 1
 357 1059 l 1
 178 729 l 1
EndSplineSet
Validated: 1
EndChar

StartChar: uni02D1
Encoding: 721 721 176
Width: 357
GlyphClass: 2
Flags: HW
LayerCount: 3
Fore
SplineSet
178 729 m 1
 0 1059 l 1
 357 1059 l 1
 178 729 l 1
EndSplineSet
Validated: 1
EndChar

StartChar: uni02D2
Encoding: 722 722 177
Width: 274
GlyphClass: 2
Flags: HW
LayerCount: 3
Fore
SplineSet
0 510 m 1
 0 633 l 1
 64 633 64 633 108 677 c 0
 152 721 152 721 152 784.5 c 0
 152 848 152 848 108 892 c 0
 64 936 64 936 0 936 c 1
 0 1059 l 1
 114 1059 114 1059 194 979 c 0
 274 899 274 899 274 784.5 c 0
 274 670 274 670 194 590 c 0
 114 510 114 510 0 510 c 1
EndSplineSet
Validated: 1
EndChar

StartChar: uni02D3
Encoding: 723 723 178
Width: 274
GlyphClass: 2
Flags: HW
LayerCount: 3
Fore
SplineSet
274 510 m 1
 158 510 158 510 78 590 c 0
 0 670 0 670 0 785 c 0
 0 900 0 900 79 979.5 c 0
 158 1059 158 1059 274 1059 c 1
 274 936 l 1
 210 936 210 936 166 892 c 0
 122 848 122 848 122 784.5 c 0
 122 721 122 721 166 677 c 0
 210 633 210 633 274 633 c 1
 274 510 l 1
EndSplineSet
Validated: 1
EndChar

StartChar: uni02D6
Encoding: 726 726 179
Width: 598
GlyphClass: 2
Flags: HW
LayerCount: 3
Fore
SplineSet
224 629 m 1
 224 853 l 1
 374 853 l 1
 374 629 l 1
 598 629 l 1
 598 479 l 1
 374 479 l 1
 374 255 l 1
 224 255 l 1
 224 479 l 1
 0 479 l 1
 0 629 l 1
 224 629 l 1
EndSplineSet
Validated: 1
EndChar

StartChar: uni02D7
Encoding: 727 727 180
Width: 450
GlyphClass: 2
Flags: HW
LayerCount: 3
Fore
SplineSet
450 479 m 1
 0 479 l 1
 0 629 l 1
 450 629 l 1
 450 479 l 1
EndSplineSet
Validated: 1
EndChar

StartChar: breve
Encoding: 728 728 181
Width: 627
GlyphClass: 2
Flags: HW
LayerCount: 3
Fore
SplineSet
627 1608 m 1
 604.922851562 1321 604.922851562 1321 313 1321 c 1
 22.0771484375 1321 22.0771484375 1321 0 1608 c 1
 119 1608 l 1
 139 1458 139 1458 310.5 1458 c 0
 482 1458 482 1458 508 1608 c 1
 627 1608 l 1
EndSplineSet
Validated: 524289
EndChar

StartChar: dotaccent
Encoding: 729 729 182
Width: 205
GlyphClass: 2
Flags: HW
LayerCount: 3
Fore
SplineSet
0 1552 m 1
 205 1552 l 1
 205 1348 l 1
 0 1348 l 1
 0 1552 l 1
EndSplineSet
Validated: 1
EndChar

StartChar: ring
Encoding: 730 730 183
Width: 549
GlyphClass: 2
Flags: HW
LayerCount: 3
Fore
SplineSet
382 1416 m 0
 426 1460 426 1460 426 1523.5 c 0
 426 1587 426 1587 382 1631 c 0
 338 1675 338 1675 275 1675 c 0
 212 1675 212 1675 166 1632 c 1
 123 1586 123 1586 123 1522.5 c 0
 123 1459 123 1459 166.5 1415.5 c 0
 210 1372 210 1372 274 1372 c 0
 338 1372 338 1372 382 1416 c 0
80 1718 m 1
 157 1798 157 1798 273.5 1798 c 0
 390 1798 390 1798 469.5 1718.5 c 0
 549 1639 549 1639 549 1524.5 c 0
 549 1410 549 1410 470 1329 c 0
 388 1249 388 1249 273 1249 c 0
 158 1249 158 1249 79 1328.5 c 0
 0 1408 0 1408 0 1524.5 c 0
 0 1641 0 1641 80 1718 c 1
EndSplineSet
Validated: 1
EndChar

StartChar: ogonek
Encoding: 731 731 184
Width: 373
GlyphClass: 2
Flags: HW
LayerCount: 3
Fore
SplineSet
373 -375 m 1
 305.727539062 -395 305.727539062 -395 210.86328125 -395 c 0
 116 -395 116 -395 58 -351 c 0
 0 -307 0 -307 0 -213.73046875 c 0
 0 -120.461914062 0 -120.461914062 108 0 c 1
 227 0 l 1
 139 -120.744140625 139 -120.744140625 139 -180 c 0
 139 -272 139 -272 248 -272 c 0
 309.470703125 -272 309.470703125 -272 373 -242 c 1
 373 -375 l 1
EndSplineSet
Validated: 524289
EndChar

StartChar: tilde
Encoding: 732 732 185
Width: 659
GlyphClass: 2
Flags: HW
LayerCount: 3
Fore
SplineSet
200 1464 m 0
 125.961914062 1464 125.961914062 1464 124 1309 c 1
 0 1309 l 1
 2 1444 2 1444 52.5 1517.5 c 0
 103 1591 103 1591 194 1591 c 0
 264.029296875 1591 264.029296875 1591 334 1530 c 1
 391 1475 l 2
 441.322265625 1439.59082031 441.322265625 1439.59082031 464.38671875 1436 c 1
 530.219726562 1436 530.219726562 1436 534 1591 c 1
 659 1591 l 1
 657 1456 657 1456 606.5 1382.5 c 0
 556 1309 556 1309 465 1309 c 0
 394.970703125 1309 394.970703125 1309 325 1370 c 1
 268 1425 l 2
 224.89453125 1464 224.89453125 1464 200 1464 c 0
EndSplineSet
Validated: 524289
EndChar

StartChar: hungarumlaut
Encoding: 733 733 186
Width: 703
GlyphClass: 2
Flags: HW
LayerCount: 3
Fore
SplineSet
524 1638 m 1
 703 1638 l 1
 455 1262 l 1
 320 1262 l 1
 524 1638 l 1
191 1638 m 1
 361 1638 l 1
 137 1262 l 1
 0 1262 l 1
 191 1638 l 1
EndSplineSet
Validated: 1
EndChar

StartChar: uni02DE
Encoding: 734 734 187
Width: 1234
GlyphClass: 2
Flags: HW
LayerCount: 3
Fore
SplineSet
0 868 m 1
 619 1032 l 1
 803 1032 l 1
 803 884 l 2
 803 732 803 732 841 683 c 0
 879 634 879 634 984 634 c 2
 1234 634 l 1
 1234 478 l 1
 963 478 l 2
 788 478 788 478 703.5 570.5 c 0
 619 663 619 663 619 864 c 1
 1 702 l 1
 0 868 l 1
EndSplineSet
Validated: 1
EndChar

StartChar: uni02E0
Encoding: 736 736 188
Width: 647
GlyphClass: 2
Flags: HW
LayerCount: 3
Fore
SplineSet
323 921 m 1
 186.936523438 751.655273438 186.936523438 751.655273438 186.936523438 601.473632812 c 0,0,0
 186.936523438 598.232421875 186.936523438 598.232421875 187 595 c 0
 189 518 189 518 320 518 c 0
 451.0078125 518 451.0078125 518 451.0078125 597.141601562 c 0,0,0
 451.0078125 735.438476562 451.0078125 735.438476562 323 921 c 1
400 988 m 1
 578 740 578 740 578 559 c 0
 578 430 578 430 324.5 427 c 0
 318.989257812 426.934570312 318.989257812 426.934570312 313.596679688 426.934570312 c 0,0,0
 68.994140625 426.934570312 68.994140625 426.934570312 68.994140625 561.078125 c 0,0,0
 68.994140625 750.328125 68.994140625 750.328125 250 992 c 1
 0 1295 l 1
 136 1295 l 1
 327 1071 l 1
 511 1295 l 1
 647 1295 l 1
 400 988 l 1
EndSplineSet
Validated: 524289
EndChar

StartChar: uni02E1
Encoding: 737 737 189
Width: 550
GlyphClass: 2
Flags: HW
LayerCount: 3
Fore
SplineSet
302 895 m 2
 302 755 302 755 414 755 c 2
 550 755 l 1
 550 668 l 1
 404 668 l 2
 300 668 300 668 243 727.5 c 0
 186 787 186 787 186 895 c 2
 186 1465 l 1
 0 1465 l 1
 0 1546 l 1
 302 1546 l 1
 302 895 l 2
EndSplineSet
Validated: 1
EndChar

StartChar: uni02E2
Encoding: 738 738 190
Width: 539
GlyphClass: 2
Flags: HW
LayerCount: 3
Fore
SplineSet
75 1278 m 0
 146 1327 146 1327 274.388671875 1327 c 0
 402.77734375 1327 402.77734375 1327 501 1293 c 1
 501 1196 l 1
 401 1240 401 1240 290 1240 c 0
 117 1240 117 1240 117 1146 c 0
 117 1109 117 1109 148.5 1089 c 0
 180 1069 180 1069 272 1051 c 2
 312 1043 l 2
 438 1019 438 1019 488.5 976.5 c 0
 539 934 539 934 539 852 c 0
 539 770 539 770 462 719 c 0
 385 668 385 668 260.75 668 c 0
 136.5 668 136.5 668 0 707 c 1
 0 814 l 1
 130 754 130 754 231.5 754 c 0
 420 754 420 754 420 849 c 0
 420 891 420 891 388.5 913 c 0
 357 935 357 935 249 957 c 2
 208 965 l 2
 101 986 101 986 53 1027 c 0
 5 1068 5 1068 5 1148.5 c 0
 5 1229 5 1229 75 1278 c 0
EndSplineSet
Validated: 524289
EndChar

StartChar: uni02E3
Encoding: 739 739 191
Width: 685
GlyphClass: 2
Flags: HW
LayerCount: 3
Fore
SplineSet
671 1295 m 1
 416 990 l 1
 685 668 l 1
 548 668 l 1
 342 914 l 1
 137 668 l 1
 0 668 l 1
 274 996 l 1
 24 1295 l 1
 160 1295 l 1
 348 1072 l 1
 535 1295 l 1
 671 1295 l 1
EndSplineSet
Validated: 1
EndChar

StartChar: uni02E4
Encoding: 740 740 192
Width: 533
GlyphClass: 2
Flags: HW
LayerCount: 3
Fore
SplineSet
533 1403 m 1
 435 1451 435 1451 327.5 1451 c 0
 220 1451 220 1451 159 1387 c 0
 123 1351 123 1351 123 1286 c 0
 123 1221 123 1221 159 1179 c 0
 213 1115 213 1115 334 1115 c 2
 373 1115 l 1
 373 668 l 1
 246 668 l 1
 246 1033 l 1
 138 1050 138 1050 69 1116 c 0
 0 1182 0 1182 0 1281 c 0
 0 1380 0 1380 70 1450 c 0
 155 1538 155 1538 329 1538 c 0
 435.5 1538 435.5 1538 533 1499 c 1
 533 1403 l 1
EndSplineSet
Validated: 524289
EndChar

StartChar: uni02E5
Encoding: 741 741 193
Width: 633
GlyphClass: 2
Flags: HW
LayerCount: 3
Fore
SplineSet
497 0 m 1
 497 1232 l 1
 0 1232 l 1
 0 1368 l 1
 633 1368 l 1
 633 0 l 1
 497 0 l 1
EndSplineSet
Validated: 1
EndChar

StartChar: uni02E6
Encoding: 742 742 194
Width: 633
GlyphClass: 2
Flags: HW
LayerCount: 3
Fore
SplineSet
497 0 m 1
 497 924 l 1
 0 924 l 1
 0 1060 l 1
 497 1060 l 1
 497 1368 l 1
 633 1368 l 1
 633 0 l 1
 497 0 l 1
EndSplineSet
Validated: 1
EndChar

StartChar: uni02E7
Encoding: 743 743 195
Width: 633
GlyphClass: 2
Flags: HW
LayerCount: 3
Fore
SplineSet
497 752 m 1
 497 1368 l 1
 633 1368 l 1
 633 0 l 1
 497 0 l 1
 497 616 l 1
 0 616 l 1
 0 752 l 1
 497 752 l 1
EndSplineSet
Validated: 1
EndChar

StartChar: uni02E8
Encoding: 744 744 196
Width: 633
GlyphClass: 2
Flags: HW
LayerCount: 3
Fore
SplineSet
497 444 m 1
 497 1368 l 1
 633 1368 l 1
 633 0 l 1
 497 0 l 1
 497 308 l 1
 0 308 l 1
 0 444 l 1
 497 444 l 1
EndSplineSet
Validated: 1
EndChar

StartChar: uni02E9
Encoding: 745 745 197
Width: 633
GlyphClass: 2
Flags: HW
LayerCount: 3
Fore
SplineSet
497 136 m 1
 497 1368 l 1
 633 1368 l 1
 633 0 l 1
 0 0 l 1
 0 136 l 1
 497 136 l 1
EndSplineSet
Validated: 1
EndChar

StartChar: uni02EE
Encoding: 750 750 198
Width: 809
GlyphClass: 2
Flags: HW
LayerCount: 3
Fore
SplineSet
98 1556 m 1
 350 1556 l 1
 350 1350 l 1
 154 967 l 1
 0 967 l 1
 98 1350 l 1
 98 1556 l 1
557 1556 m 1
 809 1556 l 1
 809 1350 l 1
 612 967 l 1
 459 967 l 1
 557 1350 l 1
 557 1556 l 1
EndSplineSet
Validated: 1
EndChar

StartChar: uni02F3
Encoding: 755 755 199
Width: 439
GlyphClass: 2
Flags: HW
LayerCount: 3
Fore
SplineSet
133 -369 m 0
 168 -404 168 -404 219.5 -404 c 0
 271 -404 271 -404 306 -369 c 0
 341 -334 341 -334 341 -283 c 0
 341 -232 341 -232 305.5 -196.5 c 0
 270 -161 270 -161 219 -161 c 0
 168 -161 168 -161 133 -196 c 0
 98 -231 98 -231 98 -282.5 c 0
 98 -334 98 -334 133 -369 c 0
439 -282 m 0
 439 -374 439 -374 375.5 -438 c 0
 312 -502 312 -502 219.5 -502 c 0
 127 -502 127 -502 63 -438 c 0
 0 -374 0 -374 0 -282 c 0
 0 -190 0 -190 63 -126 c 0
 127 -63 127 -63 219.5 -63 c 0
 312 -63 312 -63 375.5 -126.5 c 0
 439 -190 439 -190 439 -282 c 0
EndSplineSet
Validated: 1
EndChar

StartChar: gravecomb
Encoding: 768 768 200
Width: 479
GlyphClass: 2
Flags: HW
LayerCount: 3
Fore
SplineSet
198 1638 m 1
 479 1262 l 1
 325 1262 l 1
 0 1638 l 1
 198 1638 l 1
EndSplineSet
Validated: 1
EndChar

StartChar: acutecomb
Encoding: 769 769 201
Width: 479
GlyphClass: 2
Flags: HW
LayerCount: 3
Fore
SplineSet
281 1638 m 1
 479 1638 l 1
 154 1262 l 1
 0 1262 l 1
 281 1638 l 1
EndSplineSet
Validated: 1
EndChar

StartChar: uni0302
Encoding: 770 770 202
Width: 639
GlyphClass: 2
Flags: HW
LayerCount: 3
Fore
SplineSet
246 1638 m 1
 393 1638 l 1
 639 1262 l 1
 500 1262 l 1
 319 1507 l 1
 139 1262 l 1
 0 1262 l 1
 246 1638 l 1
EndSplineSet
Validated: 1
EndChar

StartChar: tildecomb
Encoding: 771 771 203
Width: 659
GlyphClass: 2
Flags: HW
LayerCount: 3
Fore
SplineSet
200 1464 m 0
 125.961914062 1464 125.961914062 1464 124 1309 c 1
 0 1309 l 1
 2 1444 2 1444 52.5 1517.5 c 0
 103 1591 103 1591 194 1591 c 0
 264.029296875 1591 264.029296875 1591 334 1530 c 1
 391 1475 l 2
 441.322265625 1439.59082031 441.322265625 1439.59082031 464.38671875 1436 c 1
 530.219726562 1436 530.219726562 1436 534 1591 c 1
 659 1591 l 1
 657 1456 657 1456 606.5 1382.5 c 0
 556 1309 556 1309 465 1309 c 0
 394.970703125 1309 394.970703125 1309 325 1370 c 1
 268 1425 l 2
 224.89453125 1464 224.89453125 1464 200 1464 c 0
EndSplineSet
Validated: 524289
EndChar

StartChar: uni0304
Encoding: 772 772 204
Width: 598
GlyphClass: 2
Flags: HW
LayerCount: 3
Fore
SplineSet
0 1526 m 1
 598 1526 l 1
 598 1378 l 1
 0 1378 l 1
 0 1526 l 1
EndSplineSet
Validated: 1
EndChar

StartChar: uni0305
Encoding: 773 773 205
Width: 1233
GlyphClass: 2
Flags: HW
LayerCount: 3
Fore
SplineSet
1233 1547 m 1
 1233 1467 l 1
 0 1467 l 1
 0 1547 l 1
 1233 1547 l 1
EndSplineSet
Validated: 1
EndChar

StartChar: uni0306
Encoding: 774 774 206
Width: 627
GlyphClass: 2
Flags: HW
LayerCount: 3
Fore
SplineSet
627 1608 m 1
 604.922851562 1321 604.922851562 1321 313 1321 c 1
 22.0771484375 1321 22.0771484375 1321 0 1608 c 1
 119 1608 l 1
 139 1458 139 1458 310.5 1458 c 0
 482 1458 482 1458 508 1608 c 1
 627 1608 l 1
EndSplineSet
Validated: 524289
EndChar

StartChar: uni0307
Encoding: 775 775 207
Width: 205
GlyphClass: 2
Flags: HW
LayerCount: 3
Fore
SplineSet
0 1552 m 1
 205 1552 l 1
 205 1348 l 1
 0 1348 l 1
 0 1552 l 1
EndSplineSet
Validated: 1
EndChar

StartChar: uni0308
Encoding: 776 776 208
Width: 594
GlyphClass: 2
Flags: HW
LayerCount: 3
Fore
SplineSet
392 1552 m 1
 594 1552 l 1
 594 1350 l 1
 392 1350 l 1
 392 1552 l 1
0 1552 m 1
 203 1552 l 1
 203 1350 l 1
 0 1350 l 1
 0 1552 l 1
EndSplineSet
Validated: 1
EndChar

StartChar: hookabovecomb
Encoding: 777 777 209
Width: 414
GlyphClass: 2
Flags: HW
LayerCount: 3
Fore
SplineSet
176 1734 m 0
 405 1734 405 1734 413 1564 c 0
 414 1561 414 1561 414 1554 c 0
 414 1489 414 1489 386 1454 c 0
 337 1387 337 1387 284 1354 c 1
 284 1266 l 1
 136 1266 l 1
 136 1374 l 1
 203 1396 203 1396 252 1444 c 0
 274 1463 274 1463 274 1517 c 0
 274 1611 274 1611 154 1611 c 0
 66 1611 66 1611 0 1579 c 1
 0 1710 l 1
 86 1734 86 1734 176 1734 c 0
EndSplineSet
Validated: 1
EndChar

StartChar: uni030A
Encoding: 778 778 210
Width: 549
GlyphClass: 2
Flags: HW
LayerCount: 3
Fore
SplineSet
382 1416 m 0
 426 1460 426 1460 426 1523.5 c 0
 426 1587 426 1587 382 1631 c 0
 338 1675 338 1675 275 1675 c 0
 212 1675 212 1675 166 1632 c 1
 123 1586 123 1586 123 1522.5 c 0
 123 1459 123 1459 166.5 1415.5 c 0
 210 1372 210 1372 274 1372 c 0
 338 1372 338 1372 382 1416 c 0
80 1718 m 1
 157 1798 157 1798 273.5 1798 c 0
 390 1798 390 1798 469.5 1718.5 c 0
 549 1639 549 1639 549 1524.5 c 0
 549 1410 549 1410 470 1329 c 0
 388 1249 388 1249 273 1249 c 0
 158 1249 158 1249 79 1328.5 c 0
 0 1408 0 1408 0 1524.5 c 0
 0 1641 0 1641 80 1718 c 1
EndSplineSet
Validated: 1
EndChar

StartChar: uni030B
Encoding: 779 779 211
Width: 703
GlyphClass: 2
Flags: HW
LayerCount: 3
Fore
SplineSet
524 1638 m 1
 703 1638 l 1
 455 1262 l 1
 320 1262 l 1
 524 1638 l 1
191 1638 m 1
 361 1638 l 1
 137 1262 l 1
 0 1262 l 1
 191 1638 l 1
EndSplineSet
Validated: 1
EndChar

StartChar: uni030C
Encoding: 780 780 212
Width: 639
GlyphClass: 2
Flags: HW
LayerCount: 3
Fore
SplineSet
246 1262 m 1
 0 1638 l 1
 139 1638 l 1
 319 1393 l 1
 500 1638 l 1
 639 1638 l 1
 393 1262 l 1
 246 1262 l 1
EndSplineSet
Validated: 1
EndChar

StartChar: uni030D
Encoding: 781 781 213
Width: 136
GlyphClass: 2
Flags: HW
LayerCount: 3
Fore
SplineSet
136 1706 m 1
 136 1262 l 1
 0 1262 l 1
 0 1706 l 1
 136 1706 l 1
EndSplineSet
Validated: 1
EndChar

StartChar: uni030E
Encoding: 782 782 214
Width: 544
GlyphClass: 2
Flags: HW
LayerCount: 3
Fore
SplineSet
136 1706 m 1
 136 1262 l 1
 0 1262 l 1
 0 1706 l 1
 136 1706 l 1
544 1706 m 1
 544 1262 l 1
 408 1262 l 1
 408 1706 l 1
 544 1706 l 1
EndSplineSet
Validated: 1
EndChar

StartChar: uni030F
Encoding: 783 783 215
Width: 702
GlyphClass: 2
Flags: HW
LayerCount: 3
Fore
SplineSet
512 1638 m 1
 702 1262 l 1
 565 1262 l 1
 342 1638 l 1
 512 1638 l 1
178 1638 m 1
 383 1262 l 1
 248 1262 l 1
 0 1638 l 1
 178 1638 l 1
EndSplineSet
Validated: 1
EndChar

StartChar: uni0310
Encoding: 784 784 216
Width: 627
GlyphClass: 2
Flags: HW
LayerCount: 3
Fore
SplineSet
627 1608 m 1
 604.922851562 1321 604.922851562 1321 313 1321 c 1
 22.0771484375 1321 22.0771484375 1321 0 1608 c 1
 119 1608 l 1
 139 1458 139 1458 310.5 1458 c 0
 482 1458 482 1458 508 1608 c 1
 627 1608 l 1
210 1756 m 1
 415 1756 l 1
 415 1552 l 1
 210 1552 l 1
 210 1756 l 1
EndSplineSet
Validated: 524289
EndChar

StartChar: uni0311
Encoding: 785 785 217
Width: 627
GlyphClass: 2
Flags: HW
LayerCount: 3
Fore
SplineSet
508 1321 m 1
 482 1471 482 1471 310.5 1471 c 1
 139 1471 139 1471 119 1321 c 1
 0 1321 l 1
 22.0771484375 1608 22.0771484375 1608 313 1608 c 1
 604.922851562 1608 604.922851562 1608 627 1321 c 1
 508 1321 l 1
EndSplineSet
Validated: 524289
EndChar

StartChar: uni0312
Encoding: 786 786 218
Width: 333
GlyphClass: 2
Flags: HW
LayerCount: 3
Fore
SplineSet
239 967 m 1
 0 967 l 1
 187 1312 l 1
 333 1312 l 1
 239 967 l 1
EndSplineSet
Validated: 1
EndChar

StartChar: uni0313
Encoding: 787 787 219
Width: 241
GlyphClass: 2
Flags: HW
LayerCount: 3
Fore
SplineSet
241 1475 m 2
 241 1218 241 1218 0 1218 c 1
 0 1341 l 1
 2.400390625 1340.93554688 2.400390625 1340.93554688 4.7490234375 1340.93554688 c 0,0,0
 112 1340.93554688 112 1340.93554688 112 1475 c 1
 0 1475 l 1
 0 1729 l 1
 241 1729 l 1
 241 1475 l 2
EndSplineSet
Validated: 524289
EndChar

StartChar: uni0314
Encoding: 788 788 220
Width: 241
GlyphClass: 2
Flags: HW
LayerCount: 3
Fore
SplineSet
0 1475 m 2
 0 1729 l 1
 241 1729 l 1
 241 1475 l 1
 129 1475 l 1
 129 1341 129 1341 241 1341 c 1
 241 1218 l 1
 0 1218 0 1218 0 1475 c 2
EndSplineSet
Validated: 1
EndChar

StartChar: uni0315
Encoding: 789 789 221
Width: 267
GlyphClass: 2
Flags: HW
LayerCount: 3
Fore
SplineSet
69 1638 m 1
 267 1638 l 1
 154 1262 l 1
 0 1262 l 1
 69 1638 l 1
EndSplineSet
Validated: 1
EndChar

StartChar: uni0316
Encoding: 790 790 222
Width: 479
GlyphClass: 2
Flags: HW
LayerCount: 3
Fore
SplineSet
198 -208 m 1
 479 -584 l 1
 325 -584 l 1
 0 -208 l 1
 198 -208 l 1
EndSplineSet
Validated: 1
EndChar

StartChar: uni0317
Encoding: 791 791 223
Width: 479
GlyphClass: 2
Flags: HW
LayerCount: 3
Fore
SplineSet
281 -208 m 1
 479 -208 l 1
 154 -584 l 1
 0 -584 l 1
 281 -208 l 1
EndSplineSet
Validated: 1
EndChar

StartChar: uni0318
Encoding: 792 792 224
Width: 312
GlyphClass: 2
Flags: HW
LayerCount: 3
Fore
SplineSet
176 -454 m 1
 176 -277 l 1
 312 -277 l 1
 312 -767 l 1
 176 -767 l 1
 176 -590 l 1
 0 -590 l 1
 0 -454 l 1
 176 -454 l 1
EndSplineSet
Validated: 1
EndChar

StartChar: uni0319
Encoding: 793 793 225
Width: 312
GlyphClass: 2
Flags: HW
LayerCount: 3
Fore
SplineSet
136 -590 m 1
 136 -767 l 1
 0 -767 l 1
 0 -277 l 1
 136 -277 l 1
 136 -454 l 1
 312 -454 l 1
 312 -590 l 1
 136 -590 l 1
EndSplineSet
Validated: 1
EndChar

StartChar: uni031A
Encoding: 794 794 226
Width: 490
GlyphClass: 2
Flags: HW
LayerCount: 3
Fore
SplineSet
354 1768 m 1
 0 1768 l 1
 0 1904 l 1
 490 1904 l 1
 490 1414 l 1
 354 1414 l 1
 354 1768 l 1
EndSplineSet
Validated: 1
EndChar

StartChar: uni031B
Encoding: 795 795 227
Width: 395
GlyphClass: 2
Flags: HW
LayerCount: 3
Fore
SplineSet
395 1001 m 0
 395 878 395 878 352 821 c 0
 309 764 309 764 214.390625 764 c 0
 119.782226562 764 119.782226562 764 0 872 c 1
 0 991 l 1
 120.744140625 903 120.744140625 903 180 903 c 0
 272 903 272 903 272 1012 c 0
 272 1072.38476562 272 1072.38476562 242 1137 c 1
 375 1137 l 1
 395 1063 395 1063 395 1001 c 0
EndSplineSet
Validated: 524289
EndChar

StartChar: uni031C
Encoding: 796 796 228
Width: 220
GlyphClass: 2
Flags: HW
LayerCount: 3
Fore
SplineSet
220 -404 m 1
 220 -502 l 1
 127 -502 127 -502 63.5 -438 c 0
 0 -374 0 -374 0 -282 c 0
 0 -190 0 -190 63.5 -126.5 c 0
 127 -63 127 -63 220 -63 c 1
 220 -161 l 1
 169 -161 169 -161 133.5 -196.5 c 0
 98 -232 98 -232 98 -283 c 0
 98 -334 98 -334 133 -369 c 0
 168 -404 168 -404 220 -404 c 1
EndSplineSet
Validated: 1
EndChar

StartChar: uni031D
Encoding: 797 797 229
Width: 490
GlyphClass: 2
Flags: HW
LayerCount: 3
Fore
SplineSet
313 -454 m 1
 490 -454 l 1
 490 -590 l 1
 0 -590 l 1
 0 -454 l 1
 177 -454 l 1
 177 -277 l 1
 313 -277 l 1
 313 -454 l 1
EndSplineSet
Validated: 1
EndChar

StartChar: uni031E
Encoding: 798 798 230
Width: 490
GlyphClass: 2
Flags: HW
LayerCount: 3
Fore
SplineSet
177 -413 m 1
 0 -413 l 1
 0 -277 l 1
 490 -277 l 1
 490 -413 l 1
 313 -413 l 1
 313 -590 l 1
 177 -590 l 1
 177 -413 l 1
EndSplineSet
Validated: 1
EndChar

StartChar: uni031F
Encoding: 799 799 231
Width: 490
GlyphClass: 2
Flags: HW
LayerCount: 3
Fore
SplineSet
177 -590 m 1
 0 -590 l 1
 0 -454 l 1
 177 -454 l 1
 177 -277 l 1
 313 -277 l 1
 313 -454 l 1
 490 -454 l 1
 490 -590 l 1
 313 -590 l 1
 313 -767 l 1
 177 -767 l 1
 177 -590 l 1
EndSplineSet
Validated: 1
EndChar

StartChar: uni0320
Encoding: 800 800 232
Width: 490
GlyphClass: 2
Flags: HW
LayerCount: 3
Fore
SplineSet
0 -413 m 1
 0 -277 l 1
 490 -277 l 1
 490 -413 l 1
 0 -413 l 1
EndSplineSet
Validated: 1
EndChar

StartChar: uni0321
Encoding: 801 801 233
Width: 549
GlyphClass: 2
Flags: HW
LayerCount: 3
Fore
SplineSet
185 -270 m 2
 364 -270 364 -270 364 -20 c 2
 364 128 l 1
 549 128 l 1
 549 -20 l 2
 549 -214 549 -214 459.5 -320 c 0
 370 -426 370 -426 205 -426 c 2
 0 -426 l 1
 0 -270 l 1
 185 -270 l 2
EndSplineSet
Validated: 1
EndChar

StartChar: uni0322
Encoding: 802 802 234
Width: 549
GlyphClass: 2
Flags: HW
LayerCount: 3
Fore
SplineSet
185 -20 m 2
 185 -270 185 -270 364 -270 c 2
 549 -270 l 1
 549 -426 l 1
 344 -426 l 2
 179 -426 179 -426 89 -320 c 0
 0 -214 0 -214 0 -20 c 2
 0 128 l 1
 185 128 l 1
 185 -20 l 2
EndSplineSet
Validated: 1
EndChar

StartChar: dotbelowcomb
Encoding: 803 803 235
Width: 205
GlyphClass: 2
Flags: HW
LayerCount: 3
Fore
SplineSet
0 -209 m 1
 205 -209 l 1
 205 -413 l 1
 0 -413 l 1
 0 -209 l 1
EndSplineSet
Validated: 1
EndChar

StartChar: uni0324
Encoding: 804 804 236
Width: 594
GlyphClass: 2
Flags: HW
LayerCount: 3
Fore
SplineSet
392 -210 m 1
 594 -210 l 1
 594 -412 l 1
 392 -412 l 1
 392 -210 l 1
0 -210 m 1
 202 -210 l 1
 202 -412 l 1
 0 -412 l 1
 0 -210 l 1
EndSplineSet
Validated: 1
EndChar

StartChar: uni0325
Encoding: 805 805 237
Width: 439
GlyphClass: 2
Flags: HW
LayerCount: 3
Fore
SplineSet
133 -369 m 0
 168 -404 168 -404 219.5 -404 c 0
 271 -404 271 -404 306 -369 c 0
 341 -334 341 -334 341 -283 c 0
 341 -232 341 -232 305.5 -196.5 c 0
 270 -161 270 -161 219 -161 c 0
 168 -161 168 -161 133 -196 c 0
 98 -231 98 -231 98 -282.5 c 0
 98 -334 98 -334 133 -369 c 0
439 -282 m 0
 439 -374 439 -374 375.5 -438 c 0
 312 -502 312 -502 219.5 -502 c 0
 127 -502 127 -502 63 -438 c 0
 0 -374 0 -374 0 -282 c 0
 0 -190 0 -190 63 -126 c 0
 127 -63 127 -63 219.5 -63 c 0
 312 -63 312 -63 375.5 -126.5 c 0
 439 -190 439 -190 439 -282 c 0
EndSplineSet
Validated: 1
EndChar

StartChar: uni0326
Encoding: 806 806 238
Width: 333
GlyphClass: 2
Flags: HW
LayerCount: 3
Fore
SplineSet
94 -197 m 1
 333 -197 l 1
 146 -542 l 1
 0 -542 l 1
 94 -197 l 1
EndSplineSet
Validated: 1
EndChar

StartChar: uni0327
Encoding: 807 807 239
Width: 414
GlyphClass: 2
Flags: HW
LayerCount: 3
Fore
SplineSet
275 -178 m 0
 275 -125.713867188 275 -125.713867188 187 0 c 1
 305 0 l 1
 414 -120.678710938 414 -120.678710938 414 -215 c 0
 414 -395 414 -395 176 -395 c 0
 84 -395 84 -395 0 -371 c 1
 0 -240 l 1
 65.6845703125 -272 65.6845703125 -272 156 -272 c 0
 275 -272 275 -272 275 -178 c 0
EndSplineSet
Validated: 524289
EndChar

StartChar: uni0328
Encoding: 808 808 240
Width: 373
GlyphClass: 2
Flags: HW
LayerCount: 3
Fore
SplineSet
373 -375 m 1
 305.727539062 -395 305.727539062 -395 210.86328125 -395 c 0
 116 -395 116 -395 58 -351 c 0
 0 -307 0 -307 0 -213.73046875 c 0
 0 -120.461914062 0 -120.461914062 108 0 c 1
 227 0 l 1
 139 -120.744140625 139 -120.744140625 139 -180 c 0
 139 -272 139 -272 248 -272 c 0
 309.470703125 -272 309.470703125 -272 373 -242 c 1
 373 -375 l 1
EndSplineSet
Validated: 524289
EndChar

StartChar: uni0329
Encoding: 809 809 241
Width: 136
GlyphClass: 2
Flags: HW
LayerCount: 3
Fore
SplineSet
136 -209 m 1
 136 -653 l 1
 0 -653 l 1
 0 -209 l 1
 136 -209 l 1
EndSplineSet
Validated: 1
EndChar

StartChar: uni032A
Encoding: 810 810 242
Width: 551
GlyphClass: 2
Flags: HW
LayerCount: 3
Fore
SplineSet
551 -209 m 1
 551 -539 l 1
 414 -539 l 1
 414 -345 l 1
 137 -345 l 1
 137 -539 l 1
 0 -539 l 1
 0 -209 l 1
 551 -209 l 1
EndSplineSet
Validated: 1
EndChar

StartChar: uni032B
Encoding: 811 811 243
Width: 821
GlyphClass: 2
Flags: HW
LayerCount: 3
Fore
SplineSet
410 -373 m 1
 352 -455 352 -455 235 -455 c 0
 16 -455 16 -455 0 -173 c 1
 0 -168 l 1
 118 -168 l 1
 132 -318 132 -318 234 -318 c 0
 336 -318 336 -318 352 -168 c 1
 470 -168 l 1
 480 -316 480 -316 586 -318 c 0
 688 -318 688 -318 703 -168 c 1
 821 -168 l 1
 806 -454 806 -454 586 -455 c 0
 470 -455 470 -455 410 -373 c 1
EndSplineSet
Validated: 1
EndChar

StartChar: uni032C
Encoding: 812 812 244
Width: 639
GlyphClass: 2
Flags: HW
LayerCount: 3
Fore
SplineSet
246 -485 m 1
 0 -109 l 1
 139 -109 l 1
 319 -354 l 1
 500 -109 l 1
 639 -109 l 1
 393 -485 l 1
 246 -485 l 1
EndSplineSet
Validated: 1
EndChar

StartChar: uni032D
Encoding: 813 813 245
Width: 639
GlyphClass: 2
Flags: HW
LayerCount: 3
Fore
SplineSet
246 -109 m 1
 393 -109 l 1
 639 -485 l 1
 500 -485 l 1
 319 -240 l 1
 139 -485 l 1
 0 -485 l 1
 246 -109 l 1
EndSplineSet
Validated: 1
EndChar

StartChar: uni032E
Encoding: 814 814 246
Width: 627
GlyphClass: 2
Flags: HW
LayerCount: 3
Fore
SplineSet
627 -200 m 1
 604.922851562 -487 604.922851562 -487 313 -487 c 1
 22.0771484375 -487 22.0771484375 -487 0 -200 c 1
 119 -200 l 1
 139 -350 139 -350 310.5 -350 c 0
 482 -350 482 -350 508 -200 c 1
 627 -200 l 1
EndSplineSet
Validated: 524289
EndChar

StartChar: uni032F
Encoding: 815 815 247
Width: 627
GlyphClass: 2
Flags: HW
LayerCount: 3
Fore
SplineSet
0 -485 m 1
 22.0771484375 -198 22.0771484375 -198 314 -198 c 1
 604.922851562 -198 604.922851562 -198 627 -485 c 1
 508 -485 l 1
 488 -335 488 -335 316.5 -335 c 0
 145 -335 145 -335 119 -485 c 1
 0 -485 l 1
EndSplineSet
Validated: 524289
EndChar

StartChar: uni0330
Encoding: 816 816 248
Width: 659
GlyphClass: 2
Flags: HW
LayerCount: 3
Fore
SplineSet
200 -330 m 0
 125.961914062 -330 125.961914062 -330 124 -485 c 1
 0 -485 l 1
 2 -350 2 -350 52.5 -276.5 c 0
 103 -203 103 -203 194 -203 c 0
 264.029296875 -203 264.029296875 -203 334 -264 c 1
 391 -319 l 2
 431.772460938 -358 431.772460938 -358 464.38671875 -358 c 0
 530.219726562 -358 530.219726562 -358 534 -203 c 1
 659 -203 l 1
 657 -338 657 -338 606.5 -411.5 c 0
 556 -485 556 -485 465 -485 c 0
 394.970703125 -485 394.970703125 -485 325 -424 c 1
 268 -369 l 2
 224.89453125 -330 224.89453125 -330 200 -330 c 0
EndSplineSet
Validated: 524289
EndChar

StartChar: uni0331
Encoding: 817 817 249
Width: 598
GlyphClass: 2
Flags: HW
LayerCount: 3
Fore
SplineSet
0 -209 m 1
 598 -209 l 1
 598 -357 l 1
 0 -357 l 1
 0 -209 l 1
EndSplineSet
Validated: 1
EndChar

StartChar: uni0332
Encoding: 818 818 250
Width: 1233
GlyphClass: 2
Flags: HW
LayerCount: 3
Fore
SplineSet
1233 -403 m 1
 1233 -483 l 1
 0 -483 l 1
 0 -403 l 1
 1233 -403 l 1
EndSplineSet
Validated: 1
EndChar

StartChar: uni0333
Encoding: 819 819 251
Width: 1233
GlyphClass: 2
Flags: HW
LayerCount: 3
Fore
SplineSet
1233 -163 m 1
 1233 -243 l 1
 0 -243 l 1
 0 -163 l 1
 1233 -163 l 1
1233 -403 m 1
 1233 -483 l 1
 0 -483 l 1
 0 -403 l 1
 1233 -403 l 1
EndSplineSet
Validated: 1
EndChar

StartChar: uni0334
Encoding: 820 820 252
Width: 1057
GlyphClass: 2
Flags: HW
LayerCount: 3
Fore
SplineSet
776 657 m 0
 910.193359375 657 910.193359375 657 1057 780 c 1
 1057 606 l 1
 910.15234375 492 910.15234375 492 760 492 c 0
 667 492 667 492 543.5 549 c 0
 537 552 537 552 531.5 554 c 0
 526 556 526 556 487 573 c 0
 392.94140625 614 392.94140625 614 293 614 c 0
 142.646484375 614 142.646484375 614 0 492 c 1
 0 666 l 1
 148.200195312 780 148.200195312 780 307 780 c 0
 424.200195312 780 424.200195312 780 552.599609375 718.5 c 0
 681 657 681 657 776 657 c 0
EndSplineSet
Validated: 524289
EndChar

StartChar: uni0335
Encoding: 821 821 253
Width: 920
GlyphClass: 2
Flags: HW
LayerCount: 3
Fore
SplineSet
920 616 m 1
 920 452 l 1
 0 452 l 1
 0 616 l 1
 920 616 l 1
EndSplineSet
Validated: 1
EndChar

StartChar: uni0336
Encoding: 822 822 254
Width: 1233
GlyphClass: 2
Flags: HW
LayerCount: 3
Fore
SplineSet
0 452 m 1
 0 616 l 1
 1233 616 l 1
 1233 452 l 1
 0 452 l 1
EndSplineSet
Validated: 1
EndChar

StartChar: uni0337
Encoding: 823 823 255
Width: 1127
GlyphClass: 2
Flags: HW
LayerCount: 3
Fore
SplineSet
92 -96 m 1
 0 -20 l 1
 1034 1212 l 1
 1127 1135 l 1
 92 -96 l 1
EndSplineSet
Validated: 1
EndChar

StartChar: uni0338
Encoding: 824 824 256
Width: 1192
GlyphClass: 2
Flags: HW
LayerCount: 3
Fore
SplineSet
103 -70 m 1
 0 0 l 1
 1092 1559 l 1
 1192 1485 l 1
 103 -70 l 1
EndSplineSet
Validated: 1
EndChar

StartChar: uni0339
Encoding: 825 825 257
Width: 220
GlyphClass: 2
Flags: HW
LayerCount: 3
Fore
SplineSet
0 -404 m 1
 52 -404 52 -404 87 -369 c 0
 122 -334 122 -334 122 -283 c 0
 122 -232 122 -232 86.5 -196.5 c 0
 51 -161 51 -161 0 -161 c 1
 0 -63 l 1
 93 -63 93 -63 156.5 -126.5 c 0
 220 -190 220 -190 220 -282 c 0
 220 -374 220 -374 156.5 -438 c 0
 93 -502 93 -502 0 -502 c 1
 0 -404 l 1
EndSplineSet
Validated: 1
EndChar

StartChar: uni033A
Encoding: 826 826 258
Width: 551
GlyphClass: 2
Flags: HW
LayerCount: 3
Fore
SplineSet
0 -384 m 1
 0 -54 l 1
 137 -54 l 1
 137 -248 l 1
 414 -248 l 1
 414 -54 l 1
 551 -54 l 1
 551 -384 l 1
 0 -384 l 1
EndSplineSet
Validated: 1
EndChar

StartChar: uni033B
Encoding: 827 827 259
Width: 551
GlyphClass: 2
Flags: HW
LayerCount: 3
Fore
SplineSet
414 -623 m 1
 414 -345 l 1
 137 -345 l 1
 137 -623 l 1
 414 -623 l 1
551 -209 m 1
 551 -759 l 1
 0 -759 l 1
 0 -209 l 1
 551 -209 l 1
EndSplineSet
Validated: 1
EndChar

StartChar: uni033C
Encoding: 828 828 260
Width: 821
GlyphClass: 2
Flags: HW
LayerCount: 3
Fore
SplineSet
410 -250 m 1
 470 -168 470 -168 586 -168 c 0
 804 -168 804 -168 821 -450 c 1
 821 -455 l 1
 704 -455 l 1
 690 -305 690 -305 587.5 -305 c 0
 485 -305 485 -305 470 -455 c 1
 352 -455 l 1
 340 -306 340 -306 235 -305 c 0
 133 -305 133 -305 118 -455 c 1
 0 -455 l 1
 15 -169 15 -169 235 -168 c 0
 352 -168 352 -168 410 -250 c 1
EndSplineSet
Validated: 1
EndChar

StartChar: uni033D
Encoding: 829 829 261
Width: 443
GlyphClass: 2
Flags: HW
LayerCount: 3
Fore
SplineSet
221 1353 m 1
 96 1228 l 1
 0 1324 l 1
 125 1449 l 1
 0 1574 l 1
 96 1671 l 1
 221 1545 l 1
 347 1671 l 1
 443 1574 l 1
 318 1449 l 1
 443 1324 l 1
 347 1228 l 1
 221 1353 l 1
EndSplineSet
Validated: 1
EndChar

StartChar: uni033E
Encoding: 830 830 262
Width: 282
GlyphClass: 2
Flags: HW
LayerCount: 3
Fore
SplineSet
0 1328 m 1
 154 1331.7109375 154 1331.7109375 154 1385 c 0
 154 1406.44433594 154 1406.44433594 116 1436 c 2
 60 1479 l 1
 0 1533.70605469 0 1533.70605469 0 1583 c 0
 0 1743.87988281 0 1743.87988281 282 1746 c 1
 282 1636 l 1
 126 1632.24121094 126 1632.24121094 126 1579 c 0
 126 1555.36816406 126 1555.36816406 166 1528 c 2
 220 1485 l 2
 282 1433.62890625 282 1433.62890625 282 1381 c 0
 282 1302 282 1302 208 1260 c 0
 132 1219 132 1219 0 1218 c 1
 0 1328 l 1
EndSplineSet
Validated: 524289
EndChar

StartChar: uni033F
Encoding: 831 831 263
Width: 1233
GlyphClass: 2
Flags: HW
LayerCount: 3
Fore
SplineSet
1233 1307 m 1
 1233 1227 l 1
 0 1227 l 1
 0 1307 l 1
 1233 1307 l 1
1233 1547 m 1
 1233 1467 l 1
 0 1467 l 1
 0 1547 l 1
 1233 1547 l 1
EndSplineSet
Validated: 1
EndChar

StartChar: uni0343
Encoding: 835 835 264
Width: 241
GlyphClass: 2
Flags: HW
LayerCount: 3
Fore
SplineSet
241 1475 m 2
 241 1218 241 1218 0 1218 c 1
 0 1341 l 1
 2.400390625 1340.93554688 2.400390625 1340.93554688 4.7490234375 1340.93554688 c 0,0,0
 112 1340.93554688 112 1340.93554688 112 1475 c 1
 0 1475 l 1
 0 1729 l 1
 241 1729 l 1
 241 1475 l 2
EndSplineSet
Validated: 524289
EndChar

StartChar: uni0358
Encoding: 856 856 265
Width: 205
GlyphClass: 2
Flags: HW
LayerCount: 3
Fore
SplineSet
0 1552 m 1
 205 1552 l 1
 205 1348 l 1
 0 1348 l 1
 0 1552 l 1
EndSplineSet
Validated: 1
EndChar

StartChar: uni0361
Encoding: 865 865 266
Width: 1706
GlyphClass: 2
Flags: HW
LayerCount: 3
Fore
SplineSet
1588 1520 m 1
 1460 1662 1460 1662 1187 1686 c 0
 914 1710 914 1710 853.5 1710 c 0
 793 1710 793 1710 518.5 1686.5 c 0
 244 1663 244 1663 118 1520 c 1
 0 1520 l 1
 0 1760 0 1760 508 1820 c 0
 736 1847 736 1847 852 1847 c 0
 968 1847 968 1847 1198 1820 c 0
 1706 1760 1706 1760 1706 1520 c 1
 1588 1520 l 1
EndSplineSet
Validated: 1
EndChar

StartChar: uni0374
Encoding: 884 884 267
Width: 255
GlyphClass: 2
Flags: HW
LayerCount: 3
Fore
SplineSet
0 1140 m 1
 65 1638 l 1
 255 1638 l 1
 145 1140 l 1
 0 1140 l 1
EndSplineSet
Validated: 1
EndChar

StartChar: uni0375
Encoding: 885 885 268
Width: 255
GlyphClass: 2
Flags: HW
LayerCount: 3
Fore
SplineSet
255 72 m 1
 190 -426 l 1
 0 -426 l 1
 110 72 l 1
 255 72 l 1
EndSplineSet
Validated: 1
EndChar

StartChar: uni037E
Encoding: 894 894 269
Width: 351
GlyphClass: 2
Flags: HW
LayerCount: 3
Fore
SplineSet
86 1063 m 1
 338 1063 l 1
 338 760 l 1
 86 760 l 1
 86 1063 l 1
99 303 m 1
 351 303 l 1
 351 96 l 1
 154 -287 l 1
 0 -287 l 1
 99 96 l 1
 99 303 l 1
EndSplineSet
Validated: 1
EndChar

StartChar: tonos
Encoding: 900 900 270
Width: 479
GlyphClass: 2
Flags: HW
LayerCount: 3
Fore
SplineSet
281 1638 m 1
 479 1638 l 1
 154 1262 l 1
 0 1262 l 1
 281 1638 l 1
EndSplineSet
Validated: 1
EndChar

StartChar: dieresistonos
Encoding: 901 901 271
Width: 635
GlyphClass: 2
Flags: HW
LayerCount: 3
Fore
SplineSet
437 2008 m 1
 635 2008 l 1
 310 1632 l 1
 156 1632 l 1
 437 2008 l 1
392 1552 m 1
 594 1552 l 1
 594 1350 l 1
 392 1350 l 1
 392 1552 l 1
0 1552 m 1
 203 1552 l 1
 203 1350 l 1
 0 1350 l 1
 0 1552 l 1
EndSplineSet
Validated: 1
EndChar

StartChar: anoteleia
Encoding: 903 903 272
Width: 252
GlyphClass: 2
Flags: HW
LayerCount: 3
Fore
SplineSet
0 864 m 1
 252 864 l 1
 252 559 l 1
 0 559 l 1
 0 864 l 1
EndSplineSet
Validated: 1
EndChar

StartChar: uni0609
Encoding: 1545 1545 273
Width: 1053
GlyphClass: 2
Flags: HW
LayerCount: 3
Fore
SplineSet
674 1300 m 1
 834 1300 l 1
 160 0 l 1
 0 0 l 1
 674 1300 l 1
14 1300 m 1
 194 1300 l 1
 194 1050 l 1
 14 1050 l 1
 14 1300 l 1
513 250 m 1
 693 250 l 1
 693 0 l 1
 513 0 l 1
 513 250 l 1
873 250 m 1
 1053 250 l 1
 1053 0 l 1
 873 0 l 1
 873 250 l 1
EndSplineSet
Validated: 1
EndChar

StartChar: uni060A
Encoding: 1546 1546 274
Width: 1233
GlyphClass: 2
Flags: HW
LayerCount: 3
Fore
SplineSet
474 1300 m 1
 634 1300 l 1
 160 0 l 1
 0 0 l 1
 474 1300 l 1
14 1300 m 1
 194 1300 l 1
 194 1050 l 1
 14 1050 l 1
 14 1300 l 1
393 250 m 1
 573 250 l 1
 573 0 l 1
 393 0 l 1
 393 250 l 1
723 250 m 1
 903 250 l 1
 903 0 l 1
 723 0 l 1
 723 250 l 1
1053 250 m 1
 1233 250 l 1
 1233 0 l 1
 1053 0 l 1
 1053 250 l 1
EndSplineSet
Validated: 1
EndChar

StartChar: quoteright
Encoding: 8217 8217 275
Width: 350
GlyphClass: 2
Flags: HW
LayerCount: 3
Fore
SplineSet
98 2756 m 1
 350 2756 l 1
 350 2550 l 1
 154 2167 l 1
 0 2167 l 1
 98 2550 l 1
 98 2756 l 1
EndSplineSet
Validated: 1
EndChar

StartChar: quotesinglbase
Encoding: 8218 8218 276
Width: 350
GlyphClass: 2
Flags: HW
LayerCount: 3
Fore
SplineSet
98 -254 m 1
 350 -254 l 1
 350 -460 l 1
 154 -843 l 1
 0 -843 l 1
 98 -460 l 1
 98 -254 l 1
EndSplineSet
Validated: 1
EndChar

StartChar: quotedblright
Encoding: 8221 8221 277
Width: 809
GlyphClass: 2
Flags: HW
LayerCount: 3
Fore
SplineSet
98 2726 m 1
 350 2726 l 1
 350 2520 l 1
 154 2137 l 1
 0 2137 l 1
 98 2520 l 1
 98 2726 l 1
557 2726 m 1
 809 2726 l 1
 809 2520 l 1
 612 2137 l 1
 459 2137 l 1
 557 2520 l 1
 557 2726 l 1
EndSplineSet
Validated: 1
EndChar

StartChar: quotedblbase
Encoding: 8222 8222 278
Width: 809
GlyphClass: 2
Flags: HW
LayerCount: 3
Fore
SplineSet
98 -244 m 1
 350 -244 l 1
 350 -450 l 1
 154 -833 l 1
 0 -833 l 1
 98 -450 l 1
 98 -244 l 1
557 -244 m 1
 809 -244 l 1
 809 -450 l 1
 612 -833 l 1
 459 -833 l 1
 557 -450 l 1
 557 -244 l 1
EndSplineSet
Validated: 1
EndChar

StartChar: brzuchST.bak
Encoding: 983552 983552 281
Width: 702
VWidth: 0
GlyphClass: 2
Flags: HW
LayerCount: 3
Fore
SplineSet
294 1158 m 1
 415 1310 415 1310 472 1475.5 c 0
 535 1658.42089844 535 1658.42089844 535 1741.7109375 c 0
 535 1825 535 1825 509 1895 c 0
 483 1965 483 1965 434.5 2018.5 c 0
 386 2072 386 2072 332 2072 c 0
 314 2072 314 2072 296 2066 c 0
 234 2043 234 2043 212 1988 c 0
 190 1933 190 1933 190 1847.5 c 0
 190 1762 190 1762 201 1596 c 0
 212 1430 212 1430 234.5 1339 c 0
 257 1248 257 1248 294 1158 c 1
413.5 1078 m 0
 365 1017 365 1017 350 995 c 0
 335 973 335 973 326 960.5 c 0
 317 948 317 948 304.5 934 c 0
 292 920 292 920 281.5 918 c 0
 271 916 271 916 257 919 c 0
 233.047851562 924.1328125 233.047851562 924.1328125 191 983 c 0
 53 1186 53 1186 16 1610 c 0
 0 1781 0 1781 0 1874.5 c 0
 0 1968 0 1968 47 2071 c 0
 137.805664062 2270 137.805664062 2270 312 2270 c 0
 425.626953125 2270 425.626953125 2270 522 2200.5 c 0
 702 2070.69238281 702 2070.69238281 702 1779 c 0
 702 1557.65917969 702 1557.65917969 613 1382.5 c 0
 537.569335938 1234.04589844 537.569335938 1234.04589844 413.5 1078 c 0
EndSplineSet
Validated: 524289
EndChar

StartChar: poczPUA
Encoding: 57344 57344 282
Width: 1746
VWidth: 3000
GlyphClass: 2
Flags: HW
LayerCount: 3
Fore
SplineSet
1681.44921875 487.149414062 m 1
 1746.1953125 449.795898438 l 1
 1566.55078125 155.182617188 l 1
 1510.92480469 -102.619140625 1510.92480469 -102.619140625 1355.49902344 -102.619140625 c 0,0,0
 1354.04980469 -102.619140625 1354.04980469 -102.619140625 1352.59179688 -102.596679688 c 0
 1335.15820312 -102.331054688 1335.15820312 -102.331054688 1320.36035156 -98.87890625 c 1
 1289.35253906 -116.366210938 1289.35253906 -116.366210938 1250.4921875 -116.366210938 c 0
 1249.80761719 -116.369140625 1249.80761719 -116.369140625 1249.12695312 -116.369140625 c 0,0,0
 1121 -116.369140625 1121 -116.369140625 1121 -6.6494140625 c 2
 1121 22.2080078125 l 1
 1121 44.9130859375 l 1
 1121 390.030273438 l 1
 1121 487.149414062 l 1
 1121.30273438 487.149414062 l 1
 1122.7578125 953.409179688 l 1
 1122.7578125 953.995117188 l 2
 1122.171875 1123.77050781 1122.171875 1123.77050781 1262.2109375 1123.77050781 c 0
 1401.8125 1123.77050781 1401.8125 1123.77050781 1401.8125 951.7734375 c 0,0,0
 1401.8125 700.995117188 1401.8125 700.995117188 1224.7109375 405.947265625 c 1
 1224.7109375 22.2080078125 l 1
 1222.953125 22.2080078125 l 1
 1222.953125 14.4443359375 l 2
 1222.953125 -11.365234375 1222.953125 -11.365234375 1242.86328125 -14.9921875 c 1
 1237.30859375 9.2607421875 1237.30859375 9.2607421875 1237.30859375 40.2255859375 c 1
 1327.39648438 40.2255859375 l 1
 1327.39648438 36.291015625 1327.39648438 36.291015625 1327.50878906 32.603515625 c 2
 1385.51171875 1.908203125 l 1
 1481.44238281 159.203125 l 1
 1506.41992188 282.115234375 1506.41992188 282.115234375 1507.42578125 488.321289062 c 1
 1597.3671875 488.321289062 l 1
 1596.48242188 408.549804688 1596.48242188 408.549804688 1591.4296875 339.546875 c 1
 1681.44921875 487.149414062 l 1
1224.7109375 600.528320312 m 1
 1309.37890625 809.415039062 1309.37890625 809.415039062 1309.96484375 949.161132812 c 0
 1309.96484375 1015.22558594 1309.96484375 1015.22558594 1262.50390625 1015.22558594 c 0
 1224.70214844 1015.22558594 1224.70214844 1015.22558594 1224.70214844 951.1328125 c 2,0,0
 1225.95605469 775.577148438 l 2,0,0
 1225.95605469 688.418945312 1225.95605469 688.418945312 1224.7109375 600.528320312 c 1
490.13671875 487.149414062 m 1
 564.55078125 470.450195312 l 1
 525.5859375 244.717773438 525.5859375 244.717773438 477.5390625 171.622070312 c 0
 397.952148438 50.8466796875 397.952148438 50.8466796875 273.115234375 -10.6435546875 c 1
 225.04296875 -116.366210938 225.04296875 -116.366210938 129.4921875 -116.366210938 c 0
 128.807617188 -116.369140625 128.807617188 -116.369140625 128.126953125 -116.369140625 c 0,0,0
 0 -116.369140625 0 -116.369140625 0 -6.6494140625 c 2
 0 22.2080078125 l 1
 0 44.9130859375 l 1
 0 390.030273438 l 1
 0 487.149414062 l 1
 0.302734375 487.149414062 l 1
 1.7578125 953.409179688 l 1
 1.7578125 953.995117188 l 2
 1.171875 1123.77050781 1.171875 1123.77050781 141.2109375 1123.77050781 c 0
 280.8125 1123.77050781 280.8125 1123.77050781 280.8125 951.7734375 c 0,0,0
 280.8125 700.995117188 280.8125 700.995117188 103.7109375 405.947265625 c 1
 103.7109375 22.2080078125 l 1
 101.953125 22.2080078125 l 1
 101.953125 14.4443359375 l 2
 101.953125 -15.5849609375 101.953125 -15.5849609375 128.90625 -15.5849609375 c 0
 152.975585938 -15.5849609375 152.975585938 -15.5849609375 169.067382812 -1.7265625 c 1
 156.591796875 22.2080078125 l 1
 174.530273438 27.6630859375 174.530273438 27.6630859375 191.404296875 33.9541015625 c 0
 192.353515625 36.7197265625 192.353515625 36.7197265625 193.212890625 39.6396484375 c 1
 198.704101562 36.7333984375 l 1
 330.366210938 87.9384765625 330.366210938 87.9384765625 395.361328125 191.397460938 c 0
 470.361328125 310.782226562 470.361328125 310.782226562 490.13671875 487.149414062 c 1
103.7109375 600.528320312 m 1
 188.37890625 809.415039062 188.37890625 809.415039062 188.96484375 949.161132812 c 0
 188.96484375 1015.22558594 188.96484375 1015.22558594 141.50390625 1015.22558594 c 0
 103.702148438 1015.22558594 103.702148438 1015.22558594 103.702148438 951.1328125 c 2,0,0
 104.956054688 775.577148438 l 2,0,0
 104.956054688 688.418945312 104.956054688 688.418945312 103.7109375 600.528320312 c 1
EndSplineSet
Validated: 524321
EndChar

StartChar: ellipsis
Encoding: 8230 8230 283
Width: 3000
VWidth: 3000
Flags: H
LayerCount: 3
Fore
SplineSet
62.1845703125 -121.094726562 m 5,0,-1
 -277.93359375 -461.213867188 l 1,1,2
 -320.360351562 -418.787109375 -320.360351562 -418.787109375 -362.787109375 -376.360351562 c 1,5,-1
 -22.66796875 -36.2421875 l 5,6,7
 19.7578125 -78.6689453125 19.7578125 -78.6689453125 62.1845703125 -121.094726562 c 5,0,-1
-362.787109375 -376.360351562 m 1025
-362.787109375 -376.360351562 m 132,-1,0
 -345.109375 -358.682617188 -345.109375 -358.682617188 -320.360351562 -359.389648438 c 4,1,2
 -294.904296875 -359.389648438 -294.904296875 -359.389648438 -277.93359375 -376.360351562 c 132,-1,3
 -260.963867188 -393.331054688 -260.963867188 -393.331054688 -260.610351562 -418.43359375 c 132,-1,4
 -260.256835938 -443.536132812 -260.256835938 -443.536132812 -277.580078125 -460.860351562 c 132,-1,5
 -294.904296875 -478.18359375 -294.904296875 -478.18359375 -320.006835938 -478.537109375 c 132,-1,6
 -345.109375 -478.890625 -345.109375 -478.890625 -362.787109375 -461.213867188 c 132,-1,7
 -380.46484375 -443.536132812 -380.46484375 -443.536132812 -379.7578125 -418.787109375 c 4,8,9
 -380.46484375 -394.038085938 -380.46484375 -394.038085938 -362.787109375 -376.360351562 c 132,-1,0
-306.21875 -404.64453125 m 29,0,-1
 -334.502929688 -432.928710938 l 5,1,-1
 -334.502929688 -404.64453125 l 5,2,-1
 -306.21875 -432.928710938 l 1029,3,-1
-22.66796875 -36.2421875 m 132,-1,0
 -4.9912109375 -18.564453125 -4.9912109375 -18.564453125 19.7578125 -19.271484375 c 4,1,2
 45.2138671875 -19.271484375 45.2138671875 -19.271484375 62.1845703125 -36.2421875 c 132,-1,3
 79.1552734375 -53.212890625 79.1552734375 -53.212890625 79.5087890625 -78.3154296875 c 132,-1,4
 79.8623046875 -103.416992188 79.8623046875 -103.416992188 62.5380859375 -120.741210938 c 132,-1,5
 45.2138671875 -138.065429688 45.2138671875 -138.065429688 20.111328125 -138.418945312 c 132,-1,6
 -4.9912109375 -138.772460938 -4.9912109375 -138.772460938 -22.66796875 -121.094726562 c 132,-1,7
 -40.345703125 -103.416992188 -40.345703125 -103.416992188 -39.638671875 -78.6689453125 c 4,8,9
 -40.345703125 -53.919921875 -40.345703125 -53.919921875 -22.66796875 -36.2421875 c 132,-1,0
33.900390625 -64.5263671875 m 29,0,-1
 5.6162109375 -92.810546875 l 5,1,-1
 5.6162109375 -64.5263671875 l 5,2,-1
 33.900390625 -92.810546875 l 1029,3,-1
-20.890625 -390.825195312 m 5,0,-1
 -361.008789062 -50.70703125 l 1,1,2
 -318.58203125 -8.2802734375 -318.58203125 -8.2802734375 -276.15625 34.146484375 c 1,5,-1
 63.962890625 -305.97265625 l 5,6,7
 21.5361328125 -348.3984375 21.5361328125 -348.3984375 -20.890625 -390.825195312 c 5,0,-1
-276.15625 34.146484375 m 1025
-276.15625 34.146484375 m 132,-1,0
 -258.478515625 16.46875 -258.478515625 16.46875 -259.185546875 -8.2802734375 c 4,1,2
 -259.185546875 -33.736328125 -259.185546875 -33.736328125 -276.15625 -50.70703125 c 132,-1,3
 -293.125976562 -67.677734375 -293.125976562 -67.677734375 -318.228515625 -68.03125 c 132,-1,4
 -343.331054688 -68.384765625 -343.331054688 -68.384765625 -360.655273438 -51.060546875 c 132,-1,5
 -377.979492188 -33.736328125 -377.979492188 -33.736328125 -378.333007812 -8.6337890625 c 132,-1,6
 -378.686523438 16.46875 -378.686523438 16.46875 -361.008789062 34.146484375 c 132,-1,7
 -343.331054688 51.82421875 -343.331054688 51.82421875 -318.58203125 51.1162109375 c 4,8,9
 -293.833984375 51.82421875 -293.833984375 51.82421875 -276.15625 34.146484375 c 132,-1,0
-304.440429688 -22.4228515625 m 29,0,-1
 -332.724609375 5.861328125 l 5,1,-1
 -304.440429688 5.861328125 l 5,2,-1
 -332.724609375 -22.4228515625 l 1029,3,-1
63.962890625 -305.97265625 m 132,-1,0
 81.640625 -323.650390625 81.640625 -323.650390625 80.93359375 -348.3984375 c 4,1,2
 80.93359375 -373.854492188 80.93359375 -373.854492188 63.962890625 -390.825195312 c 132,-1,3
 46.9921875 -407.795898438 46.9921875 -407.795898438 21.8896484375 -408.149414062 c 132,-1,4
 -3.212890625 -408.502929688 -3.212890625 -408.502929688 -20.537109375 -391.178710938 c 132,-1,5
 -37.8603515625 -373.854492188 -37.8603515625 -373.854492188 -38.21484375 -348.751953125 c 132,-1,6
 -38.568359375 -323.650390625 -38.568359375 -323.650390625 -20.890625 -305.97265625 c 132,-1,7
 -3.212890625 -288.294921875 -3.212890625 -288.294921875 21.5361328125 -289.001953125 c 4,8,9
 46.28515625 -288.294921875 46.28515625 -288.294921875 63.962890625 -305.97265625 c 132,-1,0
35.6787109375 -362.541015625 m 29,0,-1
 7.3935546875 -334.256835938 l 5,1,-1
 35.6787109375 -334.256835938 l 5,2,-1
 7.3935546875 -362.541015625 l 1029,3,-1
760.184570312 -116.094726562 m 5,0,-1
 420.06640625 -456.213867188 l 1,1,2
 377.639648438 -413.787109375 377.639648438 -413.787109375 335.212890625 -371.360351562 c 1,5,-1
 675.33203125 -31.2421875 l 5,6,7
 717.7578125 -73.6689453125 717.7578125 -73.6689453125 760.184570312 -116.094726562 c 5,0,-1
335.212890625 -371.360351562 m 1025
335.212890625 -371.360351562 m 132,-1,0
 352.890625 -353.682617188 352.890625 -353.682617188 377.639648438 -354.389648438 c 4,1,2
 403.095703125 -354.389648438 403.095703125 -354.389648438 420.06640625 -371.360351562 c 132,-1,3
 437.036132812 -388.331054688 437.036132812 -388.331054688 437.389648438 -413.43359375 c 132,-1,4
 437.743164062 -438.536132812 437.743164062 -438.536132812 420.419921875 -455.860351562 c 132,-1,5
 403.095703125 -473.18359375 403.095703125 -473.18359375 377.993164062 -473.537109375 c 132,-1,6
 352.890625 -473.890625 352.890625 -473.890625 335.212890625 -456.213867188 c 132,-1,7
 317.53515625 -438.536132812 317.53515625 -438.536132812 318.2421875 -413.787109375 c 4,8,9
 317.53515625 -389.038085938 317.53515625 -389.038085938 335.212890625 -371.360351562 c 132,-1,0
391.78125 -399.64453125 m 29,0,-1
 363.497070312 -427.928710938 l 5,1,-1
 363.497070312 -399.64453125 l 5,2,-1
 391.78125 -427.928710938 l 1029,3,-1
675.33203125 -31.2421875 m 132,-1,0
 693.008789062 -13.564453125 693.008789062 -13.564453125 717.7578125 -14.271484375 c 4,1,2
 743.213867188 -14.271484375 743.213867188 -14.271484375 760.184570312 -31.2421875 c 132,-1,3
 777.155273438 -48.212890625 777.155273438 -48.212890625 777.508789062 -73.3154296875 c 132,-1,4
 777.862304688 -98.4169921875 777.862304688 -98.4169921875 760.538085938 -115.741210938 c 132,-1,5
 743.213867188 -133.065429688 743.213867188 -133.065429688 718.111328125 -133.418945312 c 132,-1,6
 693.008789062 -133.772460938 693.008789062 -133.772460938 675.33203125 -116.094726562 c 132,-1,7
 657.654296875 -98.4169921875 657.654296875 -98.4169921875 658.361328125 -73.6689453125 c 4,8,9
 657.654296875 -48.919921875 657.654296875 -48.919921875 675.33203125 -31.2421875 c 132,-1,0
731.900390625 -59.5263671875 m 29,0,-1
 703.616210938 -87.810546875 l 5,1,-1
 703.616210938 -59.5263671875 l 5,2,-1
 731.900390625 -87.810546875 l 1029,3,-1
677.109375 -385.825195312 m 5,0,-1
 336.991210938 -45.70703125 l 1,1,2
 379.41796875 -3.2802734375 379.41796875 -3.2802734375 421.84375 39.146484375 c 1,5,-1
 761.962890625 -300.97265625 l 5,6,7
 719.536132812 -343.3984375 719.536132812 -343.3984375 677.109375 -385.825195312 c 5,0,-1
421.84375 39.146484375 m 1025
421.84375 39.146484375 m 132,-1,0
 439.521484375 21.46875 439.521484375 21.46875 438.814453125 -3.2802734375 c 4,1,2
 438.814453125 -28.736328125 438.814453125 -28.736328125 421.84375 -45.70703125 c 132,-1,3
 404.874023438 -62.677734375 404.874023438 -62.677734375 379.771484375 -63.03125 c 132,-1,4
 354.668945312 -63.384765625 354.668945312 -63.384765625 337.344726562 -46.060546875 c 132,-1,5
 320.020507812 -28.736328125 320.020507812 -28.736328125 319.666992188 -3.6337890625 c 132,-1,6
 319.313476562 21.46875 319.313476562 21.46875 336.991210938 39.146484375 c 132,-1,7
 354.668945312 56.82421875 354.668945312 56.82421875 379.41796875 56.1162109375 c 4,8,9
 404.166015625 56.82421875 404.166015625 56.82421875 421.84375 39.146484375 c 132,-1,0
393.559570312 -17.4228515625 m 29,0,-1
 365.275390625 10.861328125 l 5,1,-1
 393.559570312 10.861328125 l 5,2,-1
 365.275390625 -17.4228515625 l 1029,3,-1
761.962890625 -300.97265625 m 132,-1,0
 779.640625 -318.650390625 779.640625 -318.650390625 778.93359375 -343.3984375 c 4,1,2
 778.93359375 -368.854492188 778.93359375 -368.854492188 761.962890625 -385.825195312 c 132,-1,3
 744.9921875 -402.795898438 744.9921875 -402.795898438 719.889648438 -403.149414062 c 132,-1,4
 694.787109375 -403.502929688 694.787109375 -403.502929688 677.462890625 -386.178710938 c 132,-1,5
 660.139648438 -368.854492188 660.139648438 -368.854492188 659.78515625 -343.751953125 c 132,-1,6
 659.431640625 -318.650390625 659.431640625 -318.650390625 677.109375 -300.97265625 c 132,-1,7
 694.787109375 -283.294921875 694.787109375 -283.294921875 719.536132812 -284.001953125 c 4,8,9
 744.28515625 -283.294921875 744.28515625 -283.294921875 761.962890625 -300.97265625 c 132,-1,0
733.678710938 -357.541015625 m 29,0,-1
 705.393554688 -329.256835938 l 5,1,-1
 733.678710938 -329.256835938 l 5,2,-1
 705.393554688 -357.541015625 l 1029,3,-1
1406.18457031 -126.094726562 m 5,0,-1
 1066.06640625 -466.213867188 l 1,1,2
 1023.63964844 -423.787109375 1023.63964844 -423.787109375 981.212890625 -381.360351562 c 1,5,-1
 1321.33203125 -41.2421875 l 5,6,7
 1363.7578125 -83.6689453125 1363.7578125 -83.6689453125 1406.18457031 -126.094726562 c 5,0,-1
981.212890625 -381.360351562 m 1025
981.212890625 -381.360351562 m 132,-1,0
 998.890625 -363.682617188 998.890625 -363.682617188 1023.63964844 -364.389648438 c 4,1,2
 1049.09570312 -364.389648438 1049.09570312 -364.389648438 1066.06640625 -381.360351562 c 132,-1,3
 1083.03613281 -398.331054688 1083.03613281 -398.331054688 1083.38964844 -423.43359375 c 132,-1,4
 1083.74316406 -448.536132812 1083.74316406 -448.536132812 1066.41992188 -465.860351562 c 132,-1,5
 1049.09570312 -483.18359375 1049.09570312 -483.18359375 1023.99316406 -483.537109375 c 132,-1,6
 998.890625 -483.890625 998.890625 -483.890625 981.212890625 -466.213867188 c 132,-1,7
 963.53515625 -448.536132812 963.53515625 -448.536132812 964.2421875 -423.787109375 c 4,8,9
 963.53515625 -399.038085938 963.53515625 -399.038085938 981.212890625 -381.360351562 c 132,-1,0
1037.78125 -409.64453125 m 29,0,-1
 1009.49707031 -437.928710938 l 5,1,-1
 1009.49707031 -409.64453125 l 5,2,-1
 1037.78125 -437.928710938 l 1029,3,-1
1321.33203125 -41.2421875 m 132,-1,0
 1339.00878906 -23.564453125 1339.00878906 -23.564453125 1363.7578125 -24.271484375 c 4,1,2
 1389.21386719 -24.271484375 1389.21386719 -24.271484375 1406.18457031 -41.2421875 c 132,-1,3
 1423.15527344 -58.212890625 1423.15527344 -58.212890625 1423.50878906 -83.3154296875 c 132,-1,4
 1423.86230469 -108.416992188 1423.86230469 -108.416992188 1406.53808594 -125.741210938 c 132,-1,5
 1389.21386719 -143.065429688 1389.21386719 -143.065429688 1364.11132812 -143.418945312 c 132,-1,6
 1339.00878906 -143.772460938 1339.00878906 -143.772460938 1321.33203125 -126.094726562 c 132,-1,7
 1303.65429688 -108.416992188 1303.65429688 -108.416992188 1304.36132812 -83.6689453125 c 4,8,9
 1303.65429688 -58.919921875 1303.65429688 -58.919921875 1321.33203125 -41.2421875 c 132,-1,0
1377.90039062 -69.5263671875 m 29,0,-1
 1349.61621094 -97.810546875 l 5,1,-1
 1349.61621094 -69.5263671875 l 5,2,-1
 1377.90039062 -97.810546875 l 1029,3,-1
1323.109375 -395.825195312 m 5,0,-1
 982.991210938 -55.70703125 l 1,1,2
 1025.41796875 -13.2802734375 1025.41796875 -13.2802734375 1067.84375 29.146484375 c 1,5,-1
 1407.96289062 -310.97265625 l 5,6,7
 1365.53613281 -353.3984375 1365.53613281 -353.3984375 1323.109375 -395.825195312 c 5,0,-1
1067.84375 29.146484375 m 1025
1067.84375 29.146484375 m 132,-1,0
 1085.52148438 11.46875 1085.52148438 11.46875 1084.81445312 -13.2802734375 c 4,1,2
 1084.81445312 -38.736328125 1084.81445312 -38.736328125 1067.84375 -55.70703125 c 132,-1,3
 1050.87402344 -72.677734375 1050.87402344 -72.677734375 1025.77148438 -73.03125 c 132,-1,4
 1000.66894531 -73.384765625 1000.66894531 -73.384765625 983.344726562 -56.060546875 c 132,-1,5
 966.020507812 -38.736328125 966.020507812 -38.736328125 965.666992188 -13.6337890625 c 132,-1,6
 965.313476562 11.46875 965.313476562 11.46875 982.991210938 29.146484375 c 132,-1,7
 1000.66894531 46.82421875 1000.66894531 46.82421875 1025.41796875 46.1162109375 c 4,8,9
 1050.16601562 46.82421875 1050.16601562 46.82421875 1067.84375 29.146484375 c 132,-1,0
1039.55957031 -27.4228515625 m 29,0,-1
 1011.27539062 0.861328125 l 5,1,-1
 1039.55957031 0.861328125 l 5,2,-1
 1011.27539062 -27.4228515625 l 1029,3,-1
1407.96289062 -310.97265625 m 132,-1,0
 1425.640625 -328.650390625 1425.640625 -328.650390625 1424.93359375 -353.3984375 c 4,1,2
 1424.93359375 -378.854492188 1424.93359375 -378.854492188 1407.96289062 -395.825195312 c 132,-1,3
 1390.9921875 -412.795898438 1390.9921875 -412.795898438 1365.88964844 -413.149414062 c 132,-1,4
 1340.78710938 -413.502929688 1340.78710938 -413.502929688 1323.46289062 -396.178710938 c 132,-1,5
 1306.13964844 -378.854492188 1306.13964844 -378.854492188 1305.78515625 -353.751953125 c 132,-1,6
 1305.43164062 -328.650390625 1305.43164062 -328.650390625 1323.109375 -310.97265625 c 132,-1,7
 1340.78710938 -293.294921875 1340.78710938 -293.294921875 1365.53613281 -294.001953125 c 4,8,9
 1390.28515625 -293.294921875 1390.28515625 -293.294921875 1407.96289062 -310.97265625 c 132,-1,0
1379.67871094 -367.541015625 m 29,0,-1
 1351.39355469 -339.256835938 l 5,1,-1
 1379.67871094 -339.256835938 l 5,2,-1
 1351.39355469 -367.541015625 l 1029,3,-1
EndSplineSet
Validated: 527371
EndChar

StartChar: prostaVOW
Encoding: 57348 57348 284
Width: 80
VWidth: 3000
GlyphClass: 2
Flags: HW
LayerCount: 3
Fore
SplineSet
0 900 m 1
 80 900 l 1
 80 0 l 1
 0 0 l 1
 0 900 l 1
EndSplineSet
Validated: 1
EndChar

StartChar: prostaCONS
Encoding: 57347 57347 285
Width: 125
VWidth: 3000
GlyphClass: 2
Flags: HW
LayerCount: 3
Fore
SplineSet
0.1103515625 900 m 1
 120.110351562 900 l 1
 119.684570312 0.3310546875 l 1
 0 -0.0341796875 l 1
 0.1103515625 900 l 1
EndSplineSet
Validated: 524289
Layer: 2
SplineSet
60.1103515625 353 m 4
 99.384765625 353 125.110351562 332.149414062 125.110351562 292 c 4
 125.110351562 248 106.110351562 227 61.1103515625 227 c 4
 26.8349609375 227 0.1103515625 247 0.1103515625 291 c 4
 0.1103515625 325 21.1103515625 353 60.1103515625 353 c 4
EndSplineSet
EndChar

StartChar: konCONS
Encoding: 57346 57346 286
Width: 120
VWidth: 3000
GlyphClass: 2
Flags: HW
LayerCount: 3
Fore
SplineSet
60 80 m 29,0,-1
 60 40 l 5,1,-1
 40 60 l 5,2,-1
 80 60 l 1029,3,-1
0 60 m 0
 0 85 0 85 18 102.5 c 0
 36 120 36 120 60 120 c 0
 84 120 84 120 102 102.5 c 0
 120 85 120 85 120 60.5 c 0
 120 36 120 36 102.5 18 c 0
 85 0 85 0 60 0 c 0
 35 0 35 0 17.5 17.5 c 0
 0 35 0 35 0 60 c 0
EndSplineSet
Validated: 3
Layer: 2
SplineSet
60 80 m 29
 60 40 l 29
 40 60 l 29
 80 60 l 1053
60 120 m 128
 78 120 92.6666666667 114.666666667 104 104 c 0
 114.666666667 92.6666666667 120 78 120 60 c 0
 120 41.3333333333 114.5 26.6666666667 103.5 16 c 128
 92.5 5.33333333333 78 0 60 0 c 128
 42 0 27.5 5.5 16.5 16.5 c 128
 5.5 27.5 0 42 0 60 c 0
 0 77.3333333333 5.66666666667 91.6666666667 17 103 c 0
 27.6666666667 114.333333333 42 120 60 120 c 128
EndSplineSet
EndChar

StartChar: konVOW
Encoding: 57345 57345 288
Width: 120
VWidth: 3000
GlyphClass: 2
Flags: HW
LayerCount: 3
Fore
SplineSet
0 60 m 0
 0 85 0 85 18 102.5 c 0
 36 120 36 120 60 120 c 0
 84 120 84 120 102 102.5 c 0
 120 85 120 85 120 60.5 c 0
 120 36 120 36 102.5 18 c 0
 85 0 85 0 60 0 c 0
 35 0 35 0 17.5 17.5 c 0
 0 35 0 35 0 60 c 0
EndSplineSet
Validated: 1
Layer: 2
SplineSet
40 80 m 132
 66.6666666667 80 80 66.6666666667 80 40 c 132
 80 13.3333333333 66.6666666667 0 40 0 c 132
 13.3333333333 0 0 13.3333333333 0 40 c 132
 0 66.6666666667 13.3333333333 80 40 80 c 132
EndSplineSet
EndChar

StartChar: dolMK45
Encoding: 7 7 289
Width: 120
VWidth: 3000
Flags: HW
LayerCount: 3
Fore
SplineSet
119.46875 28 m 1
 0 -80 l 1
 0 81 l 2
 0 140 0 140 60 140 c 0
 120 140 120 140 120 81 c 0
 120 54 120 54 119.46875 28 c 1
EndSplineSet
Validated: 524289
EndChar

StartChar: gorLUK30
Encoding: 58296 58296 290
Width: 462
VWidth: 3000
Flags: HW
LayerCount: 3
Fore
SplineSet
60 68.994140625 m 29,0,-1
 60 108.994140625 l 5,1,-1
 80 88.994140625 l 5,2,-1
 40 88.994140625 l 1029,3,-1
402 39.994140625 m 29,0,-1
 402 79.994140625 l 5,1,-1
 422 59.994140625 l 5,2,-1
 382 59.994140625 l 1029,3,-1
112.499023438 59.841796875 m 1
 108.379882812 52.697265625 108.379882812 52.697265625 102 46.494140625 c 0
 84 28.994140625 84 28.994140625 60 28.994140625 c 0
 36 28.994140625 36 28.994140625 18 46.494140625 c 0
 0 63.994140625 0 63.994140625 0 88.494140625 c 0
 0 105.15625 0 105.15625 8.09375 118.811523438 c 1
 6 119.994140625 l 1
 94 258.994140625 94 258.994140625 233 259.994140625 c 0
 234.231445312 260 234.231445312 260 235.456054688 260 c 0,0,0
 462 260 462 260 462 75.994140625 c 2
 462 59.994140625 l 2
 462 34.994140625 462 34.994140625 444 17.494140625 c 0
 426 -0.005859375 426 -0.005859375 402 -0.005859375 c 0
 378 -0.005859375 378 -0.005859375 360 17.494140625 c 0
 342 34.994140625 342 34.994140625 342 59.494140625 c 0
 342 59.744140625 342 59.744140625 342.001953125 59.994140625 c 1
 342 59.994140625 l 1
 342 75.994140625 l 2
 342 139.994140625 342 139.994140625 232 139.994140625 c 0
 170 139.994140625 170 139.994140625 114 58.994140625 c 1
 112.499023438 59.841796875 l 1
EndSplineSet
Validated: 2621443
EndChar

StartChar: stm.k
Encoding: 57350 57350 291
Width: 120
VWidth: 0
Flags: HW
LayerCount: 3
Fore
SplineSet
0 60 m 1025
120 1740 m 1
 120 60 l 1
 60 60 60 60 0 60 c 1
 0 1740 l 1
 120 1740 l 1
EndSplineSet
Validated: 1
EndChar

StartChar: stm.k.krt
Encoding: 57351 57351 292
Width: 120
VWidth: 0
Flags: HW
LayerCount: 3
Fore
SplineSet
0 60 m 1025
120 1140 m 1
 120 60 l 1
 60 60 60 60 0 60 c 1
 0 1140 l 1
 60 1140 60 1140 120 1140 c 1
EndSplineSet
Validated: 1
EndChar

StartChar: stm.g
Encoding: 57352 57352 293
Width: 120
VWidth: 0
Flags: HW
LayerCount: 3
Fore
SplineSet
0 60 m 1025
120 740 m 1
 120 60 l 1
 60 60 60 60 0 60 c 1
 0 740 l 1
 60 740 60 740 120 740 c 1
EndSplineSet
Validated: 1
EndChar

StartChar: stm.g.krt
Encoding: 57353 57353 294
Width: 120
VWidth: 0
Flags: HW
LayerCount: 3
Fore
SplineSet
0 60 m 1025
120 541 m 1
 120 60 l 1
 60 60 60 60 0 60 c 1
 0 541 l 1
 60 541 60 541 120 541 c 1
EndSplineSet
Validated: 1
EndChar

StartChar: stem.i
Encoding: 57354 57354 295
Width: 120
VWidth: 0
Flags: HW
LayerCount: 3
Fore
SplineSet
0 60 m 1025
120 340 m 1
 120 60 l 1
 60 60 60 60 0 60 c 1
 0 340 l 1
 60 340 60 340 120 340 c 1
EndSplineSet
Validated: 1
EndChar

StartChar: stem.i.krt
Encoding: 57355 57355 296
Width: 120
VWidth: 0
Flags: HW
LayerCount: 3
Fore
SplineSet
0 60 m 1025
120 240 m 1
 120 60 l 1
 60 60 60 60 0 60 c 1
 0 240 l 1
 60 240 60 240 120 240 c 1
EndSplineSet
Validated: 1
EndChar

StartChar: stem.krt
Encoding: 57356 57356 297
Width: 120
VWidth: 0
Flags: HW
LayerCount: 3
Fore
SplineSet
0 60 m 1025
120 180 m 1
 120 60 l 1
 60 60 60 60 0 60 c 1
 0 180 l 1
 60 180 60 180 120 180 c 1
EndSplineSet
Validated: 1
EndChar

StartChar: konCONbis
Encoding: 57357 57357 298
Width: 120
VWidth: 3000
Flags: HW
LayerCount: 3
Fore
SplineSet
60 80 m 29,0,-1
 60 40 l 5,1,-1
 40 60 l 5,2,-1
 80 60 l 1029,3,-1
0 60 m 0
 0 85 0 85 18 102.5 c 0
 36 120 36 120 60 120 c 0
 84 120 84 120 102 102.5 c 0
 120 85 120 85 120 60.5 c 0
 120 36 120 36 102.5 18 c 0
 85 0 85 0 60 0 c 0
 35 0 35 0 17.5 17.5 c 0
 0 35 0 35 0 60 c 0
EndSplineSet
Validated: 3
EndChar

StartChar: konCON.krzyz
Encoding: 57358 57358 299
Width: 40
VWidth: 3000
Flags: HW
LayerCount: 3
Fore
SplineSet
20 80 m 25,0,-1
 20 40 l 1,1,-1
 0 60 l 1,2,-1
 40 60 l 1025,3,-1
EndSplineSet
Validated: 3
EndChar

StartChar: brh.p.4.19
Encoding: 57359 57359 300
Width: 480
VWidth: 3000
Flags: HW
LayerCount: 3
Fore
SplineSet
120 217 m 1
 360.0078125 458.01171875 360.0078125 458.01171875 360.0078125 602.739257812 c 0,0,0
 360.0078125 776 360.0078125 776 234 776 c 0
 120 776 120 776 120 544 c 2
 120 217 l 1
118 47 m 1
 89 48 89 48 59.5 48 c 2
 0 48 l 1
 0 551 l 2
 1 899 1 899 234.5 899 c 0
 480 899 480 899 480 600 c 0
 480 409 480 409 118 47 c 1
EndSplineSet
Validated: 524289
EndChar

StartChar: brh.p.3.19
Encoding: 57360 57360 301
Width: 482
VWidth: 3000
Flags: HW
LayerCount: 3
Fore
SplineSet
121 288 m 1
 130.30078125 304.893554688 130.30078125 304.893554688 266 540 c 0
 345.177248677 676.386243386 345.177248677 676.386243386 345.177248677 750.352327762 c 0,0,0
 345.177248677 838 345.177248677 838 234 838 c 0
 119.99137931 838 119.99137931 838 119.99137931 604.085760999 c 2,0,0
 121 288 l 1
120 53 m 1
 90 48 90 48 60 46 c 0
 30 44 30 44 0 44 c 1
 0 600 l 2
 1 961 1 961 234.5 961 c 0
 235.35610766 961.002070393 235.35610766 961.002070393 236.209251186 961.002070393 c 0,0,0
 481.762834418 961.002070393 481.762834418 961.002070393 481.762834418 789.487420067 c 0,0,0
 481.762834418 673.775849602 481.762834418 673.775849602 370 480 c 2
 120 53 l 1
EndSplineSet
Validated: 524289
EndChar

StartChar: brh.p.6.19
Encoding: 57361 57361 302
Width: 481
VWidth: 3000
Flags: HW
LayerCount: 3
Fore
SplineSet
120 186 m 1
 360 326 360 326 360 601 c 0
 360 780 360 780 240 780 c 0
 120 780 120 780 120 536 c 2
 120 186 l 1
118 47 m 1
 89 48 89 48 59.5 48 c 2
 0 48 l 1
 0 536 l 2
 0 900 0 900 240.5 900 c 0
 481 900 481 900 481 601 c 0
 481 253 481 253 118 47 c 1
EndSplineSet
Validated: 524289
EndChar

StartChar: brh.p.8.19
Encoding: 57362 57362 303
Width: 480
VWidth: 3000
Flags: HW
LayerCount: 3
Fore
SplineSet
120.00390625 169 m 1
 360.00390625 189 360.00390625 189 360.00390625 600 c 0
 360.00390625 777 360.00390625 777 227.00390625 777 c 0
 120.00390625 777 120.00390625 777 120.00390625 601 c 2
 120.00390625 169 l 1
118.00390625 47 m 0
 89.00390625 48 89.00390625 48 59.50390625 48 c 2
 0.00390625 48 l 1
 0.00390625 601 l 2
 -0.99609375 899 -0.99609375 899 227.50390625 900 c 0
 228.340820312 900.002929688 228.340820312 900.002929688 229.173828125 900.002929688 c 0,0,0
 480.006835938 900.002929688 480.006835938 900.002929688 480.006835938 597.135742188 c 0,0,0
 480.006835938 77.9150390625 480.006835938 77.9150390625 118.00390625 47 c 0
EndSplineSet
Validated: 524321
EndChar

StartChar: brh.b.4.19
Encoding: 57363 57363 304
Width: 452
VWidth: 3000
Flags: HW
LayerCount: 3
Fore
SplineSet
117.991210938 41 m 1
 0 60 l 1
 0 436 l 2
 0 719 0 719 228 719 c 0
 322 719 322 719 386.5 643.5 c 0
 452.032786885 566.791078917 452.032786885 566.791078917 452.032786885 493.953910239 c 0,0,0
 452.032786885 427.06557377 452.032786885 427.06557377 423.5 370 c 0
 394 311 394 311 300.5 219 c 0
 207 127 207 127 117.991210938 41 c 1
120 211 m 1
 205 294 l 2
 259 347 259 347 301 397 c 0
 327.992677484 432.452981457 327.992677484 432.452981457 327.992677484 479.74365974 c 0,0,0
 327.992677484 527.008136129 327.992677484 527.008136129 296.5 562 c 0
 265.875 596.027777778 265.875 596.027777778 228.16087963 596.027777778 c 0,0,0
 227.083333333 596.027777778 227.083333333 596.027777778 226 596 c 0
 187 595 187 595 153 559.5 c 0
 120.436619718 525.5 120.436619718 525.5 120.436619718 416.283177941 c 0,0,0
 120.436619718 411.464788732 120.436619718 411.464788732 120.5 406.5 c 0
 121.142857143 356.142857143 121.142857143 356.142857143 121.142857143 313.040816327 c 0,0,0
 121.142857143 255.571428571 121.142857143 255.571428571 120 211 c 1
EndSplineSet
Validated: 524289
EndChar

StartChar: brh.b.3.19
Encoding: 57364 57364 305
Width: 430
VWidth: 3000
Flags: HW
LayerCount: 3
Fore
SplineSet
117.991210938 41 m 1
 0 79 l 1
 0 587 l 2
 0 865 0 865 222 865 c 0
 430.291450777 865 430.291450777 865 430.291450777 702.575837606 c 0,0,0
 430.291450777 552.303108808 430.291450777 552.303108808 252 263 c 2
 191 164 l 2
 164 123 164 123 117.991210938 41 c 1
120 288 m 1
 158 346 l 1
 248 500 248 500 252 507 c 0
 303.061776062 610.8996139 303.061776062 610.8996139 303.061776062 668.863344315 c 0,0,0
 303.061776062 741.444015444 303.061776062 741.444015444 223 742 c 0
 222.390532544 742.00591716 222.390532544 742.00591716 221.784671405 742.00591716 c 0,0,0
 120 742.00591716 120 742.00591716 120 575 c 2
 120 288 l 1
EndSplineSet
Validated: 524289
EndChar

